<?xml version="1.0" encoding="UTF-8"?>
<svg id="b" data-name="Layer 2" xmlns="http://www.w3.org/2000/svg" viewBox="0 0 1331.239 799.127">
  <g id="c" data-name="Layer 1">
    <path d="M1312.214,51.71c15.531,23.835,21.595,43.879,18.036,59.674-.909,4.031-2.452,7.767-4.54,11.036,2.803,7.581,3.18,14.941,1.054,21.718-1.719,5.482-8.415,19.093-33.38,27.036-3.734,1.187-7.723-.882-8.912-4.61-1.187-3.734.876-7.723,4.61-8.912,3.445-1.096,20.802-7.104,24.144-17.762.634-2.023.821-4.245.574-6.609-6.502,3.473-14.562,5.243-23.544,5.083-17.534-.312-34.927-7.832-45.393-19.626-1.826-2.059-6.389-7.607-9.305-14.656-4.01-9.695-2.175-16.015.072-19.609,6.353-10.166,21.47-8.984,26.437-8.596,19.215,1.501,41.408,14.242,54.621,30.949,4.119-25.064-27.167-66.451-55.675-94.691-2.788-2.751-2.805-7.249-.047-10.032,2.757-2.784,7.249-2.805,10.032-.047,6.161,6.103,21.975,22.374,35.716,41.609,1.948,2.727,3.782,5.412,5.5,8.047ZM1308.603,119.882c-.217-.334-.435-.671-.664-1.009-10.245-15.156-30.441-27.559-46.977-28.851-11.184-.874-13.117,1.677-13.3,1.97-1.407,2.251,1.923,10.688,7.815,17.327,7.796,8.786,21.547,14.617,35.032,14.858,7.238.129,13.593-1.408,18.095-4.295Z" style="fill: #ff0;"/>
    <polygon points="109.215 740.055 68.231 740.055 97.211 711.074 89.718 703.582 60.738 732.562 60.738 691.578 50.142 691.578 50.142 732.562 21.162 703.582 13.669 711.074 42.649 740.055 1.665 740.055 1.665 750.651 42.65 750.651 13.669 779.631 21.162 787.123 50.142 758.143 50.142 799.127 60.738 799.127 60.738 758.143 89.718 787.123 97.211 779.631 68.23 750.651 109.215 750.651 109.215 740.055" style="fill: #ff0;"/>
    <path d="M1275.117,748.973H43.234c-23.84,0-43.234-18.434-43.234-41.093V84.321c0-22.659,19.395-41.093,43.234-41.093h51.161v1h-51.161C19.946,44.229,1,62.214,1,84.321v623.559c0,22.107,18.946,40.093,42.234,40.093h1231.883c23.288,0,42.234-17.985,42.234-40.093V84.321c0-22.107-18.946-40.093-42.234-40.093h-51.036v-1h51.036c23.84,0,43.234,18.434,43.234,41.093v623.559c0,22.659-19.395,41.093-43.234,41.093Z" style="fill: #f3f3f3;"/>
  </g>
</svg>