<?xml version="1.0" encoding="UTF-8"?>
<svg id="a" data-name="Layer 1" xmlns="http://www.w3.org/2000/svg" viewBox="0 0 50 50">
  <path d="M14.471,28.386c-1.1,2.707-1.148,5.4.082,6.835,2.883,3.365,6.672.911,6.672.911-2.836.613-5.916-.86-2.999-6.634,4.526-8.959,14.29-11.261,14.29-11.261,2.71-.915,6.921-1.079,8.531,3.177,1.611,4.257-.307,9.235-1.373,11.97-1.066,2.735-3.32,4.646-3.32,4.646l-.057-3.519c.098-.467-.138-.925-.533-1.089-.31-.129-.68-.061-.954.17-1.387,1.133-3.345,2.565-5.865,3.921-1.475.794-3.71,1.98-6.788,2.814-3.374.914-8.235,2.232-12.519-.161-1.582-.884-2.631-2.019-3.248-2.801,4.553,8.31,10.351,7.385,15.193,6.851,4.842-.534,10.925-4.231,10.925-4.231,0,0-.474,2.584-.051,3.765.173.481.268.708.475.867,1.722,1.316,5.735-3.271,6.103-3.632,1.868-1.832,6.052-8.338,6.42-15.146,0,0,.458-9.767-6.972-11.548,0,0-3.312-.801-8.877,1.104-5.565,1.905-12.693,6.973-15.138,12.991Z" style="fill: #ff0;"/>
  <g>
    <path d="M32.198,19.692c.069-.309.13-.61.185-.906-.636.178-2.425.735-4.568,1.879-2.226,8.333-7.352,11.736-8.813,12.118-.7.183-1.146.209-1.43.175-.096.871.072,1.446.301,1.818.53.861,1.6.99,2.19.99.341,0,.695-.049,1.058-.118.44-.083,2.057-.644,2.287-.82,3.821-2.915,7.418-9.039,8.79-15.136Z" style="fill: #ff0;"/>
    <path d="M28.482,17.429c-.038.254-.078.504-.121.75,1.925-.885,3.368-1.278,3.742-1.372.17-.056.361-.115.568-.172.015-.194.028-.384.037-.571-.795.176-1.668.414-2.615.739-.528.181-1.066.391-1.61.626Z" style="fill: #ff0;"/>
    <path d="M6.782,37.059c.883,1.12,1.926,2.02,3.1,2.676,1.558.87,3.296,1.293,5.314,1.293,1.004,0,1.995-.107,2.948-.269-3.373-.262-6.77-2.095-8.587-6.125-2.429-5.388-.045-12.132,2.519-16.71,2.564-4.578,9.437-9.841,13.202-8.852,3.766.989,3.494,5.689,3.494,5.689-.01.142-.021.283-.033.423.238-.091.475-.177.71-.257,1.183-.405,2.266-.689,3.238-.886-.332-4.597-2.554-6.622-2.554-6.622,0,0-7.183-7.293-18.04,4.252-10.857,11.545-6.823,23.035-6.823,23.035.25.829,1.361,2.161,1.513,2.353Z" style="fill: #ff0;"/>
  </g>
</svg>