<?xml version="1.0" encoding="UTF-8"?>
<svg id="b" data-name="Layer 2" xmlns="http://www.w3.org/2000/svg" viewBox="0 0 389.31 408.29">
  <g id="c" data-name="Layer 1">
    <path d="M56.638,182.091c6.106,0,10.499-2.668,13.175-8.02,2.668-5.344,4.01-12.978,4.01-22.914v-85.926c0-9.927-1.147-16.9-3.438-20.909-2.291-4.01-5.54-6.015-9.737-6.015h-2.291c-4.206,0-7.446,1.916-9.737,5.728-2.291,3.822-3.438,10.696-3.438,20.623v101.392H.5V58.357c0-10.311,1.521-19.092,4.583-26.35,3.053-7.25,7.161-13.175,12.316-17.758,5.155-4.584,10.973-8.021,17.471-10.312,6.491-2.291,12.98-3.437,19.477-3.437h10.312c6.489,0,12.977,1.146,19.477,3.437,6.489,2.291,12.316,5.728,17.471,10.312,5.155,4.583,9.254,10.508,12.316,17.758,3.053,7.258,4.583,16.039,4.583,26.35v87.645c0,16.424-3.821,28.642-11.456,36.662-7.644,8.021-16.424,13.175-26.351,15.467,9.927,1.916,18.707,6.499,26.351,13.749,7.635,7.259,11.456,18.904,11.456,34.943v103.684c0,10.312-1.53,19.101-4.583,26.351-3.062,7.259-7.161,13.175-12.316,17.758-5.155,4.583-10.982,7.93-17.471,10.025-6.5,2.094-12.988,3.151-19.477,3.151h-10.312c-6.498,0-12.986-1.057-19.477-3.151-6.498-2.094-12.316-5.442-17.471-10.025-5.155-4.583-9.263-10.499-12.316-17.758-3.062-7.25-4.583-16.039-4.583-26.351v-107.694h44.681v100.82c0,9.936,1.147,16.9,3.438,20.909,2.291,4.01,5.531,6.015,9.737,6.015h2.291c4.197,0,7.446-2.005,9.737-6.015,2.291-4.009,3.438-10.973,3.438-20.909v-97.955c0-9.927-1.343-17.561-4.01-22.914-2.677-5.343-7.07-8.02-13.175-8.02h-14.32v-32.651h14.32Z" style="fill: none; stroke: #fff; stroke-miterlimit: 10;"/>
    <path d="M189.533,407.79c-6.498,0-12.986-1.146-19.477-3.437-6.498-2.291-12.316-5.728-17.471-10.311-5.155-4.583-9.263-10.499-12.316-17.758-3.062-7.25-4.583-16.04-4.583-26.351V58.357c0-10.311,1.521-19.092,4.583-26.35,3.053-7.25,7.161-13.175,12.316-17.758,5.155-4.584,10.973-8.021,17.471-10.312,6.491-2.291,12.98-3.437,19.477-3.437h7.446c6.876,0,13.552,1.146,20.052,3.437,6.489,2.291,12.316,5.728,17.471,10.312,5.155,4.583,9.254,10.508,12.316,17.758,3.053,7.258,4.583,16.039,4.583,26.35v73.324h-42.39v-67.022c0-9.927-1.147-16.801-3.438-20.623-2.291-3.812-5.54-5.728-9.737-5.728h-2.291c-4.206,0-7.446,2.005-9.737,6.015-2.291,4.009-3.438,10.982-3.438,20.909v105.975c4.197-6.874,9.067-11.931,14.607-15.181,5.531-3.24,11.171-4.869,16.899-4.869h4.01c9.165,0,17.758,4.583,25.779,13.748,8.018,9.166,12.029,23.872,12.029,44.109v140.919c0,10.311-1.53,19.101-4.583,26.351-3.062,7.259-7.161,13.175-12.316,17.758-5.155,4.583-10.982,8.02-17.471,10.311-6.5,2.291-12.988,3.437-19.477,3.437h-10.312ZM180.368,343.059c0,9.934,1.147,16.899,3.438,20.909,2.291,4.009,5.531,6.014,9.737,6.014h2.291c4.197,0,7.446-2.005,9.737-6.014,2.291-4.01,3.438-10.974,3.438-20.909v-127.171c0-9.926-1.147-16.899-3.438-20.909-2.291-4.009-5.54-6.014-9.737-6.014h-2.291c-3.821,0-6.874,1.629-9.165,4.869-2.291,3.25-3.634,9.076-4.01,17.472v131.754Z" style="fill: none; stroke: #fff; stroke-miterlimit: 10;"/>
    <path d="M324.652,407.79c-6.498,0-12.986-1.146-19.477-3.437-6.498-2.291-12.316-5.728-17.471-10.311-5.155-4.583-9.263-10.499-12.316-17.758-3.062-7.25-4.583-16.04-4.583-26.351V58.357c0-10.311,1.521-19.092,4.583-26.35,3.053-7.25,7.161-13.175,12.316-17.758,5.155-4.584,10.973-8.021,17.471-10.312,6.491-2.291,12.98-3.437,19.477-3.437h10.312c6.489,0,12.977,1.146,19.477,3.437,6.489,2.291,12.316,5.728,17.471,10.312,5.155,4.583,9.254,10.508,12.316,17.758,3.053,7.258,4.583,16.039,4.583,26.35v291.576c0,10.311-1.53,19.101-4.583,26.351-3.062,7.259-7.161,13.175-12.316,17.758-5.155,4.583-10.982,8.02-17.471,10.311-6.5,2.291-12.988,3.437-19.477,3.437h-10.312ZM328.662,38.307c-8.789,0-13.175,8.978-13.175,26.924v277.827c0,9.934,1.147,16.899,3.438,20.909,2.291,4.009,5.531,6.014,9.737,6.014h2.291c4.197,0,7.446-2.005,9.737-6.014,2.291-4.01,3.438-10.974,3.438-20.909V65.232c0-17.946-4.396-26.924-13.175-26.924h-2.291Z" style="fill: none; stroke: #fff; stroke-miterlimit: 10;"/>
  </g>
</svg>