<?xml version="1.0" encoding="UTF-8"?>
<svg id="b" data-name="Layer 2" xmlns="http://www.w3.org/2000/svg" viewBox="0 0 451.67 451.67">
  <g id="c" data-name="Layer 1">
    <g>
      <circle cx="225.835" cy="225.835" r="225.835" style="fill: #ff0;"/>
      <g>
        <path d="M124.525,176.786c-.96,9.959-10.2,17.219-22.079,17.219-13.619,0-23.459-9.66-23.459-22.979s9.84-22.979,23.399-22.979c11.7,0,20.939,7.319,22.02,17.459l-12.06,1.261c-.9-4.44-4.92-7.68-9.54-7.68-6.419,0-10.799,4.859-10.799,11.939s4.44,11.939,10.74,11.939c4.62,0,8.64-3.181,9.659-7.561l12.12,1.381Z" style="fill: #191514;"/>
        <path d="M161.785,183.264c-1.38,6.061-8.04,10.44-16.079,10.44-10.2,0-17.279-6.78-17.279-16.8,0-9.84,7.259-16.559,17.519-16.559s16.979,6.719,16.979,16.679c0,.899-.06,2.521-.12,3.12h-22.499c.78,3.24,2.88,5.22,6,5.22,2.64,0,4.56-1.44,5.28-3.42l10.2,1.319ZM151.285,174.085c-.18-2.939-2.46-5.459-5.58-5.459-2.94,0-4.86,2.16-5.46,5.459h11.04Z" style="fill: #191514;"/>
        <path d="M179.485,175.465v17.039h-11.58v-30.959h11.58v7.38c1.56-5.22,5.16-8.579,9.72-8.579,6.06,0,10.379,5.159,10.379,12.299v19.859h-11.58v-17.219c0-2.881-1.56-4.86-4.08-4.86s-4.439,2.04-4.439,5.04Z" style="fill: #191514;"/>
        <path d="M222.924,181.585h2.28v5.221c0,4.079-3.42,6.899-8.16,6.899-5.939,0-9.719-3.3-9.719-8.34v-15.239h-3.96v-8.58h4.439l1.14-8.1h9.9v8.1h6.479v8.58h-6.479v16.619c0,1.5.84,2.46,2.04,2.46s2.04-.96,2.04-2.46v-5.16Z" style="fill: #191514;"/>
        <path d="M253.044,161.066v10.259c-1.86-.779-4.02-1.26-5.46-1.26-3.42,0-5.7,2.641-5.7,6.48v15.959h-11.58v-30.959h11.52v7.68c1.38-5.399,4.32-8.879,7.919-8.879.96,0,2.16.299,3.3.72Z" style="fill: #191514;"/>
        <path d="M279.203,161.546h11.52v26.579c0,.601.42,1.08,1.02,1.08s1.02-.479,1.02-1.08v-6.42h2.22v6.3c0,3.359-2.64,5.7-7.739,5.7-4.68,0-8.04-1.92-8.04-6.84v-2.64c-1.68,5.879-5.52,9.479-10.5,9.479-7.8,0-13.139-6.78-13.139-16.68s5.339-16.679,13.139-16.679c4.98,0,8.76,3.6,10.5,9.419v-8.22ZM279.143,177.025c0-3.84-2.52-6.6-6-6.6-3.54,0-6,2.76-6,6.6,0,3.78,2.46,6.6,6,6.6,3.48,0,6-2.819,6-6.6Z" style="fill: #191514;"/>
        <path d="M332.842,147.747v44.758h-11.52v-6.24c-1.92,4.62-5.459,7.44-10.139,7.44-7.68,0-12.96-6.78-12.96-16.68s5.28-16.679,12.96-16.679c4.56,0,8.159,2.819,10.139,7.499v-20.099h11.52ZM315.803,183.505c3.48,0,6-2.76,6-6.479,0-3.78-2.52-6.54-6-6.54-3.54,0-6,2.76-6,6.54s2.52,6.479,6,6.479Z" style="fill: #191514;"/>
        <path d="M355.343,193.705c-10.5,0-17.579-6.72-17.579-16.68s7.08-16.679,17.579-16.679c10.439,0,17.519,6.719,17.519,16.679s-7.08,16.68-17.519,16.68ZM355.343,170.425c-3.54,0-6,2.7-6,6.6s2.459,6.6,6,6.6,6-2.7,6-6.6-2.459-6.6-6-6.6Z" style="fill: #191514;"/>
        <path d="M191.349,231.882c-.989,4.343-5.762,7.481-11.524,7.481-7.31,0-12.384-4.858-12.384-12.039,0-7.052,5.203-11.868,12.556-11.868s12.168,4.816,12.168,11.954c0,.645-.043,1.806-.086,2.236h-16.125c.559,2.321,2.064,3.74,4.3,3.74,1.892,0,3.268-1.031,3.784-2.451l7.31.946ZM183.824,225.303c-.129-2.106-1.763-3.912-3.999-3.912-2.107,0-3.483,1.547-3.913,3.912h7.912Z" style="fill: #191514;"/>
        <path d="M204.034,226.293v12.212h-8.299v-22.188h8.299v5.289c1.118-3.741,3.698-6.149,6.966-6.149,4.343,0,7.439,3.698,7.439,8.815v14.232h-8.299v-12.341c0-2.063-1.118-3.483-2.924-3.483s-3.182,1.463-3.182,3.612Z" style="fill: #191514;"/>
        <path d="M270.683,231.882c-.989,4.343-5.762,7.481-11.524,7.481-7.31,0-12.384-4.858-12.384-12.039,0-7.052,5.203-11.868,12.556-11.868s12.169,4.816,12.169,11.954c0,.645-.043,1.806-.086,2.236h-16.125c.559,2.321,2.064,3.74,4.3,3.74,1.892,0,3.268-1.031,3.784-2.451l7.31.946ZM263.158,225.303c-.129-2.106-1.763-3.912-3.999-3.912-2.107,0-3.483,1.547-3.913,3.912h7.912Z" style="fill: #191514;"/>
        <path d="M283.325,238.505h-8.256v-32.078h8.256v32.078Z" style="fill: #191514;"/>
        <path d="M144.295,270.506c-.6-2.64-2.94-4.56-5.64-4.56-3.36,0-5.88,2.939-5.88,7.079,0,4.08,2.46,7.08,5.88,7.08,2.7,0,5.04-1.92,5.64-4.56l10.62,1.26c-.96,7.5-7.979,12.899-16.379,12.899-9.899,0-17.339-7.021-17.339-16.68s7.32-16.679,17.339-16.679c8.46,0,15.479,5.34,16.379,12.779l-10.62,1.38Z" style="fill: #191514;"/>
        <path d="M171.235,288.505h-11.52v-44.758h11.52v44.758Z" style="fill: #191514;"/>
        <path d="M183.956,241.946c3.72,0,6.42,2.58,6.42,6.18,0,3.66-2.7,6.24-6.42,6.24s-6.479-2.58-6.479-6.24c0-3.6,2.76-6.18,6.479-6.18ZM189.715,288.505h-11.579v-30.959h11.579v30.959Z" style="fill: #191514;"/>
        <path d="M228.714,279.264c-1.38,6.061-8.04,10.44-16.079,10.44-10.2,0-17.279-6.78-17.279-16.8,0-9.84,7.259-16.559,17.519-16.559s16.979,6.719,16.979,16.679c0,.899-.06,2.521-.12,3.12h-22.499c.78,3.24,2.88,5.22,6,5.22,2.64,0,4.56-1.44,5.28-3.42l10.2,1.319ZM218.215,270.085c-.18-2.939-2.46-5.459-5.58-5.459-2.94,0-4.86,2.16-5.46,5.459h11.04Z" style="fill: #191514;"/>
        <path d="M246.415,271.465v17.039h-11.58v-30.959h11.58v7.38c1.56-5.22,5.16-8.579,9.72-8.579,6.06,0,10.379,5.159,10.379,12.299v19.859h-11.58v-17.219c0-2.881-1.56-4.86-4.08-4.86s-4.439,2.04-4.439,5.04Z" style="fill: #191514;"/>
        <path d="M289.854,277.585h2.28v5.221c0,4.079-3.42,6.899-8.16,6.899-5.939,0-9.719-3.3-9.719-8.34v-15.239h-3.96v-8.58h4.439l1.14-8.1h9.9v8.1h6.479v8.58h-6.479v16.619c0,1.5.84,2.46,2.04,2.46s2.04-.96,2.04-2.46v-5.16Z" style="fill: #191514;"/>
        <path d="M329.333,279.264c-1.38,6.061-8.04,10.44-16.079,10.44-10.2,0-17.279-6.78-17.279-16.8,0-9.84,7.259-16.559,17.519-16.559s16.979,6.719,16.979,16.679c0,.899-.06,2.521-.12,3.12h-22.499c.78,3.24,2.88,5.22,6,5.22,2.64,0,4.56-1.44,5.28-3.42l10.2,1.319ZM318.833,270.085c-.18-2.939-2.46-5.459-5.58-5.459-2.94,0-4.86,2.16-5.46,5.459h11.04Z" style="fill: #191514;"/>
      </g>
    </g>
  </g>
</svg>