<?xml version="1.0" encoding="UTF-8"?>
<svg id="b" data-name="Layer 2" xmlns="http://www.w3.org/2000/svg" viewBox="0 0 451.67 451.67">
  <g id="c" data-name="Layer 1">
    <g>
      <circle cx="225.835" cy="225.835" r="225.835" style="fill: #ff0;"/>
      <g>
        <path d="M177.787,199.37h-14.801v-35.802h14.801c12.301,0,20.501,7.15,20.501,17.9s-8.2,17.901-20.501,17.901ZM173.486,171.668v19.602h4.3c5.75,0,9.65-3.85,9.65-9.801s-3.9-9.801-9.65-9.801h-4.3Z" style="fill: #191514;"/>
        <path d="M221.187,173.569h9.601v22.151c0,.5.35.9.85.9s.85-.4.85-.9v-5.351h1.85v5.251c0,2.8-2.2,4.75-6.451,4.75-3.9,0-6.7-1.601-6.7-5.7v-2.2c-1.4,4.9-4.601,7.9-8.75,7.9-6.5,0-10.951-5.65-10.951-13.901s4.45-13.9,10.951-13.9c4.15,0,7.3,3,8.75,7.851v-6.851ZM221.136,186.469c0-3.199-2.1-5.5-5-5.5-2.95,0-5,2.301-5,5.5,0,3.15,2.05,5.501,5,5.501,2.9,0,5-2.351,5-5.501Z" style="fill: #191514;"/>
        <path d="M252.836,190.27h1.9v4.35c0,3.4-2.85,5.751-6.8,5.751-4.95,0-8.101-2.75-8.101-6.95v-12.701h-3.3v-7.15h3.7l.95-6.75h8.25v6.75h5.4v7.15h-5.4v13.852c0,1.25.7,2.05,1.7,2.05s1.7-.8,1.7-2.05v-4.301Z" style="fill: #191514;"/>
        <path d="M277.636,173.569h9.601v22.151c0,.5.35.9.85.9s.85-.4.85-.9v-5.351h1.85v5.251c0,2.8-2.2,4.75-6.451,4.75-3.9,0-6.7-1.601-6.7-5.7v-2.2c-1.4,4.9-4.601,7.9-8.75,7.9-6.5,0-10.951-5.65-10.951-13.901s4.45-13.9,10.951-13.9c4.15,0,7.3,3,8.75,7.851v-6.851ZM277.586,186.469c0-3.199-2.1-5.5-5-5.5-2.95,0-5,2.301-5,5.5,0,3.15,2.05,5.501,5,5.501,2.9,0,5-2.351,5-5.501Z" style="fill: #191514;"/>
        <path d="M131.234,269.37h-20.722v-50.125h20.722c17.222,0,28.703,10.011,28.703,25.062s-11.481,25.062-28.703,25.062ZM125.213,230.586v27.443h6.021c8.051,0,13.512-5.391,13.512-13.722s-5.461-13.722-13.512-13.722h-6.021Z" style="fill: #191514;"/>
        <path d="M192.414,232.687v11.972c-2.17-.91-4.69-1.471-6.371-1.471-3.99,0-6.65,3.08-6.65,7.561v18.622h-13.512v-36.124h13.441v8.961c1.61-6.301,5.041-10.361,9.241-10.361,1.12,0,2.52.351,3.85.841Z" style="fill: #191514;"/>
        <path d="M204.382,215.045c4.34,0,7.491,3.01,7.491,7.211,0,4.27-3.15,7.28-7.491,7.28s-7.561-3.011-7.561-7.28c0-4.201,3.221-7.211,7.561-7.211ZM211.103,269.37h-13.512v-36.124h13.512v36.124Z" style="fill: #191514;"/>
        <path d="M248.624,269.37h-22.332l-10.501-36.124h14.352l7.281,32.134,7.281-32.134h14.352l-10.431,36.124Z" style="fill: #191514;"/>
        <path d="M298.674,258.589c-1.61,7.071-9.381,12.182-18.762,12.182-11.901,0-20.162-7.911-20.162-19.603,0-11.48,8.471-19.322,20.442-19.322s19.812,7.842,19.812,19.463c0,1.05-.07,2.939-.14,3.641h-26.252c.91,3.779,3.36,6.09,7,6.09,3.081,0,5.321-1.68,6.161-3.99l11.901,1.54ZM286.423,247.878c-.21-3.431-2.87-6.37-6.511-6.37-3.43,0-5.67,2.52-6.371,6.37h12.881Z" style="fill: #191514;"/>
        <path d="M319.321,249.488v19.882h-13.512v-36.124h13.512v8.611c1.82-6.091,6.021-10.012,11.341-10.012,7.07,0,12.111,6.021,12.111,14.352v23.173h-13.511v-20.093c0-3.359-1.82-5.67-4.761-5.67s-5.18,2.381-5.18,5.881Z" style="fill: #191514;"/>
      </g>
    </g>
  </g>
</svg>