<?xml version="1.0" encoding="UTF-8"?>
<svg id="b" data-name="Layer 2" xmlns="http://www.w3.org/2000/svg" viewBox="0 0 1061.162 467.043">
  <g id="c" data-name="Layer 1">
    <g>
      <path d="M57.995,438.664c-6.999,0-13.987-1.234-20.977-3.703-6.999-2.467-13.265-6.17-18.817-11.105s-9.978-11.307-13.265-19.125c-3.297-7.809-4.936-17.275-4.936-28.381V62.314c0-11.105,1.639-20.562,4.936-28.381,3.287-7.809,7.712-14.189,13.265-19.125S30.02,6.17,37.018,3.703c6.989-2.469,13.978-3.703,20.977-3.703h11.105c6.989,0,13.978,1.234,20.977,3.703,6.989,2.467,13.265,6.17,18.817,11.105s9.968,11.316,13.265,19.125c3.288,7.818,4.936,17.275,4.936,28.381v314.035c0,11.52-1.755,21.189-5.245,28.998-3.499,7.818-8.126,14.189-13.881,19.125l18.509,18.51-24.062,24.061-28.38-28.379h-16.042ZM62.313,40.721c-9.466,0-14.19,9.668-14.19,28.998v299.227c0,10.701,1.234,18.201,3.702,22.52s5.958,6.479,10.488,6.479h2.468c4.521,0,8.021-2.16,10.489-6.479s3.702-11.818,3.702-22.52V69.719c0-19.33-4.733-28.998-14.19-28.998h-2.468Z" style="fill: #fff;"/>
      <path d="M205.782,438.664c-6.96,0-13.92-1.139-20.88-3.395s-13.207-5.957-18.731-11.105c-5.523-5.139-10.025-11.615-13.505-19.434-3.48-7.809-5.215-17.275-5.215-28.381V3.703h48.123v365.242c0,10.701,1.234,18.201,3.702,22.52,2.468,4.318,5.958,6.479,10.488,6.479h3.085c4.106,0,7.403-2.16,9.871-6.479s3.702-11.818,3.702-22.52V3.703h48.123v372.646c0,11.105-1.639,20.572-4.917,28.381-3.277,7.818-7.673,14.189-13.197,19.125-5.533,4.936-11.771,8.639-18.73,11.105-6.96,2.469-14.123,3.703-21.488,3.703h-10.431Z" style="fill: #fff;"/>
      <path d="M370.173,320.822h-33.933l-9.254,114.139h-41.336L323.901,3.703h61.697l40.72,431.258h-46.273l-9.872-114.139ZM339.325,285.039h27.764l-12.957-148.072h-1.851l-12.957,148.072Z" style="fill: #fff;"/>
      <path d="M529.343,434.961l-51.209-281.953h-1.233v281.953h-40.103V3.703h54.293l48.123,276.4V3.703h43.805v431.258h-53.676Z" style="fill: #fff;"/>
      <path d="M725.537,44.422h-41.337v390.539h-48.123V44.422h-41.954V3.703h131.414v40.719Z" style="fill: #fff;"/>
      <path d="M795.588,438.664c-6.961,0-13.921-1.139-20.881-3.395s-13.207-5.957-18.73-11.105c-5.524-5.139-10.026-11.615-13.506-19.434-3.48-7.809-5.216-17.275-5.216-28.381V3.703h48.124v365.242c0,10.701,1.233,18.201,3.701,22.52s5.958,6.479,10.488,6.479h3.085c4.107,0,7.404-2.16,9.872-6.479s3.701-11.818,3.701-22.52V3.703h48.124v372.646c0,11.105-1.64,20.572-4.917,28.381-3.277,7.818-7.674,14.189-13.197,19.125-5.533,4.936-11.771,8.639-18.73,11.105-6.96,2.469-14.123,3.703-21.488,3.703h-10.43Z" style="fill: #fff;"/>
      <path d="M1061.162,3.703v431.258h-40.103V153.008h-.617l-30.849,281.953h-35.167l-30.231-281.953h-1.233v281.953h-40.103V3.703h62.313l25.912,246.168h1.234L999.465,3.703h61.696Z" style="fill: #fff;"/>
    </g>
  </g>
</svg>