<?xml version="1.0" encoding="UTF-8"?>
<svg id="b" data-name="Layer 2" xmlns="http://www.w3.org/2000/svg" viewBox="0 0 1441.37 1224.27">
  <g id="c" data-name="Layer 1">
    <path d="M848.71,0C806.61,0,769.651,27.938,758.105,68.424c-6.026,21.129-12.238,42.327-18.635,63.556-11.92,39.6-24.48,79.31-37.65,118.86-41.16,123.72-88.25,245.99-140.44,359.22-62.97,136.68-133.36,260.18-209.7,357.18-72.1,91.61-149.51,159.57-231,192.64,33.61-91.17,54.61-191.08,63.01-292.24v-.01c9.7-116.78,2.6-235.23-21.27-343.78-9.83-44.76-22.52-87.82-38.07-128.4v-.01c-9.34-24.43-19.73-47.95-31.14-70.4-15.16-29.81-45.94-90.36-93.21-143.24v1042.47h367.72c74.44-64.17,145.83-149.21,213.95-254.82,46.11-71.49,90.73-152.41,133.76-242.67,18-37.78,35.75-77.23,53.2-118.25,24.64-57.95,47.36-116.01,68.14-172.72,12.97-35.37,25.18-70.21,36.64-104.17,13.68-40.52,26.29-79.79,37.83-117.2,10.176-33.003,19.518-64.559,28.027-94.251C956.521,59.976,911.346,0,848.711,0h0Z" style="fill: #ff6ef3;"/>
    <path d="M964.66,788.97c-12.77,2.05-25.29,4.56-37.49,7.55-39.83,9.75-156,38.18-190.93,125.98-2.31,5.8-4.27,11.87-5.82,18.2-8.86,36.12-6.82,93.82,53.21,163.62,43.65,50.75,96.89,84.47,117.76,96.62,14.81,8.62,30.33,16.4,46.44,23.33h429.59c22.86-9.36,44.23-20.09,63.95-32.08v-303.85c-141.66-84.23-326.94-123.48-476.71-99.37ZM1296.75,1121.03c-113.06,35-243.66,24.13-332.74-27.7-67.32-39.17-118.23-100.35-112.68-122.97.73-2.95,9.84-29.51,105.45-52.91,141.36-34.61,343.71,13.35,470.69,111.55,2.83,2.19,5.57,4.4,8.3,6.59-29.6,36.41-78.35,66.65-139.02,85.44ZM1304.79,478.73c-8.47-7.06-17.13-14.14-25.98-21.22-21.55-17.25-44.2-34.59-67.92-51.97-68.87-50.47-139.07-96.23-202.68-134.79-34.72-21.05-67.47-39.95-96.97-56.31-47.76-26.48-86.98-46.27-112.19-57.68-21.08-9.53-40.94-17.74-59.58-24.78-53.88-20.35-97.61-31.02-131.19-36.23h-.01c-46.41-7.2-73.44-3.96-81.1-1.4-15.11,5.06-37.9,50.24-45.57,65.62-11.26,22.57,56.83,35.57,151.27,66.36,21.8,7.11,45,15.17,68.95,24.51,13.68,5.34,27.61,11.09,41.67,17.33,42.8,18.99,86.4,40.29,129.92,63.47,14.66,7.8,29.31,15.82,43.91,24.04,104.82,58.95,207.41,128.03,295.18,201.12,104.15,86.72,187.44,179.09,228.87,266.91v-214.87c-38.38-42.86-83.93-86.25-136.58-130.11Z" style="fill: #ff0;"/>
    <path d="M1441.37,72.23v353.34c-5.25.11-10.49.35-15.73.71h-.05c-44.89,9.05-84.51,27.9-120.8,52.45-33.03,22.34-63.3,49.39-92.29,78.07-40.36,39.89-78.23,82.92-117.58,120.69-40.8,39.17-84.3,76.81-130.26,111.48-70.63,53.29-147.07,99.55-228.42,133.53-12.77,5.34-25.67,10.37-38.68,15.08-36.66,13.26-75.76,24.29-115.89,31.87-76.19,14.4-156.09,16.39-229.99-2.21-34.74-8.75-68.16-22.05-99.25-40.76-27.6-16.61-50.4-36.52-68.74-58.84v-.01c-73.75-89.75-75.41-218.63-27.56-329.9,2.01-4.67,4.11-9.29,6.29-13.88,28.78-60.52,71.48-114.69,95.47-177.39,4.37-11.41,8.41-22.94,12.04-34.58,5.21-16.59,9.6-33.42,12.97-50.49.1-.47.19-.94.28-1.41.65-9.24.93-18.49.69-27.74-.71-2.87-1.48-5.72-2.33-8.55-1-1.79-2.02-3.57-3.09-5.32-1.15-1.2-2.33-2.38-3.53-3.55-1.57-.94-3.16-1.85-4.75-2.76-2.68-.79-5.36-1.52-8.07-2.19-1.33-.05-2.65-.06-3.98-.06-4.14,2.34-8.21,4.81-12.2,7.42-13.44,12.02-25.98,25.11-37.66,38.86-14.57,20.67-27.75,42.31-40.35,64.23-14.37,25.03-28.71,50.22-43.56,75.12v.01c-30.42,51.06-62.99,100.88-102.36,145.43-6.85,7.75-14.2,15.68-21.99,23.62V68.167C0,30.519,30.519,0,68.167,0h454.1c20.764,0,40.253,10.013,52.345,26.893l.198.277c5.19,7.23,9.9,14.82,14.06,22.7,2.23,4.19,4.3,8.46,6.23,12.8,4.9,11.03,9.28,22.05,13.17,33.08h.01c15.36,43.56,23.06,87.12,24.59,130.58,3.37,96.31-23.55,192.06-64.44,285.83-9.79,22.46-20.46,44.59-32.15,66.12-8.2,15.08-16.88,29.89-25.51,44.75,17.05-3.6,33.93-7.95,50.61-12.97,15.58-4.69,30.97-9.98,46.18-15.8,54.78-25.22,106.36-56.91,154.86-92.74.54-.45,1.08-.88,1.62-1.32,25.24-20.41,49.3-42.06,72.73-64.39,25.9-24.67,51.05-50.17,76.18-75.71,1.45-1.47,2.91-2.95,4.37-4.42,28.45-28.72,58.83-57.42,90.89-84.93,123.96-106.38,273.03-195.06,433.16-198.52Z" style="fill: #753bd0;"/>
  </g>
</svg>