<?xml version="1.0" encoding="UTF-8"?>
<svg id="b" data-name="Layer 2" xmlns="http://www.w3.org/2000/svg" viewBox="0 0 965.048 963.032">
  <g id="c" data-name="Layer 1">
    <path d="M965.048,481.516c0-65.004-12.731-128.063-37.84-187.428-10.831-25.608-23.756-50.046-38.677-73.195-2.749-8.14-8.251-16.1-16.369-23.786-14.51-19.779-30.576-38.502-48.147-56.074-44.222-44.222-95.717-78.94-153.056-103.193-13.791-5.833-27.783-10.989-41.951-15.481-3.439-1.313-7.052-2.589-10.858-3.818-21.452-6.929-47.148-11.987-75.188-14.926C524.925,1.402,506.689.206,488.293.029c-.781-.016-1.563-.029-2.345-.029-.266,0-.531.008-.798.01-.54-.001-1.079-.01-1.619-.01h-.009c-.4,0-.799.006-1.199.007-.091,0-.181-.007-.272-.007-.144,0-.287.009-.431.012-23.441.09-46.627,1.833-69.475,5.221-22.742,3.033-43.628,7.518-61.554,13.307-.248.08-.487.162-.734.243-18.212,5.26-36.147,11.61-53.755,19.057-57.339,24.253-108.834,58.972-153.056,103.193-44.221,44.221-78.94,95.716-103.192,153.055C17.788,346.262,5.285,401.292,2.579,457.986c-1.707,4.916-2.579,9.885-2.579,14.896,0,4.456.692,8.88,2.043,13.262.59,63.369,13.3,124.847,37.812,182.8,24.252,57.339,58.971,108.834,103.192,153.056,44.222,44.222,95.717,78.94,153.056,103.193,1.519.643,3.043,1.271,4.567,1.898,9.89,5.842,22.992,11.229,39.042,15.964,15.17,4.476,32.284,8.168,50.77,11.016,29.811,5.834,60.252,8.831,91.138,8.95.144.002.287.012.431.012.091,0,.181-.006.272-.007.4,0,.799.007,1.199.007h.009c.54,0,1.079-.008,1.619-.01.266.001.531.01.798.01.782,0,1.564-.014,2.345-.029,24.57-.235,48.856-2.291,72.762-6.154,26.502-3.03,50.816-7.686,71.521-13.794,21.47-6.334,37.657-13.834,47.939-22.032,53.513-23.999,101.749-57.273,143.499-99.023,20.277-20.277,38.55-42.088,54.738-65.286,8.069-7.886,13.426-16.052,15.942-24.397,12.342-20.21,23.202-41.359,32.513-63.373,25.109-59.363,37.84-122.424,37.84-187.428ZM926.287,294.478c22.633,53.509,35.184,110.028,37.402,168.268-7.301-31.088-48.119-60.187-117.289-83.608-4.635-27.756-11.184-54.942-19.619-81.404,41.534-19.094,63.798-41.359,63.798-64.667,0-2.943-.358-5.869-1.062-8.775,14.12,22.253,26.406,45.683,36.77,70.187ZM893.773,731.907c-4.982,8.152-10.206,16.151-15.669,23.991-22.704,22.201-66.653,41.721-124.869,56.507,30.692-42.032,55.028-90.242,72.392-143.501,1.404-4.306,2.751-8.634,4.055-12.978,41.532,18.831,65.677,41.274,65.677,65.345,0,3.583-.538,7.13-1.585,10.635ZM824.675,668.594c-17.463,53.565-41.981,102.018-72.943,144.19-30.754,7.736-65.436,14.156-103.035,18.962,1.689-3.241,3.36-6.53,5.008-9.88,28.027-56.977,48.159-125.719,59.287-200.742,46.001,9.047,85.45,20.762,115.769,34.386-1.313,4.379-2.671,8.743-4.086,13.083ZM627.604,924.293c-32.252,17.699-65.925,29.222-100.539,34.464-3.794.225-7.629.417-11.495.579,21.616-5.445,42.645-16.892,62.803-34.226,20.193-17.363,38.911-40.085,55.897-67.808,24.368,7.373,42.417,16.552,51.55,26.78-18.372,15.575-37.812,29.014-58.216,40.21ZM686.472,884.841c3.949,4.669,6.059,9.55,6.059,14.572,0,7.267-4.391,14.239-12.43,20.7-3.16,1.417-6.335,2.807-9.531,4.159-35.235,14.902-71.774,25.435-109.251,31.524-7.883.907-16.002,1.676-24.321,2.296,31.295-5.839,61.776-16.838,91.087-32.922,20.465-11.23,39.962-24.708,58.387-40.329ZM279.759,899.413c0-4.072,1.387-8.049,4.012-11.898,17.482,14.491,35.913,27.069,55.202,37.655,28.106,15.423,57.289,26.171,87.233,32.177-12.513-1.116-24.524-2.573-35.912-4.332-30.491-5.993-60.32-14.96-89.283-26.866-13.596-8.068-21.253-17.144-21.253-26.736ZM339.454,924.293c-19.254-10.566-37.652-23.125-55.102-37.594,8.216-11.231,27.079-21.315,53.335-29.296,16.97,27.677,35.666,50.366,55.835,67.708,20.134,17.312,41.135,28.752,62.722,34.206-6.8-.291-13.492-.679-20.062-1.16-33.276-5.494-65.661-16.814-96.729-33.863ZM142.383,668.594c-1.188-3.643-2.339-7.301-3.454-10.972,30.802-14.489,71.79-26.921,119.986-36.423,11.13,74.994,31.259,143.709,59.276,200.667,1.639,3.332,3.301,6.603,4.98,9.827-40.072-5.138-76.824-12.111-109.027-20.555-30.398-41.789-54.524-89.669-71.762-142.544ZM212.626,810.736c-83.26-22.052-135.695-53.99-135.695-89.465,0-23.17,22.371-44.831,61.084-63.215,1.104,3.629,2.242,7.246,3.416,10.848,17.135,52.56,41.07,100.191,71.194,141.832ZM3.015,481.516c0-7.803.188-15.576.556-23.319,10.532-29.967,52.932-57.191,117.023-78.68-5.533,33.271-8.322,67.359-8.322,102,0,28.354,1.869,56.337,5.581,83.806-63.686-21.728-105.38-49.187-114.81-79.354-.013-1.483-.027-2.967-.027-4.452ZM113.271,481.516c0-34.768,2.816-68.977,8.398-102.361,38.468-12.811,84.668-23.565,136.433-31.623-6.096,43.002-9.264,87.995-9.264,133.983,0,39.738,2.36,78.737,6.932,116.348-52.058-8.211-98.425-19.156-136.86-32.181-3.751-27.583-5.639-55.688-5.639-84.167ZM141.282,294.597c-37.154-17.953-58.571-39.02-58.571-61.531,0-35.261,52.546-66.979,135.811-88.735-32.911,43.492-58.852,93.855-77.09,149.798-.051.156-.099.312-.15.469ZM142.383,294.438c18.344-56.268,44.488-106.877,77.693-150.509,31.676-8.192,67.737-14.949,107.001-19.924-3.023,5.552-5.987,11.27-8.885,17.161-26.713,54.307-46.251,119.305-57.66,190.24-47.688-9.498-88.128-21.917-118.339-36.375.064-.198.126-.396.19-.594ZM295.896,62.179c0-16.454,20.55-31.393,53.827-42.316,20.104-5.827,40.549-10.318,61.275-13.449,9-1.227,18.359-2.23,28.006-2.999-34.435,5.317-67.935,16.834-100.031,34.447-14.771,8.105-29.035,17.386-42.759,27.792-.204-1.15-.318-2.309-.318-3.476ZM629,23.405c27.356,10.511,43.846,24.034,43.846,38.774,0,1.543-.183,3.072-.538,4.586-14.171-10.86-28.927-20.508-44.223-28.902-32.628-17.905-66.705-29.513-101.74-34.709,5.964.438,11.82.967,17.556,1.582,28.939,3.615,57.36,9.854,85.099,18.67ZM887.609,221.309c1.299,3.868,1.97,7.79,1.97,11.757,0,23.413-23.171,45.264-63.116,63.674-.279-.871-.553-1.743-.837-2.611-18.469-56.651-44.829-107.587-78.336-151.453,57.575,14.417,101.259,33.497,124.222,55.236,5.6,7.642,10.966,15.443,16.096,23.397ZM824.675,294.438c.295.906.581,1.815.872,2.722-29.756,13.588-68.675,25.283-114.17,34.322-11.407-70.964-30.949-135.989-57.672-190.315-2.907-5.911-5.881-11.646-8.914-17.215,36.778,4.645,70.756,10.853,100.959,18.34,33.797,43.998,60.354,95.178,78.926,152.146ZM584.712,611.358c-32.97,2.107-67.188,3.218-102.271,3.218-35.361,0-69.843-1.128-103.053-3.268-.129-2.073-.255-4.151-.378-6.235,34.16-2.729,70.08-4.185,107.136-4.185,34.121,0,67.277,1.237,98.985,3.562-.135,2.31-.275,4.612-.418,6.908ZM586.146,604.525c13.587,1.008,26.908,2.215,39.921,3.612-13.207,1.217-26.657,2.271-40.323,3.154.139-2.248.27-4.508.401-6.766ZM478.878,961.814c-1.438-.19-2.868-.511-4.291-.956,3.835.062,7.687.096,11.557.096,1.035,0,2.067-.007,3.1-.011-1.99.6-3.994.956-6.012,1.056-1.454-.033-2.905-.099-4.355-.185ZM486.145,959.954c-4.834,0-9.627-.053-14.379-.149-22.819-9.89-43.558-52.332-59.9-116.874,4.96-.563,10.014-1.071,15.15-1.522,19.417.823,39.162,1.246,59.129,1.246s39.713-.423,59.129-1.246c2.41.211,4.806.432,7.178.669-16.443,65.291-37.37,108.148-60.401,117.85-1.963.016-3.93.026-5.906.026ZM411.614,841.934c-.108-.429-.217-.856-.324-1.287,2.796.151,5.6.294,8.411.429-2.715.271-5.414.555-8.087.858ZM435.346,840.73c16.257-1.211,33.275-1.857,50.799-1.857s34.542.646,50.799,1.857c-16.647.609-33.6.925-50.799.925s-34.152-.315-50.799-.925ZM552.59,841.075c.039-.002.079-.004.118-.006l-.004.018c-.038-.004-.076-.008-.114-.012ZM545.343,840.396c-18.969-1.661-38.858-2.523-59.198-2.523s-40.229.863-59.198,2.523c-5.337-.229-10.642-.487-15.911-.776-14.872-59.972-26-138.433-31.585-227.287,33.462,2.138,67.937,3.243,102.99,3.243,34.781,0,68.99-1.089,102.208-3.194-5.599,89.047-16.766,167.653-31.689,227.668-2.531.123-5.072.237-7.618.346ZM378.356,611.24c-12.002-.782-23.837-1.696-35.487-2.736,11.475-1.266,23.191-2.385,35.125-3.348.119,2.03.236,4.063.361,6.084ZM486.145,599.888c-36.708,0-72.674,1.421-107.196,4.162-2.291-39.133-3.514-80.201-3.514-122.534,0-46.103,1.45-90.708,4.151-132.944,34.302,2.749,70.058,4.172,106.559,4.172,33.619,0,66.61-1.205,98.412-3.542,2.676,42.05,4.111,86.441,4.111,132.314,0,42.108-1.21,82.965-3.478,121.91-32.019-2.333-65.218-3.538-99.045-3.538ZM486.145,351.743c-36.847,0-72.555-1.462-106.492-4.197.285-4.414.583-8.803.895-13.165,32.854-2.091,66.944-3.194,101.894-3.194,34.673,0,68.498,1.086,101.111,3.146.328,4.584.641,9.199.938,13.841-31.49,2.329-64.434,3.568-98.346,3.568ZM378.635,347.463c-22.741-1.852-44.681-4.275-65.63-7.216,21.487-2.385,43.698-4.332,66.511-5.8-.308,4.317-.601,8.656-.881,13.016ZM412.826,116.353c23.783-1.29,48.287-1.966,73.319-1.966,22.131,0,43.849.529,65.021,1.542.239.92.479,1.842.716,2.772-20.97,2.593-43.731,4.019-67.511,4.019-25.489,0-49.808-1.637-72.004-4.596.152-.594.306-1.181.459-1.771ZM411.382,117.995c-2.602-.353-5.171-.725-7.713-1.113,2.697-.166,5.403-.323,8.119-.472-.136.525-.271,1.057-.406,1.585ZM484.372,1.638c1.087,0,2.17.007,3.253.013,24.048,5.609,46.014,47.298,63.278,113.258-21.218-1.003-42.851-1.522-64.757-1.522-24.768,0-49.19.661-73.053,1.939C430.33,49.289,452.271,7.481,476.3,1.697c2.678-.037,5.366-.059,8.072-.059ZM552.202,115.978c4.656.227,9.284.478,13.885.751-4.316.669-8.726,1.287-13.217,1.852-.222-.871-.445-1.741-.668-2.603ZM484.372,123.72c23.538,0,46.419-1.381,67.763-4.022,14.351,56.538,25.323,130.091,31.345,213.611-32.851-2.057-66.666-3.121-101.039-3.121-34.646,0-68.725,1.081-101.821,3.17,6.042-83.824,17.069-157.613,31.494-214.237,22.612,3.018,47.059,4.6,72.258,4.6ZM584.584,334.397c24.54,1.566,48.386,3.687,71.385,6.311-22.448,3.077-46.013,5.563-70.46,7.391-.293-4.591-.602-9.158-.925-13.702ZM584.512,333.373c-5.143-71.657-14.032-137.32-26.229-192.096-1.674-7.517-3.395-14.75-5.159-21.704,5.994-.754,11.863-1.61,17.591-2.562,25.232,1.589,49.598,3.874,72.851,6.784,3.147,5.755,6.23,11.688,9.242,17.812,26.685,54.248,46.198,119.188,57.588,190.067-15.987,3.156-32.779,5.986-50.267,8.455-24.461-2.858-49.734-5.119-75.618-6.756ZM575.06,116.266c15.63-2.766,30.136-6.265,43.091-10.449,4.33-1.399,8.42-2.855,12.275-4.362,4.281,6.759,8.457,13.83,12.521,21.21-21.886-2.718-44.582-4.863-67.887-6.399ZM570.659,115.992c-6.202-.388-12.444-.732-18.724-1.034-17.139-65.638-38.23-104.936-60.785-113.277,3.006.034,5.994.09,8.963.169,26.82,3.21,52.866,15.555,77.608,36.829,18.729,16.104,36.186,36.847,52.169,61.932-16.229,6.329-36.374,11.583-59.231,15.38ZM472.74,1.756c-22.524,8.527-43.578,47.939-60.683,113.626-4.353.237-8.689.492-13.003.77-22.078-3.615-41.653-8.588-57.661-14.573,16.15-25.52,33.814-46.589,52.783-62.899,24.991-21.488,51.312-33.864,78.417-36.92.049,0,.098-.002.148-.003ZM350.592,105.817c13.229,4.273,28.074,7.833,44.085,10.625-22.558,1.533-44.541,3.633-65.756,6.276,3.878-7.045,7.857-13.811,11.933-20.291,3.101,1.163,6.347,2.293,9.739,3.389ZM399.006,117.176c3.975.65,8.019,1.253,12.123,1.81-1.816,7.135-3.587,14.562-5.309,22.292-12.201,54.788-21.091,120.468-26.233,192.145-24.177,1.542-47.829,3.62-70.771,6.229-16.425-2.374-32.225-5.066-47.304-8.051,11.392-70.849,30.901-135.763,57.577-189.992,3.002-6.104,6.076-12.02,9.213-17.758,22.591-2.836,46.234-5.083,70.704-6.674ZM304.778,340.126c-15.508,1.812-30.687,3.863-45.487,6.149.655-4.57,1.338-9.12,2.06-13.643,13.98,2.772,28.478,5.274,43.427,7.494ZM308.86,340.714c22.35,3.225,45.663,5.832,69.708,7.778-2.72,42.71-4.133,87.376-4.133,133.023,0,41.952,1.195,83.074,3.499,122.613-13.657,1.096-27.088,2.397-40.244,3.903-28.165-2.619-55.219-5.98-80.895-10.006-4.59-37.658-6.957-76.712-6.957-116.51,0-46.049,3.18-91.098,9.296-134.143,16.063-2.485,32.661-4.71,49.725-6.659ZM332.753,608.614c-25.5,3.034-49.947,6.828-73.004,11.354-1.015-6.897-1.961-13.843-2.823-20.842,24.314,3.806,49.668,6.978,75.827,9.488ZM337.743,609.08c13.367,1.235,26.934,2.302,40.679,3.189,4.901,78.426,14.22,150.307,27.399,209.486,1.364,6.125,2.759,12.058,4.183,17.81-29.801-1.657-58.469-4.267-85.625-7.718-1.785-3.415-3.551-6.884-5.291-10.421-27.979-56.879-48.079-125.51-59.192-200.418,24.26-4.753,50.334-8.766,77.847-11.926ZM410.259,840.59c.121.486.241.977.363,1.46-26.263,3.032-50.365,7.66-70.909,13.722-.529.156-1.042.315-1.564.473-4.519-7.402-8.913-15.163-13.181-23.27,27.297,3.444,55.863,5.999,85.291,7.616ZM410.873,843.042c16.464,65.097,36.722,105.41,58.488,116.711-2.586-.062-5.157-.138-7.716-.228-23.249-4.82-45.857-16.589-67.47-35.173-20.036-17.228-38.618-39.763-55.496-67.248,20.248-6.071,44.796-10.903,72.194-14.062ZM471.575,960.804c.406.173.813.339,1.221.492-1.472-.164-2.942-.348-4.41-.566,1.062.026,2.124.052,3.189.074ZM489.277,961.97c.987-.289,1.971-.638,2.952-1.044,3.75-.032,7.48-.094,11.193-.184-4.387.649-8.796,1.048-13.224,1.206-.307.007-.614.016-.92.022ZM494.457,959.901c21.97-11.146,42.417-51.832,58.991-117.72,30.457,3.091,57.698,8.218,79.831,14.824-16.894,27.53-35.497,50.099-55.558,67.348-21.635,18.603-44.268,30.377-67.543,35.188-5.185.177-10.427.298-15.721.36ZM632.577,855.771c-22.606-6.67-49.52-11.604-78.881-14.584.014-.056.028-.111.041-.167,32.206-1.568,63.434-4.254,93.164-7.994-4.24,8.052-8.605,15.761-13.093,23.116-.412-.124-.815-.25-1.231-.372ZM553.991,840c1.461-5.888,2.893-11.965,4.292-18.245,13.176-59.167,22.493-131.03,27.396-209.437,15.409-.987,30.6-2.194,45.532-3.618,28.599,3.2,55.669,7.319,80.801,12.231-11.111,74.938-31.214,143.596-59.203,200.494-1.749,3.556-3.523,7.043-5.318,10.475-29.544,3.743-60.872,6.492-93.499,8.101ZM636.184,608.219c27.295-2.7,53.687-6.127,78.922-10.241-.897,7.362-1.882,14.667-2.948,21.917-23.955-4.69-49.403-8.596-75.974-11.676ZM631.213,607.654c-14.692-1.638-29.709-3.03-45.007-4.157,2.28-39.346,3.462-80.253,3.462-121.981,0-45.421-1.399-89.873-4.093-132.391,25.739-1.913,50.689-4.571,74.558-7.935,18.164,2.13,35.787,4.577,52.79,7.317,6.011,42.702,9.135,87.364,9.135,133.009,0,39.396-2.325,78.061-6.824,115.366-26.576,4.339-54.683,7.961-84.021,10.773ZM664.177,340.607c15.987-2.319,31.484-4.951,46.38-7.897.777,4.87,1.509,9.771,2.209,14.696-15.77-2.538-31.986-4.807-48.589-6.799ZM711.537,332.511c21.448-4.27,41.67-9.177,60.373-14.695,20.504-6.05,38.537-12.64,53.955-19.663,8.348,26.212,14.843,53.135,19.457,80.62-7.033-2.365-14.349-4.673-21.957-6.918-32.943-9.72-69.828-17.851-109.567-24.282-.715-5.048-1.466-10.071-2.262-15.062ZM644.172,122.821c-4.152-7.569-8.42-14.818-12.799-21.74,23.463-9.321,37.795-20.578,41.505-32.61,26.049,20.133,50.105,44.39,71.879,72.525-30.633-7.553-64.485-13.651-100.584-18.175ZM630.836,100.235c-16.065-25.241-33.62-46.112-52.462-62.313-22.369-19.234-45.81-31.212-69.935-35.792.462.019.921.042,1.382.062,40.685,3.68,80.198,15.923,117.783,36.548,15.368,8.433,30.189,18.14,44.42,29.07-3.525,12.217-18.394,23.392-41.188,32.426ZM339.454,38.739c37.042-20.327,75.955-32.519,116.018-36.39,2.896-.144,5.816-.264,8.755-.365-24.396,4.47-48.097,16.499-70.704,35.938-19.085,16.411-36.852,37.613-53.085,63.295-24.9-9.458-40.957-21.391-44.008-34.472,13.803-10.497,28.157-19.847,43.024-28.005ZM339.901,102.063c-4.172,6.64-8.241,13.582-12.206,20.811-38.501,4.841-74.444,11.471-106.637,19.749.236-.308.465-.624.701-.932,22.303-28.935,47.01-53.791,73.811-74.298,3.277,12.864,18.65,24.889,44.33,34.669ZM200.379,317.816c18.592,5.485,38.687,10.366,59.992,14.618-.74,4.64-1.441,9.31-2.111,13.999-42.484,6.6-81.826,15.12-116.744,25.422-6.779,2-13.326,4.051-19.649,6.147,4.732-27.959,11.408-55.335,20.005-81.971,16.384,7.82,35.95,15.129,58.507,21.785ZM141.516,573.908c34.274,10.112,72.8,18.513,114.384,25.061.874,7.116,1.835,14.178,2.867,21.189-22.218,4.388-43.142,9.452-62.474,15.156-22.115,6.525-41.395,13.669-57.666,21.303-8.801-29.147-15.329-59.146-19.556-89.792,7.182,2.423,14.66,4.786,22.445,7.083ZM323.76,832.821c4.337,8.269,8.805,16.181,13.401,23.722-27.091,8.273-45.41,18.443-53.567,29.521-22.218-18.523-42.895-40.15-61.835-64.723-2.264-2.938-4.491-5.913-6.69-8.915,32.751,8.543,69.39,15.391,108.691,20.395ZM461.542,960.527c1.923.397,3.85.746,5.781,1.048-6.134-.34-12.243-.873-18.324-1.6,4.149.221,8.331.405,12.543.551ZM510.284,960.542c1.379-.047,2.754-.099,4.127-.153-2.184.232-4.372.442-6.563.626.812-.15,1.625-.306,2.436-.473ZM634.796,856.442c4.565-7.495,9.004-15.355,13.313-23.568,36.896-4.683,71.454-10.99,102.658-18.798-1.804,2.44-3.62,4.868-5.468,7.265-18.056,23.426-37.689,44.178-58.732,62.114-9.024-10.108-26.645-19.374-51.77-27.012ZM775.998,635.314c-19.443-5.737-40.497-10.825-62.857-15.231,1.084-7.366,2.082-14.791,2.991-22.273,38.851-6.371,74.937-14.373,107.235-23.902,8.611-2.541,16.856-5.162,24.729-7.856-4.123,30.176-10.481,59.725-19.036,88.456-15.268-6.842-32.997-13.273-53.062-19.193ZM716.259,596.715c4.481-37.257,6.798-75.865,6.798-115.199,0-45.581-3.111-90.185-9.102-132.841,49.891,8.087,94.415,18.702,131.564,31.255,5.497,33.138,8.266,67.087,8.266,101.586,0,28.21-1.854,56.053-5.534,83.386-37.125,12.765-81.807,23.573-131.993,31.813ZM854.787,481.516c0-34.371-2.746-68.199-8.194-101.224,73.047,24.851,117.29,57.229,117.29,92.59,0,34.921-43.149,66.931-114.574,91.657,3.642-27.218,5.479-54.938,5.479-83.023ZM885.646,216.467c-3.04-4.604-6.158-9.158-9.357-13.657,3.997,4.456,7.139,9.013,9.357,13.657ZM670.57,38.761c57.22,24.202,108.608,58.85,152.738,102.979,16.362,16.361,31.417,33.723,45.122,52.007-19.782-16.933-52.447-32.431-96.519-45.434-8.24-2.431-16.79-4.737-25.592-6.929-.077-.1-.151-.203-.228-.303-22.059-28.619-46.47-53.253-72.928-73.654.445-1.736.684-3.486.684-5.249,0-12.694-11.665-24.773-33.322-34.95,10.112,3.5,20.132,7.338,30.045,11.532ZM40.776,294.478c24.202-57.22,58.849-108.607,102.979-152.737,44.13-44.13,95.518-78.777,152.737-102.979,12.148-5.138,24.454-9.748,36.897-13.844-24.968,10.635-38.493,23.592-38.493,37.262,0,1.39.152,2.772.429,4.146-27.01,20.613-51.901,45.622-74.358,74.756-.496.643-.974,1.303-1.467,1.949-6.528,1.696-12.917,3.453-19.122,5.284-76.524,22.578-118.668,52.677-118.668,84.752,0,22.444,20.64,43.919,59.251,62.529-8.686,26.888-15.418,54.53-20.171,82.763-64.704,21.594-105.092,48.104-117.052,76.589,3-55.487,15.416-109.352,37.037-160.469ZM1,472.882c0-3.662.474-7.292,1.406-10.884-.256,6.486-.391,12.992-.391,19.518,0,.208.003.415.004.622-.674-3.061-1.019-6.146-1.019-9.256ZM143.755,821.292c-44.13-44.13-78.777-95.519-102.979-152.737-24.07-56.908-36.734-117.221-37.695-179.386,10.915,28.698,50.618,55.457,114.93,77.298,4.239,30.92,10.816,61.183,19.701,90.583-40.245,19.059-61.781,41.135-61.781,64.222,0,32.53,42.745,63.057,120.361,85.957,5.617,1.657,11.384,3.254,17.263,4.803,2.435,3.342,4.897,6.657,7.413,9.92,19.002,24.652,39.749,46.349,62.045,64.93-2.806,4.076-4.254,8.269-4.254,12.532,0,8.593,5.852,16.902,16.971,24.53-56.912-24.187-108.042-58.718-151.975-102.651ZM308.782,930.337c18.758,7.315,37.865,13.413,57.27,18.283-23.104-4.866-42.65-11.095-57.27-18.283ZM436.187,959.172c3.119.513,6.245.976,9.379,1.387-9.641-.749-19.232-1.78-28.764-3.101,6.351.664,12.818,1.236,19.385,1.714ZM521.487,960.559c1.867-.245,3.732-.512,5.594-.792,3.316-.195,6.61-.414,9.879-.657-5.142.566-10.3,1.047-15.473,1.449ZM581.31,953.122c30.631-6.318,60.584-15.636,89.649-27.929,1.848-.782,3.689-1.575,5.525-2.378-18.723,13.055-52.619,23.793-95.174,30.308ZM823.308,821.292c-40.83,40.83-87.878,73.536-140.006,97.369,6.728-6.124,10.229-12.601,10.229-19.248,0-5.203-2.144-10.303-6.302-15.21,21.091-17.978,40.767-38.776,58.861-62.252,2.1-2.725,4.171-5.478,6.215-8.257,8.131-2.055,16.041-4.208,23.692-6.465,45.709-13.486,79.318-29.619,99.231-47.246-15.477,21.72-32.808,42.197-51.921,61.31ZM882.507,751.258c3.277-4.837,6.465-9.733,9.562-14.688-2.164,4.998-5.374,9.9-9.562,14.688ZM895.553,728.969c.534-2.551.805-5.118.805-7.698,0-23.952-23.176-46.817-66.377-66.352,8.637-28.979,15.043-58.789,19.177-89.235,68.714-23.677,108.756-53.032,114.89-84.327,0,.053,0,.105,0,.158,0,64.869-12.705,127.799-37.761,187.039-8.859,20.944-19.123,41.103-30.733,60.415Z" style="fill: #fff;"/>
  </g>
</svg>