<?xml version="1.0" encoding="UTF-8"?>
<svg id="b" data-name="Layer 2" xmlns="http://www.w3.org/2000/svg" viewBox="0 0 451.67 451.67">
  <g id="c" data-name="Layer 1">
    <g>
      <circle cx="225.835" cy="225.835" r="225.835" style="fill: #ff0;"/>
      <g>
        <path d="M156.788,178.731v-30.051h9.75v35.802h-16.351l-7.55-30.002v30.002h-9.751v-35.802h16.401l7.5,30.051Z" style="fill: #191514;"/>
        <path d="M188.636,172.831v-14.15h9.651v25.802h-9.651v-6.15c-1.25,4.351-4.25,7.15-8.101,7.15-5.05,0-8.65-4.3-8.65-10.301v-16.501h9.65v14.301c0,2.4,1.3,4.101,3.4,4.101s3.7-1.75,3.7-4.251Z" style="fill: #191514;"/>
        <path d="M230.237,176.782c-1.15,5.05-6.701,8.7-13.401,8.7-8.5,0-14.401-5.65-14.401-14.001,0-8.2,6.05-13.801,14.601-13.801s14.151,5.601,14.151,13.9c0,.75-.05,2.101-.1,2.601h-18.751c.65,2.7,2.4,4.351,5,4.351,2.2,0,3.8-1.2,4.4-2.851l8.501,1.101ZM221.486,169.132c-.15-2.451-2.05-4.551-4.65-4.551-2.45,0-4.05,1.801-4.55,4.551h9.2Z" style="fill: #191514;"/>
        <path d="M255.136,184.482h-15.951l-7.5-25.802h10.25l5.2,22.951,5.2-22.951h10.251l-7.451,25.802Z" style="fill: #191514;"/>
        <path d="M277.685,185.482c-8.75,0-14.651-5.601-14.651-13.901s5.9-13.9,14.651-13.9c8.701,0,14.601,5.601,14.601,13.9s-5.9,13.901-14.601,13.901ZM277.685,166.081c-2.95,0-5,2.25-5,5.5s2.05,5.501,5,5.501,5-2.25,5-5.501-2.05-5.5-5-5.5Z" style="fill: #191514;"/>
        <path d="M295.434,176.032h7.8c0,2,1.95,3.449,4.65,3.449,2.1,0,3.65-1.049,3.65-2.399,0-1.601-1.85-2.2-5.4-2.45-5.55-.45-10.551-1.5-10.551-7.951.05-5.35,5.05-9.199,11.801-9.199,7.15,0,12.301,3.8,12.351,9.05l-8.15-.05c-.05-1.6-1.8-2.801-4.15-2.801-1.9,0-3.351.951-3.351,2.201,0,1.549,2.6,1.899,4.3,2.199,5.55.551,12.401,1.601,12.401,7.801,0,5.7-5.3,9.801-13.101,9.801-7.101,0-12.251-4.051-12.251-9.65Z" style="fill: #191514;"/>
        <path d="M109.29,223.48c-.7-3.081-3.431-5.321-6.581-5.321-3.92,0-6.861,3.431-6.861,8.262,0,4.76,2.87,8.261,6.861,8.261,3.15,0,5.88-2.24,6.581-5.321l12.391,1.471c-1.12,8.751-9.311,15.052-19.112,15.052-11.551,0-20.232-8.19-20.232-19.462s8.541-19.463,20.232-19.463c9.871,0,18.062,6.23,19.112,14.912l-12.391,1.61Z" style="fill: #191514;"/>
        <path d="M153.389,208.358h13.441v31.014c0,.699.49,1.26,1.19,1.26s1.19-.561,1.19-1.26v-7.491h2.59v7.351c0,3.921-3.081,6.651-9.031,6.651-5.46,0-9.381-2.24-9.381-7.981v-3.08c-1.96,6.861-6.44,11.062-12.251,11.062-9.101,0-15.332-7.911-15.332-19.462s6.231-19.463,15.332-19.463c5.811,0,10.221,4.201,12.251,10.992v-9.592ZM153.319,226.421c0-4.48-2.94-7.701-7.001-7.701-4.13,0-7,3.221-7,7.701,0,4.41,2.87,7.7,7,7.7,4.061,0,7.001-3.29,7.001-7.7Z" style="fill: #191514;"/>
        <path d="M190.558,224.601v19.882h-13.512v-36.124h13.512v8.611c1.82-6.091,6.021-10.012,11.341-10.012,7.07,0,12.111,6.021,12.111,14.352v23.173h-13.511v-20.093c0-3.359-1.82-5.67-4.761-5.67s-5.18,2.381-5.18,5.881Z" style="fill: #191514;"/>
        <path d="M246.698,208.358h13.441v31.014c0,.699.49,1.26,1.19,1.26s1.19-.561,1.19-1.26v-7.491h2.59v7.351c0,3.921-3.081,6.651-9.031,6.651-5.46,0-9.381-2.24-9.381-7.981v-3.08c-1.96,6.861-6.44,11.062-12.251,11.062-9.101,0-15.332-7.911-15.332-19.462s6.231-19.463,15.332-19.463c5.811,0,10.221,4.201,12.251,10.992v-9.592ZM246.628,226.421c0-4.48-2.94-7.701-7.001-7.701-4.13,0-7,3.221-7,7.701,0,4.41,2.87,7.7,7,7.7,4.061,0,7.001-3.29,7.001-7.7Z" style="fill: #191514;"/>
        <path d="M283.796,244.482h-13.441v-52.226h13.441v52.226Z" style="fill: #191514;"/>
        <path d="M328.529,233.701c-1.61,7.071-9.381,12.182-18.762,12.182-11.901,0-20.162-7.911-20.162-19.603,0-11.48,8.471-19.322,20.442-19.322s19.812,7.842,19.812,19.463c0,1.05-.07,2.939-.14,3.641h-26.252c.91,3.779,3.36,6.09,7,6.09,3.081,0,5.321-1.68,6.161-3.99l11.901,1.54ZM316.277,222.99c-.21-3.431-2.87-6.37-6.51-6.37-3.431,0-5.671,2.52-6.371,6.37h12.881Z" style="fill: #191514;"/>
        <path d="M334.264,232.651h10.921c0,2.801,2.73,4.83,6.511,4.83,2.94,0,5.111-1.47,5.111-3.36,0-2.24-2.59-3.08-7.561-3.431-7.771-.629-14.771-2.1-14.771-11.131.07-7.49,7.071-12.881,16.522-12.881,10.011,0,17.222,5.32,17.292,12.671l-11.411-.069c-.07-2.24-2.52-3.921-5.811-3.921-2.66,0-4.69,1.33-4.69,3.08,0,2.171,3.64,2.661,6.021,3.081,7.771.77,17.362,2.24,17.362,10.921,0,7.98-7.421,13.722-18.342,13.722-9.941,0-17.152-5.671-17.152-13.512Z" style="fill: #191514;"/>
        <path d="M99.565,279.983c-.45-1.98-2.205-3.42-4.23-3.42-2.52,0-4.41,2.205-4.41,5.31,0,3.06,1.845,5.31,4.41,5.31,2.025,0,3.78-1.439,4.23-3.42l7.964.945c-.72,5.625-5.984,9.674-12.284,9.674-7.425,0-13.004-5.264-13.004-12.509s5.49-12.51,13.004-12.51c6.345,0,11.609,4.005,12.284,9.585l-7.964,1.035Z" style="fill: #191514;"/>
        <path d="M123.325,294.382c-7.875,0-13.185-5.039-13.185-12.509s5.31-12.51,13.185-12.51c7.83,0,13.14,5.04,13.14,12.51s-5.31,12.509-13.14,12.509ZM123.325,276.923c-2.655,0-4.5,2.025-4.5,4.95s1.845,4.95,4.5,4.95,4.5-2.025,4.5-4.95-1.845-4.95-4.5-4.95Z" style="fill: #191514;"/>
        <path d="M178.719,278.317v15.165h-8.685v-12.87c0-2.024-1.17-3.6-3.195-3.689-1.979,0-3.24,1.53-3.24,3.689v12.87h-8.64v-12.87c0-2.204-1.215-3.689-3.015-3.689-1.89,0-3.06,1.485-3.06,3.689v12.87h-8.685v-23.22h8.64v5.625c1.215-3.959,3.915-6.524,7.29-6.524,3.6,0,6.48,2.79,7.2,6.84,1.26-4.14,4.275-6.84,7.875-6.84,4.365,0,7.515,3.78,7.515,8.954Z" style="fill: #191514;"/>
        <path d="M207.024,286.553c-1.035,4.545-6.029,7.829-12.059,7.829-7.65,0-12.959-5.084-12.959-12.6,0-7.379,5.445-12.419,13.139-12.419s12.734,5.04,12.734,12.51c0,.675-.045,1.89-.09,2.34h-16.874c.585,2.43,2.16,3.915,4.5,3.915,1.98,0,3.42-1.08,3.96-2.565l7.649.99ZM199.149,279.668c-.135-2.205-1.845-4.095-4.185-4.095-2.205,0-3.645,1.619-4.095,4.095h8.28Z" style="fill: #191514;"/>
        <path d="M228.669,269.903v7.695c-1.395-.586-3.015-.945-4.095-.945-2.565,0-4.275,1.979-4.275,4.859v11.97h-8.685v-23.22h8.64v5.76c1.035-4.049,3.24-6.659,5.94-6.659.72,0,1.62.226,2.475.54Z" style="fill: #191514;"/>
        <path d="M247.884,279.983c-.45-1.98-2.205-3.42-4.23-3.42-2.52,0-4.41,2.205-4.41,5.31,0,3.06,1.845,5.31,4.41,5.31,2.025,0,3.78-1.439,4.23-3.42l7.964.945c-.72,5.625-5.984,9.674-12.284,9.674-7.425,0-13.004-5.264-13.004-12.509s5.49-12.51,13.004-12.51c6.345,0,11.609,4.005,12.284,9.585l-7.964,1.035Z" style="fill: #191514;"/>
        <path d="M264.309,258.563c2.79,0,4.814,1.936,4.814,4.635,0,2.745-2.025,4.68-4.814,4.68s-4.86-1.935-4.86-4.68c0-2.699,2.07-4.635,4.86-4.635ZM268.629,293.482h-8.685v-23.22h8.685v23.22Z" style="fill: #191514;"/>
        <path d="M290.588,270.263h8.64v19.936c0,.449.315.809.765.809s.765-.359.765-.809v-4.815h1.665v4.725c0,2.521-1.98,4.274-5.805,4.274-3.51,0-6.03-1.439-6.03-5.129v-1.98c-1.26,4.41-4.14,7.109-7.875,7.109-5.85,0-9.854-5.084-9.854-12.509s4.005-12.51,9.854-12.51c3.735,0,6.57,2.7,7.875,7.065v-6.166ZM290.543,281.873c0-2.88-1.89-4.95-4.5-4.95-2.655,0-4.5,2.07-4.5,4.95,0,2.835,1.845,4.95,4.5,4.95,2.61,0,4.5-2.115,4.5-4.95Z" style="fill: #191514;"/>
        <path d="M314.438,293.482h-8.64v-33.569h8.64v33.569Z" style="fill: #191514;"/>
        <path d="M343.193,286.553c-1.035,4.545-6.03,7.829-12.06,7.829-7.65,0-12.959-5.084-12.959-12.6,0-7.379,5.445-12.419,13.139-12.419s12.734,5.04,12.734,12.51c0,.675-.045,1.89-.09,2.34h-16.874c.585,2.43,2.16,3.915,4.5,3.915,1.98,0,3.42-1.08,3.96-2.565l7.65.99ZM335.318,279.668c-.135-2.205-1.845-4.095-4.185-4.095-2.205,0-3.645,1.619-4.095,4.095h8.28Z" style="fill: #191514;"/>
        <path d="M346.883,285.878h7.02c0,1.8,1.755,3.104,4.185,3.104,1.89,0,3.285-.944,3.285-2.159,0-1.44-1.665-1.98-4.86-2.205-4.995-.405-9.495-1.35-9.495-7.155.045-4.814,4.545-8.279,10.62-8.279,6.435,0,11.07,3.42,11.115,8.145l-7.335-.045c-.045-1.44-1.62-2.521-3.735-2.521-1.71,0-3.015.855-3.015,1.98,0,1.395,2.34,1.71,3.87,1.98,4.995.494,11.16,1.439,11.16,7.02,0,5.129-4.77,8.819-11.79,8.819-6.39,0-11.024-3.646-11.024-8.685Z" style="fill: #191514;"/>
      </g>
    </g>
  </g>
</svg>