<?xml version="1.0" encoding="UTF-8"?>
<svg id="b" data-name="Layer 2" xmlns="http://www.w3.org/2000/svg" viewBox="0 0 511.709 39.813">
  <g id="c" data-name="Layer 1">
    <g>
      <path d="M40.434,36.421c-1.243,1.151-2.728,2.044-4.371,2.593-1.205.405-2.495.624-3.836.624H12.078c-6.669,0-12.078-5.406-12.078-12.079v-15.481C0,5.407,5.408,0,12.078,0h20.149c6.669,0,12.078,5.407,12.078,12.079v15.285l4.957,1.904v10.545l-8.828-3.392ZM24.668,27.832v-8.013l8.308,3.192v-7.516c0-2.037-1.653-3.689-3.689-3.689h-14.267c-2.039,0-3.689,1.653-3.689,3.689v8.647c0,2.037,1.651,3.689,3.689,3.689h9.649Z" style="fill: #ff6ef3;"/>
      <path d="M119.208,26.429c0,7.392-5.993,13.385-13.386,13.385h-16.113c-7.392,0-13.385-5.992-13.385-13.385V.068h13.385v21.557c0,3.071,2.49,5.56,5.56,5.56h4.993c3.07,0,5.56-2.49,5.56-5.56V.068h13.386v26.36Z" style="fill: #ff6ef3;"/>
      <path d="M165.56,33.663l-3.066,6.15h-16.215S166.092.068,166.092.068h.851s6.061,0,6.061,0h9.303,0s.852,0,.852,0l19.813,39.745h-16.215s-3.066-6.151-3.066-6.151h-18.131ZM174.626,15.477l-3.401,6.822h6.801l-3.401-6.822Z" style="fill: #ff6ef3;"/>
      <path d="M279.34,39.813h-14.922v-.004l-19.355-20.25v20.254h-15.025V.068h15.025l19.355,20.102V.068h14.922v39.745Z" style="fill: #ff6ef3;"/>
      <path d="M333.308,14.186v25.627h-14.065V14.186h-12.814V.122h39.692v14.065h-12.813Z" style="fill: #ff6ef3;"/>
      <path d="M416.082,26.429c0,7.392-5.993,13.385-13.386,13.385h-16.113c-7.392,0-13.385-5.992-13.385-13.385V.068h13.385v21.557c0,3.071,2.49,5.56,5.56,5.56h4.993c3.07,0,5.56-2.49,5.56-5.56V.068h13.386v26.36Z" style="fill: #ff6ef3;"/>
      <path d="M477.43,39.812l-19.255-20.253v20.254h-15.023V.068h15.023l19.255,20.944h0S496.686.068,496.686.068h15.023v39.745h-15.023v-20.253l-19.255,20.252h0Z" style="fill: #ff6ef3;"/>
    </g>
  </g>
</svg>