<?xml version="1.0" encoding="UTF-8"?>
<svg id="b" data-name="Layer 2" xmlns="http://www.w3.org/2000/svg" viewBox="0 0 451.67 451.67">
  <g id="c" data-name="Layer 1">
    <g>
      <circle cx="225.835" cy="225.835" r="225.835" style="fill: #ff0;"/>
      <g>
        <path d="M48.16,191.831v-7.61h26.66v7.61h-8.686v23.177h-9.288v-23.177h-8.686Z" style="fill: #191514;"/>
        <path d="M92.407,192.477v7.353c-1.333-.56-2.881-.903-3.913-.903-2.451,0-4.085,1.893-4.085,4.645v11.438h-8.299v-22.188h8.256v5.504c.989-3.87,3.096-6.364,5.676-6.364.688,0,1.548.216,2.365.517Z" style="fill: #191514;"/>
        <path d="M111.155,192.82h8.256v19.049c0,.43.301.773.731.773s.731-.344.731-.773v-4.602h1.591v4.516c0,2.408-1.892,4.084-5.547,4.084-3.354,0-5.762-1.375-5.762-4.901v-1.892c-1.204,4.214-3.956,6.793-7.525,6.793-5.59,0-9.417-4.858-9.417-11.953s3.827-11.954,9.417-11.954c3.569,0,6.278,2.58,7.525,6.751v-5.891ZM111.112,203.914c0-2.752-1.806-4.73-4.3-4.73-2.537,0-4.3,1.979-4.3,4.73,0,2.709,1.763,4.73,4.3,4.73,2.494,0,4.3-2.021,4.3-4.73Z" style="fill: #191514;"/>
        <path d="M133.988,202.796v12.212h-8.299v-22.188h8.299v5.289c1.118-3.741,3.698-6.149,6.966-6.149,4.343,0,7.439,3.698,7.439,8.815v14.232h-8.299v-12.341c0-2.063-1.118-3.483-2.924-3.483s-3.182,1.463-3.182,3.612Z" style="fill: #191514;"/>
        <path d="M151.574,207.74h6.708c0,1.721,1.677,2.968,3.999,2.968,1.806,0,3.139-.903,3.139-2.063,0-1.377-1.591-1.893-4.644-2.107-4.773-.387-9.073-1.29-9.073-6.837.043-4.601,4.343-7.912,10.148-7.912,6.149,0,10.578,3.269,10.621,7.783l-7.009-.043c-.043-1.376-1.548-2.408-3.569-2.408-1.634,0-2.881.817-2.881,1.892,0,1.334,2.236,1.635,3.698,1.893,4.773.473,10.664,1.376,10.664,6.707,0,4.902-4.558,8.429-11.266,8.429-6.106,0-10.535-3.483-10.535-8.3Z" style="fill: #191514;"/>
        <path d="M190.575,190.412h-1.591v-3.697c0-1.076-.645-1.764-1.505-1.764-.817,0-1.462.688-1.462,1.764v6.105h4.601v6.148h-4.601v16.039h-8.256v-16.039h-2.838v-6.148h2.838v-5.117c0-3.611,2.709-5.977,6.966-5.977,3.439,0,5.848,2.021,5.848,4.945v3.74Z" style="fill: #191514;"/>
        <path d="M204.55,215.867c-7.524,0-12.599-4.815-12.599-11.953s5.074-11.954,12.599-11.954c7.482,0,12.556,4.816,12.556,11.954s-5.074,11.953-12.556,11.953ZM204.55,199.184c-2.537,0-4.3,1.936-4.3,4.73s1.763,4.73,4.3,4.73,4.3-1.936,4.3-4.73-1.763-4.73-4.3-4.73Z" style="fill: #191514;"/>
        <path d="M236.971,192.477v7.353c-1.333-.56-2.881-.903-3.913-.903-2.451,0-4.085,1.893-4.085,4.645v11.438h-8.299v-22.188h8.256v5.504c.989-3.87,3.096-6.364,5.676-6.364.688,0,1.548.216,2.365.517Z" style="fill: #191514;"/>
        <path d="M276.488,200.518v14.49h-8.299v-12.298c0-1.935-1.118-3.44-3.053-3.526-1.892,0-3.096,1.463-3.096,3.526v12.298h-8.256v-12.298c0-2.106-1.161-3.526-2.881-3.526-1.806,0-2.924,1.42-2.924,3.526v12.298h-8.299v-22.188h8.256v5.375c1.161-3.784,3.741-6.235,6.966-6.235,3.44,0,6.192,2.666,6.88,6.536,1.204-3.956,4.085-6.536,7.525-6.536,4.171,0,7.181,3.612,7.181,8.558Z" style="fill: #191514;"/>
        <path d="M296.569,192.82h8.256v19.049c0,.43.301.773.731.773s.731-.344.731-.773v-4.602h1.591v4.516c0,2.408-1.892,4.084-5.547,4.084-3.354,0-5.762-1.375-5.762-4.901v-1.892c-1.204,4.214-3.956,6.793-7.525,6.793-5.59,0-9.417-4.858-9.417-11.953s3.827-11.954,9.417-11.954c3.569,0,6.278,2.58,7.525,6.751v-5.891ZM296.526,203.914c0-2.752-1.806-4.73-4.3-4.73-2.537,0-4.3,1.979-4.3,4.73,0,2.709,1.763,4.73,4.3,4.73,2.494,0,4.3-2.021,4.3-4.73Z" style="fill: #191514;"/>
        <path d="M326.755,202.108c-.43-1.892-2.107-3.268-4.042-3.268-2.408,0-4.214,2.107-4.214,5.074,0,2.924,1.763,5.074,4.214,5.074,1.935,0,3.612-1.377,4.042-3.269l7.611.903c-.688,5.375-5.719,9.244-11.739,9.244-7.095,0-12.427-5.03-12.427-11.953s5.246-11.954,12.427-11.954c6.063,0,11.094,3.827,11.739,9.159l-7.611.988Z" style="fill: #191514;"/>
        <path d="M342.45,181.641c2.666,0,4.601,1.849,4.601,4.429,0,2.623-1.935,4.472-4.601,4.472s-4.644-1.849-4.644-4.472c0-2.58,1.978-4.429,4.644-4.429ZM346.577,215.008h-8.299v-22.188h8.299v22.188Z" style="fill: #191514;"/>
        <path d="M363.219,215.867c-7.525,0-12.599-4.815-12.599-11.953s5.074-11.954,12.599-11.954c7.481,0,12.556,4.816,12.556,11.954s-5.074,11.953-12.556,11.953ZM363.219,199.184c-2.58,0-4.3,1.936-4.3,4.73s1.72,4.73,4.3,4.73c2.537,0,4.3-1.936,4.3-4.73s-1.763-4.73-4.3-4.73ZM372.076,182.672l-6.536,7.568h-5.805l4.945-7.611,7.396.043Z" style="fill: #191514;"/>
        <path d="M387.642,202.796v12.212h-8.299v-22.188h8.299v5.289c1.118-3.741,3.698-6.149,6.966-6.149,4.343,0,7.439,3.698,7.439,8.815v14.232h-8.299v-12.341c0-2.063-1.118-3.483-2.924-3.483s-3.182,1.463-3.182,3.612Z" style="fill: #191514;"/>
        <path d="M90.866,276.208c-10.5,0-17.579-6.72-17.579-16.68s7.08-16.679,17.579-16.679c10.439,0,17.519,6.719,17.519,16.679s-7.08,16.68-17.519,16.68ZM90.866,252.929c-3.54,0-6,2.7-6,6.6s2.459,6.6,6,6.6,6-2.7,6-6.6-2.459-6.6-6-6.6Z" style="fill: #191514;"/>
        <path d="M113.366,288.807v-44.758h11.52v6.24c1.92-4.62,5.459-7.439,10.2-7.439,7.62,0,12.899,6.779,12.899,16.679s-5.22,16.68-12.899,16.68c-4.62,0-8.16-2.82-10.14-7.5v20.099h-11.58ZM130.465,252.988c-3.479,0-6,2.76-6,6.54,0,3.72,2.52,6.479,6,6.479s6-2.76,6-6.479c0-3.78-2.52-6.54-6-6.54Z" style="fill: #191514;"/>
        <path d="M185.064,265.768c-1.38,6.061-8.04,10.44-16.079,10.44-10.2,0-17.279-6.78-17.279-16.8,0-9.84,7.259-16.559,17.519-16.559s16.979,6.719,16.979,16.679c0,.899-.06,2.521-.12,3.12h-22.499c.78,3.24,2.88,5.22,6,5.22,2.64,0,4.56-1.44,5.28-3.42l10.2,1.319ZM174.565,256.588c-.18-2.939-2.46-5.459-5.58-5.459-2.94,0-4.86,2.16-5.46,5.459h11.04Z" style="fill: #191514;"/>
        <path d="M213.924,243.57v10.259c-1.86-.779-4.02-1.26-5.459-1.26-3.42,0-5.7,2.641-5.7,6.48v15.959h-11.58v-30.959h11.52v7.68c1.38-5.399,4.32-8.879,7.919-8.879.96,0,2.16.299,3.3.72Z" style="fill: #191514;"/>
        <path d="M240.083,244.049h11.52v26.579c0,.601.42,1.08,1.02,1.08s1.02-.479,1.02-1.08v-6.42h2.22v6.3c0,3.359-2.64,5.7-7.74,5.7-4.68,0-8.04-1.92-8.04-6.84v-2.64c-1.68,5.879-5.52,9.479-10.5,9.479-7.8,0-13.14-6.78-13.14-16.68s5.34-16.679,13.14-16.679c4.98,0,8.76,3.6,10.5,9.419v-8.22ZM240.023,259.528c0-3.84-2.52-6.6-6-6.6-3.54,0-6,2.76-6,6.6,0,3.78,2.46,6.6,6,6.6,3.48,0,6-2.819,6-6.6Z" style="fill: #191514;"/>
        <path d="M278.063,264.088h2.28v5.221c0,4.079-3.42,6.899-8.16,6.899-5.939,0-9.72-3.3-9.72-8.34v-15.239h-3.959v-8.58h4.44l1.14-8.1h9.899v8.1h6.48v8.58h-6.48v16.619c0,1.5.84,2.46,2.04,2.46s2.04-.96,2.04-2.46v-5.16Z" style="fill: #191514;"/>
        <path d="M291.923,228.449c3.72,0,6.42,2.58,6.42,6.18,0,3.66-2.7,6.24-6.42,6.24s-6.479-2.58-6.479-6.24c0-3.6,2.76-6.18,6.479-6.18ZM297.683,275.008h-11.58v-30.959h11.58v30.959Z" style="fill: #191514;"/>
        <path d="M329.842,275.008h-19.139l-9-30.959h12.299l6.24,27.539,6.24-27.539h12.3l-8.94,30.959Z" style="fill: #191514;"/>
        <path d="M363.022,244.049h11.52v26.579c0,.601.42,1.08,1.02,1.08s1.02-.479,1.02-1.08v-6.42h2.22v6.3c0,3.359-2.64,5.7-7.74,5.7-4.68,0-8.04-1.92-8.04-6.84v-2.64c-1.68,5.879-5.52,9.479-10.5,9.479-7.8,0-13.14-6.78-13.14-16.68s5.34-16.679,13.14-16.679c4.98,0,8.76,3.6,10.5,9.419v-8.22ZM362.962,259.528c0-3.84-2.52-6.6-6-6.6-3.54,0-6,2.76-6,6.6,0,3.78,2.46,6.6,6,6.6,3.48,0,6-2.819,6-6.6Z" style="fill: #191514;"/>
      </g>
    </g>
  </g>
</svg>