<?xml version="1.0" encoding="UTF-8"?>
<svg id="b" data-name="Layer 2" xmlns="http://www.w3.org/2000/svg" viewBox="0 0 1049.312 269.139">
  <g id="c" data-name="Layer 1">
    <g>
      <g>
        <path d="M81.441,269.139c-4.294,0-8.582-.757-12.87-2.271-4.294-1.515-8.139-3.785-11.546-6.813-3.406-3.028-6.121-6.938-8.139-11.735-2.022-4.791-3.028-10.599-3.028-17.412V38.231c0-6.813,1.006-12.615,3.028-17.412,2.018-4.791,4.732-8.707,8.139-11.735,3.407-3.028,7.252-5.299,11.546-6.813,4.288-1.514,8.576-2.271,12.87-2.271h6.813c4.288,0,8.576.757,12.87,2.271,4.288,1.515,8.139,3.785,11.546,6.813,3.406,3.028,6.115,6.944,8.138,11.735,2.018,4.797,3.028,10.599,3.028,17.412v70.787h-29.525V42.396c0-6.56-.757-11.102-2.271-13.627-1.514-2.52-3.661-3.785-6.435-3.785h-1.515c-2.779,0-4.921,1.324-6.435,3.975-1.515,2.649-2.271,7.257-2.271,13.816v183.59c0,6.565.757,11.167,2.271,13.816,1.514,2.65,3.655,3.975,6.435,3.975h1.515c2.773,0,4.921-1.324,6.435-3.975,1.515-2.649,2.271-7.251,2.271-13.816v-66.622h29.525v71.165c0,6.813-1.011,12.621-3.028,17.412-2.022,4.797-4.731,8.707-8.138,11.735-3.407,3.028-7.258,5.299-11.546,6.813-4.294,1.514-8.582,2.271-12.87,2.271h-6.813Z" style="fill: #ff0;"/>
        <path d="M212.791,2.271v264.598h-29.526v-121.132h-18.17v121.132h-29.525V2.271h29.525v121.511h18.17V2.271h29.526Z" style="fill: #ff0;"/>
        <path d="M271.84,196.839h-20.819l-5.678,70.029h-25.362L243.449,2.271h37.854l24.983,264.598h-28.391l-6.057-70.029ZM252.913,174.884h17.034l-7.949-90.849h-1.136l-7.949,90.849Z" style="fill: #ff0;"/>
        <path d="M373.663,27.254h-25.361v239.614h-29.526V27.254h-25.74V2.271h80.628v24.983Z" style="fill: #ff0;"/>
        <path d="M458.832,105.232c0,8.08-1.248,14.071-3.738,17.98-2.496,3.916-5.606,6.501-9.345,7.761,3.738,1.011,6.849,3.472,9.345,7.381,2.49,3.916,3.738,9.907,3.738,17.98v73.814c0,6.565-1.006,12.113-3.017,16.656-2.011,4.542-4.708,8.327-8.097,11.355-3.396,3.028-7.222,5.241-11.492,6.625-4.271,1.39-8.665,2.082-13.184,2.082h-42.189V2.271h42.189c4.519,0,8.913.758,13.184,2.271s8.097,3.785,11.492,6.813c3.389,3.028,6.086,6.944,8.097,11.734,2.011,4.797,3.017,10.6,3.017,17.413v64.729ZM422.114,119.996c4.791,0,7.192-5.549,7.192-16.656v-58.295c0-11.858-2.78-17.791-8.328-17.791h-10.6v92.742h11.735ZM429.307,158.606c0-11.102-2.526-16.655-7.571-16.655h-11.356v99.934h10.221c5.803,0,8.707-5.424,8.707-16.277v-67.001Z" style="fill: #ff0;"/>
        <path d="M505.389,269.139c-4.294,0-8.582-.757-12.87-2.271-4.294-1.515-8.139-3.785-11.546-6.813-3.406-3.028-6.121-6.938-8.139-11.735-2.022-4.791-3.028-10.599-3.028-17.412V38.231c0-6.813,1.006-12.615,3.028-17.412,2.018-4.791,4.732-8.707,8.139-11.735,3.407-3.028,7.252-5.299,11.546-6.813,4.288-1.514,8.576-2.271,12.87-2.271h6.813c4.288,0,8.576.757,12.87,2.271,4.288,1.515,8.139,3.785,11.546,6.813,3.406,3.028,6.115,6.944,8.138,11.735,2.018,4.797,3.028,10.599,3.028,17.412v192.676c0,6.813-1.011,12.621-3.028,17.412-2.022,4.797-4.731,8.707-8.138,11.735-3.407,3.028-7.258,5.299-11.546,6.813-4.294,1.514-8.582,2.271-12.87,2.271h-6.813ZM508.038,24.983c-5.808,0-8.706,5.932-8.706,17.791v183.59c0,6.565.757,11.167,2.271,13.816,1.514,2.65,3.655,3.975,6.435,3.975h1.515c2.773,0,4.921-1.324,6.435-3.975,1.515-2.649,2.271-7.251,2.271-13.816V42.774c0-11.859-2.904-17.791-8.706-17.791h-1.515Z" style="fill: #ff0;"/>
        <path d="M635.224,27.254h-25.361v239.614h-29.526V27.254h-25.74V2.271h80.628v24.983Z" style="fill: #ff0;"/>
        <path d="M721.523,124.538v-46.182h22.712v46.182h38.232v20.062h-38.232v45.803h-22.712v-45.803h-38.232v-20.062h38.232Z" style="fill: #ff0;"/>
        <path d="M864.979,2.271v264.598h-29.525V2.271h29.525Z" style="fill: #ff0;"/>
        <path d="M911.156,266.868h-30.283v-37.097h30.283v37.097Z" style="fill: #ff0;"/>
        <path d="M973.988,196.839h-20.819l-5.678,70.029h-25.362L945.598,2.271h37.854l24.983,264.598h-28.391l-6.057-70.029ZM955.062,174.884h17.034l-7.949-90.849h-1.136l-7.949,90.849Z" style="fill: #ff0;"/>
        <path d="M1049.312,266.868h-30.283v-37.097h30.283v37.097Z" style="fill: #ff0;"/>
      </g>
      <g>
        <path d="M11.804,266.721v-2.681c2.14,0,3.691-1.881,3.691-4.562,0-2.375-1.223-3.762-2.892-3.762-1.905,0-2.188,2.116-2.517,4.468-.423,3.151-.987,6.325-4.82,6.325-3.08,0-5.267-2.61-5.267-6.49,0-3.903,2.398-6.725,5.714-6.725v2.61c-1.976,0-3.387,1.717-3.387,4.092,0,2.257,1.129,3.715,2.657,3.715,1.905,0,2.211-1.928,2.54-4.326.423-3.104.987-6.466,4.726-6.466,3.245,0,5.573,2.563,5.573,6.631,0,4.162-2.539,7.171-6.02,7.171Z" style="fill: #ff6ef3;"/>
        <path d="M14.837,216.945h2.398v11.757H.588v-11.522h2.398v8.794h4.585v-7.854h2.163v7.854h5.103v-9.029Z" style="fill: #ff6ef3;"/>
        <path d="M17.235,178.667v3.245l-6.02,3.668v4.468h6.02v2.822H.588v-7.666c0-3.645,2.233-6.255,5.408-6.255,2.233,0,4.209,1.623,4.797,3.88l6.442-4.162ZM2.915,185.533v4.515h6.043v-4.515c0-2.163-1.246-3.762-2.962-3.762-1.952,0-3.081,1.575-3.081,3.762Z" style="fill: #ff6ef3;"/>
        <path d="M.588,143.328v-2.963l16.647,5.644v4.444l-16.647,5.644v-2.963l14.954-4.915-14.954-4.891Z" style="fill: #ff6ef3;"/>
        <path d="M17.235,114.15v2.822H.588v-2.822h16.647Z" style="fill: #ff6ef3;"/>
        <path d="M11.897,73.356c3.434.752,5.926,4.115,5.926,7.995,0,5.056-3.738,8.724-8.912,8.7-5.173,0-8.911-3.645-8.911-8.7,0-3.88,2.609-7.242,6.184-7.995l.329,2.704c-2.351.564-4.044,2.775-4.044,5.267,0,3.457,2.681,5.902,6.442,5.902,3.763-.023,6.467-2.469,6.467-5.902,0-2.445-1.646-4.656-3.927-5.291l.446-2.681Z" style="fill: #ff6ef3;"/>
        <path d="M14.837,37.5h2.398v11.757H.588v-11.522h2.398v8.794h4.585v-7.854h2.163v7.854h5.103v-9.029Z" style="fill: #ff6ef3;"/>
        <path d="M11.804,14.106v-2.681c2.14,0,3.691-1.881,3.691-4.562,0-2.375-1.223-3.762-2.892-3.762-1.905,0-2.188,2.116-2.517,4.468-.423,3.151-.987,6.325-4.82,6.325-3.08,0-5.267-2.61-5.267-6.49C0,3.502,2.398.68,5.714.68v2.61c-1.976,0-3.387,1.717-3.387,4.092,0,2.257,1.129,3.715,2.657,3.715,1.905,0,2.211-1.928,2.54-4.326.423-3.104.987-6.466,4.726-6.466,3.245,0,5.573,2.563,5.573,6.631,0,4.162-2.539,7.171-6.02,7.171Z" style="fill: #ff6ef3;"/>
      </g>
    </g>
  </g>
</svg>