<?xml version="1.0" encoding="UTF-8"?>
<svg id="b" data-name="Layer 2" xmlns="http://www.w3.org/2000/svg" viewBox="0 0 864.848 269.139">
  <g id="c" data-name="Layer 1">
    <g>
      <g>
        <path d="M79.409,27.254v96.148h25.741v22.333h-25.741v96.148h35.204v24.983H49.884V2.271h62.459v24.983h-32.934Z" style="fill: #ff0;"/>
        <path d="M158.899,269.139c-4.294,0-8.582-.757-12.87-2.271-4.294-1.514-8.139-3.785-11.546-6.813-3.406-3.028-6.121-6.938-8.139-11.735-2.022-4.791-3.028-10.599-3.028-17.413V38.232c0-6.813,1.006-12.616,3.028-17.413,2.018-4.791,4.732-8.707,8.139-11.735,3.407-3.028,7.252-5.299,11.546-6.813,4.288-1.514,8.576-2.271,12.87-2.271h6.813c4.288,0,8.576.757,12.87,2.271,4.288,1.514,8.139,3.785,11.546,6.813,3.406,3.028,6.115,6.944,8.138,11.735,2.018,4.797,3.028,10.599,3.028,17.413v70.787h-29.525V42.396c0-6.56-.757-11.102-2.271-13.627-1.514-2.52-3.661-3.785-6.435-3.785h-1.515c-2.779,0-4.921,1.325-6.435,3.975-1.515,2.649-2.271,7.257-2.271,13.816v183.59c0,6.565.757,11.167,2.271,13.816,1.514,2.65,3.655,3.975,6.435,3.975h1.515c2.773,0,4.921-1.325,6.435-3.975,1.515-2.649,2.271-7.251,2.271-13.816v-66.623h29.525v71.165c0,6.813-1.011,12.622-3.028,17.413-2.022,4.797-4.731,8.707-8.138,11.735-3.407,3.028-7.258,5.299-11.546,6.813-4.294,1.514-8.582,2.271-12.87,2.271h-6.813Z" style="fill: #ff0;"/>
        <path d="M248.231,269.139c-4.294,0-8.582-.757-12.87-2.271-4.294-1.514-8.139-3.785-11.546-6.813-3.406-3.028-6.121-6.938-8.139-11.735-2.022-4.791-3.028-10.599-3.028-17.413V38.232c0-6.813,1.006-12.616,3.028-17.413,2.018-4.791,4.732-8.707,8.139-11.735,3.407-3.028,7.252-5.299,11.546-6.813,4.288-1.514,8.576-2.271,12.87-2.271h6.813c4.288,0,8.576.757,12.87,2.271,4.288,1.514,8.139,3.785,11.546,6.813,3.406,3.028,6.115,6.944,8.138,11.735,2.018,4.797,3.028,10.599,3.028,17.413v192.675c0,6.813-1.011,12.622-3.028,17.413-2.022,4.797-4.731,8.707-8.138,11.735-3.407,3.028-7.258,5.299-11.546,6.813-4.294,1.514-8.582,2.271-12.87,2.271h-6.813ZM250.881,24.983c-5.808,0-8.706,5.932-8.706,17.791v183.59c0,6.565.757,11.167,2.271,13.816,1.514,2.65,3.655,3.975,6.435,3.975h1.515c2.773,0,4.921-1.325,6.435-3.975,1.515-2.649,2.271-7.251,2.271-13.816V42.774c0-11.859-2.904-17.791-8.706-17.791h-1.515Z" style="fill: #ff0;"/>
        <path d="M411.378,2.271v264.597h-24.604V93.877h-.379l-18.927,172.991h-21.577l-18.548-172.991h-.757v172.991h-24.605V2.271h38.232l15.898,151.036h.757L373.524,2.271h37.854Z" style="fill: #ff0;"/>
        <path d="M532.506,2.271v264.597h-24.604V93.877h-.379l-18.927,172.991h-21.577l-18.548-172.991h-.757v172.991h-24.605V2.271h38.232l15.898,151.036h.757L494.652,2.271h37.854Z" style="fill: #ff0;"/>
        <path d="M574.142,27.254v96.148h25.741v22.333h-25.741v96.148h35.204v24.983h-64.729V2.271h62.459v24.983h-32.934Z" style="fill: #ff0;"/>
        <path d="M696.407,109.019c0,8.079-1.248,14.071-3.738,17.98-2.496,3.916-5.606,6.5-9.345,7.76,3.738,1.011,6.849,3.472,9.345,7.381,2.49,3.916,3.738,9.907,3.738,17.98v59.431c0,8.582.189,15.774.567,21.576.379,5.809.816,10.54,1.325,14.195.503,3.661,1.006,6.376,1.515,8.139.502,1.769.881,2.904,1.135,3.407h-29.585c-1.744-3.028-2.928-8.263-3.549-15.709-.627-7.44-.934-17.98-.934-31.607v-56.781c0-11.356-2.526-17.034-7.571-17.034h-11.356v121.132h-29.525V2.271h42.567c9.795,0,18.141,3.283,25.049,9.842,6.908,6.565,10.362,15.899,10.362,28.012v68.894ZM659.311,123.781c5.045,0,7.571-5.548,7.571-16.656v-62.458c0-11.604-2.904-17.413-8.707-17.413h-10.221v96.527h11.356Z" style="fill: #ff0;"/>
        <path d="M745.99,269.139c-4.294,0-8.582-.757-12.87-2.271-4.294-1.514-8.139-3.785-11.546-6.813-3.406-3.028-6.121-6.938-8.139-11.735-2.022-4.791-3.028-10.599-3.028-17.413V38.232c0-6.813,1.006-12.616,3.028-17.413,2.018-4.791,4.732-8.707,8.139-11.735,3.407-3.028,7.252-5.299,11.546-6.813,4.288-1.514,8.576-2.271,12.87-2.271h6.813c4.288,0,8.576.757,12.87,2.271,4.288,1.514,8.139,3.785,11.546,6.813,3.406,3.028,6.115,6.944,8.138,11.735,2.018,4.797,3.028,10.599,3.028,17.413v70.787h-29.525V42.396c0-6.56-.757-11.102-2.271-13.627-1.514-2.52-3.661-3.785-6.435-3.785h-1.515c-2.779,0-4.921,1.325-6.435,3.975-1.515,2.649-2.271,7.257-2.271,13.816v183.59c0,6.565.757,11.167,2.271,13.816,1.514,2.65,3.655,3.975,6.435,3.975h1.515c2.773,0,4.921-1.325,6.435-3.975,1.515-2.649,2.271-7.251,2.271-13.816v-66.623h29.525v71.165c0,6.813-1.011,12.622-3.028,17.413-2.022,4.797-4.731,8.707-8.138,11.735-3.407,3.028-7.258,5.299-11.546,6.813-4.294,1.514-8.582,2.271-12.87,2.271h-6.813Z" style="fill: #ff0;"/>
        <path d="M829.644,27.254v96.148h25.741v22.333h-25.741v96.148h35.204v24.983h-64.729V2.271h62.459v24.983h-32.934Z" style="fill: #ff0;"/>
      </g>
      <g>
        <path d="M11.805,266.721v-2.681c2.139,0,3.691-1.881,3.691-4.562,0-2.375-1.223-3.762-2.893-3.762-1.904,0-2.188,2.116-2.516,4.468-.424,3.151-.988,6.325-4.82,6.325-3.08,0-5.268-2.61-5.268-6.49,0-3.903,2.398-6.725,5.715-6.725v2.61c-1.977,0-3.387,1.717-3.387,4.092,0,2.257,1.129,3.715,2.656,3.715,1.906,0,2.211-1.928,2.541-4.326.422-3.104.986-6.466,4.725-6.466,3.246,0,5.574,2.563,5.574,6.631,0,4.162-2.539,7.171-6.02,7.171Z" style="fill: #ff6ef3;"/>
        <path d="M14.838,216.945h2.398v11.757H.588v-11.522h2.398v8.794h4.586v-7.854h2.162v7.854h5.104v-9.029Z" style="fill: #ff6ef3;"/>
        <path d="M17.236,178.667v3.245l-6.02,3.668v4.468h6.02v2.822H.588v-7.666c0-3.645,2.234-6.255,5.408-6.255,2.234,0,4.209,1.623,4.797,3.88l6.443-4.162ZM2.916,185.533v4.515h6.043v-4.515c0-2.163-1.246-3.762-2.963-3.762-1.951,0-3.08,1.575-3.08,3.762Z" style="fill: #ff6ef3;"/>
        <path d="M.588,143.329v-2.963l16.648,5.644v4.444l-16.648,5.644v-2.963l14.955-4.915-14.955-4.891Z" style="fill: #ff6ef3;"/>
        <path d="M17.236,114.15v2.822H.588v-2.822h16.648Z" style="fill: #ff6ef3;"/>
        <path d="M11.898,73.356c3.434.752,5.926,4.115,5.926,7.995,0,5.056-3.738,8.724-8.912,8.7-5.174,0-8.912-3.645-8.912-8.7,0-3.88,2.609-7.242,6.184-7.995l.33,2.704c-2.352.564-4.045,2.775-4.045,5.267,0,3.457,2.682,5.902,6.443,5.902,3.762-.023,6.467-2.469,6.467-5.902,0-2.445-1.646-4.656-3.928-5.291l.447-2.681Z" style="fill: #ff6ef3;"/>
        <path d="M14.838,37.501h2.398v11.757H.588v-11.522h2.398v8.794h4.586v-7.854h2.162v7.854h5.104v-9.029Z" style="fill: #ff6ef3;"/>
        <path d="M11.805,14.107v-2.681c2.139,0,3.691-1.881,3.691-4.562,0-2.375-1.223-3.762-2.893-3.762-1.904,0-2.188,2.116-2.516,4.468-.424,3.151-.988,6.325-4.82,6.325-3.08,0-5.268-2.61-5.268-6.49C0,3.502,2.398.681,5.715.681v2.61c-1.977,0-3.387,1.717-3.387,4.092,0,2.257,1.129,3.715,2.656,3.715,1.906,0,2.211-1.928,2.541-4.326.422-3.104.986-6.466,4.725-6.466,3.246,0,5.574,2.563,5.574,6.631,0,4.162-2.539,7.171-6.02,7.171Z" style="fill: #ff6ef3;"/>
      </g>
    </g>
  </g>
</svg>