<?xml version="1.0" encoding="UTF-8"?>
<svg id="b" data-name="Layer 2" xmlns="http://www.w3.org/2000/svg" viewBox="0 0 965.6 269.139">
  <g id="c" data-name="Layer 1">
    <g>
      <g>
        <path d="M99.168,108.64V42.396c0-6.56-.756-11.102-2.271-13.627-1.514-2.52-3.66-3.785-6.434-3.785h-1.516c-2.779,0-4.92,1.325-6.434,3.975-1.516,2.649-2.271,7.257-2.271,13.816v31.797c0,12.368,2.52,22.967,7.57,31.797,5.045,8.836,10.6,17.354,16.656,25.551,6.057,8.204,11.604,16.786,16.654,25.74,5.045,8.961,7.57,19.749,7.57,32.365v40.882c0,6.813-1.01,12.622-3.027,17.413-2.023,4.797-4.672,8.707-7.949,11.735-3.283,3.028-7.068,5.299-11.355,6.813-4.295,1.514-8.707,2.271-13.25,2.271h-5.678c-4.543,0-8.961-.698-13.248-2.082-4.295-1.384-8.205-3.655-11.734-6.814-3.537-3.152-6.377-7.127-8.518-11.924-2.146-4.791-3.219-10.599-3.219-17.413v-70.787h26.877v66.244c0,6.565,1.006,11.167,3.027,13.816,2.018,2.65,4.414,3.975,7.193,3.975h1.514c2.773,0,5.111-1.325,7.004-3.975,1.893-2.649,2.838-7.251,2.838-13.816v-31.797c0-12.362-2.525-22.961-7.57-31.797-5.051-8.831-10.6-17.348-16.656-25.551-6.057-8.198-11.609-16.78-16.654-25.74-5.053-8.955-7.572-19.743-7.572-32.365v-40.882c0-6.813,1.072-12.616,3.219-17.413,2.141-4.791,4.92-8.707,8.328-11.735,3.406-3.028,7.25-5.299,11.545-6.813,4.287-1.514,8.576-2.271,12.869-2.271h3.787c4.541,0,8.895.757,13.059,2.271s7.949,3.785,11.355,6.813c3.408,3.028,6.117,6.944,8.139,11.735,2.018,4.797,3.029,10.599,3.029,17.413v70.408h-26.877Z" style="fill: #ff0;"/>
        <path d="M175.631,269.139c-4.295,0-8.582-.757-12.871-2.271-4.293-1.514-8.139-3.785-11.545-6.813s-6.121-6.938-8.139-11.735c-2.023-4.791-3.029-10.599-3.029-17.413V38.232c0-6.813,1.006-12.616,3.029-17.413,2.018-4.791,4.732-8.707,8.139-11.735s7.252-5.299,11.545-6.813c4.289-1.514,8.576-2.271,12.871-2.271h6.812c4.289,0,8.576.757,12.871,2.271,4.287,1.514,8.139,3.785,11.545,6.813s6.115,6.944,8.139,11.735c2.018,4.797,3.027,10.599,3.027,17.413v192.675c0,6.813-1.01,12.622-3.027,17.413-2.023,4.797-4.732,8.707-8.139,11.735s-7.258,5.299-11.545,6.813c-4.295,1.514-8.582,2.271-12.871,2.271h-6.812ZM178.279,24.983c-5.807,0-8.705,5.932-8.705,17.791v183.59c0,6.565.756,11.167,2.271,13.816,1.514,2.65,3.654,3.975,6.434,3.975h1.516c2.773,0,4.92-1.325,6.434-3.975,1.516-2.649,2.271-7.251,2.271-13.816V42.774c0-11.859-2.904-17.791-8.705-17.791h-1.516Z" style="fill: #ff0;"/>
        <path d="M264.963,269.139c-4.295,0-8.582-.757-12.871-2.271-4.293-1.514-8.139-3.785-11.545-6.813s-6.121-6.938-8.139-11.735c-2.023-4.791-3.029-10.599-3.029-17.413V38.232c0-6.813,1.006-12.616,3.029-17.413,2.018-4.791,4.732-8.707,8.139-11.735s7.252-5.299,11.545-6.813c4.289-1.514,8.576-2.271,12.871-2.271h6.812c4.289,0,8.576.757,12.871,2.271,4.287,1.514,8.139,3.785,11.545,6.813s6.115,6.944,8.139,11.735c2.018,4.797,3.027,10.599,3.027,17.413v70.787h-29.525V42.396c0-6.56-.756-11.102-2.271-13.627-1.514-2.52-3.66-3.785-6.434-3.785h-1.516c-2.779,0-4.92,1.325-6.434,3.975-1.516,2.649-2.271,7.257-2.271,13.816v183.59c0,6.565.756,11.167,2.271,13.816,1.514,2.65,3.654,3.975,6.434,3.975h1.516c2.773,0,4.92-1.325,6.434-3.975,1.516-2.649,2.271-7.251,2.271-13.816v-66.623h29.525v71.165c0,6.813-1.01,12.622-3.027,17.413-2.023,4.797-4.732,8.707-8.139,11.735s-7.258,5.299-11.545,6.813c-4.295,1.514-8.582,2.271-12.871,2.271h-6.812Z" style="fill: #ff0;"/>
        <path d="M348.615,2.271v264.597h-29.525V2.271h29.525Z" style="fill: #ff0;"/>
        <path d="M407.662,196.839h-20.82l-5.678,70.029h-25.361L379.271,2.271h37.854l24.984,264.597h-28.391l-6.057-70.029ZM388.734,174.884h17.035l-7.949-90.849h-1.137l-7.949,90.849Z" style="fill: #ff0;"/>
        <path d="M478.443,2.271v242.264h31.418v22.333h-60.943V2.271h29.525Z" style="fill: #ff0;"/>
        <path d="M666.947,2.271v264.597h-24.605V93.877h-.379l-18.926,172.991h-21.578l-18.547-172.991h-.758v172.991h-24.605V2.271h38.232l15.898,151.036h.758L629.094,2.271h37.854Z" style="fill: #ff0;"/>
        <path d="M708.582,27.254v96.148h25.74v22.333h-25.74v96.148h35.203v24.983h-64.729V2.271h62.459v24.983h-32.934Z" style="fill: #ff0;"/>
        <path d="M752.867,266.868V2.271h42.189c4.52,0,8.914.698,13.184,2.082,4.271,1.39,8.098,3.596,11.492,6.625,3.389,3.028,6.086,6.878,8.098,11.545,2.01,4.673,3.016,10.41,3.016,17.224v189.647c0,6.813-1.006,12.557-3.016,17.223-2.012,4.673-4.709,8.517-8.098,11.545-3.395,3.028-7.221,5.241-11.492,6.625-4.27,1.39-8.664,2.082-13.184,2.082h-42.189ZM782.393,27.254v214.63h10.6c2.52,0,4.543-1.195,6.057-3.596,1.514-2.396,2.271-6.873,2.271-13.438V44.289c0-6.305-.758-10.723-2.271-13.249-1.514-2.52-3.537-3.785-6.057-3.785h-10.6Z" style="fill: #ff0;"/>
        <path d="M872.107,2.271v264.597h-29.525V2.271h29.525Z" style="fill: #ff0;"/>
        <path d="M931.152,196.839h-20.818l-5.678,70.029h-25.363L902.762,2.271h37.855l24.982,264.597h-28.391l-6.057-70.029ZM912.227,174.884h17.033l-7.949-90.849h-1.135l-7.949,90.849Z" style="fill: #ff0;"/>
      </g>
      <g>
        <path d="M11.804,266.721v-2.681c2.14,0,3.691-1.881,3.691-4.562,0-2.375-1.223-3.762-2.892-3.762-1.905,0-2.188,2.116-2.517,4.468-.423,3.151-.987,6.325-4.82,6.325-3.08,0-5.267-2.61-5.267-6.49,0-3.903,2.398-6.725,5.714-6.725v2.61c-1.976,0-3.387,1.717-3.387,4.092,0,2.257,1.129,3.715,2.657,3.715,1.905,0,2.211-1.928,2.54-4.326.423-3.104.987-6.466,4.726-6.466,3.245,0,5.573,2.563,5.573,6.631,0,4.162-2.539,7.171-6.02,7.171Z" style="fill: #ff6ef3;"/>
        <path d="M14.837,216.945h2.398v11.757H.588v-11.522h2.398v8.794h4.585v-7.854h2.163v7.854h5.103v-9.029Z" style="fill: #ff6ef3;"/>
        <path d="M17.235,178.667v3.245l-6.02,3.668v4.468h6.02v2.822H.588v-7.666c0-3.645,2.233-6.255,5.408-6.255,2.233,0,4.209,1.623,4.797,3.88l6.442-4.162ZM2.915,185.533v4.515h6.043v-4.515c0-2.163-1.246-3.762-2.962-3.762-1.952,0-3.081,1.575-3.081,3.762Z" style="fill: #ff6ef3;"/>
        <path d="M.588,143.329v-2.963l16.647,5.644v4.444l-16.647,5.644v-2.963l14.954-4.915-14.954-4.891Z" style="fill: #ff6ef3;"/>
        <path d="M17.235,114.15v2.822H.588v-2.822h16.647Z" style="fill: #ff6ef3;"/>
        <path d="M11.897,73.356c3.434.752,5.926,4.115,5.926,7.995,0,5.056-3.738,8.724-8.912,8.7-5.173,0-8.911-3.645-8.911-8.7,0-3.88,2.609-7.242,6.184-7.995l.329,2.704c-2.351.564-4.044,2.775-4.044,5.267,0,3.457,2.681,5.902,6.442,5.902,3.763-.023,6.467-2.469,6.467-5.902,0-2.445-1.646-4.656-3.927-5.291l.446-2.681Z" style="fill: #ff6ef3;"/>
        <path d="M14.837,37.501h2.398v11.757H.588v-11.522h2.398v8.794h4.585v-7.854h2.163v7.854h5.103v-9.029Z" style="fill: #ff6ef3;"/>
        <path d="M11.804,14.107v-2.681c2.14,0,3.691-1.881,3.691-4.562,0-2.375-1.223-3.762-2.892-3.762-1.905,0-2.188,2.116-2.517,4.468-.423,3.151-.987,6.325-4.82,6.325-3.08,0-5.267-2.61-5.267-6.49C0,3.502,2.398.681,5.714.681v2.61c-1.976,0-3.387,1.717-3.387,4.092,0,2.257,1.129,3.715,2.657,3.715,1.905,0,2.211-1.928,2.54-4.326.423-3.104.987-6.466,4.726-6.466,3.245,0,5.573,2.563,5.573,6.631,0,4.162-2.539,7.171-6.02,7.171Z" style="fill: #ff6ef3;"/>
      </g>
    </g>
  </g>
</svg>