<?xml version="1.0" encoding="UTF-8"?><svg id="Capa_2" xmlns="http://www.w3.org/2000/svg" viewBox="0 0 617.84 246.94"><defs><style>.cls-1{fill:#191514;}.cls-2{fill:none;stroke:#ff0;stroke-miterlimit:10;stroke-width:2px;}</style></defs><g id="Capa_1-2"><path class="cls-2" d="M44.94,229.56l2.87-54.31h-17.53l-12.36,54.31H1.26L48.1,28.68h24.71l-9.2,200.88h-18.68ZM33.73,160.59h14.66l4.31-77.88h-.86l-18.1,77.88Z"/><path class="cls-2" d="M137.76,28.68c7.09,0,12.79,2.35,17.1,7.04,4.31,4.7,5.89,11.64,4.74,20.83l-9.48,65.81c-1.34,8.62-4.6,14.71-9.77,18.25-5.17,3.55-11.21,5.32-18.11,5.32h-12.36l-11.78,83.63h-19.25L107.3,28.68h30.46ZM139.49,59.43c.96-4.98.76-8.62-.58-10.92-1.34-2.3-3.16-3.45-5.46-3.45h-9.2l-12.07,84.78h10.63c4.6,0,7.47-4.5,8.62-13.51l8.05-56.9Z"/><path class="cls-2" d="M212.19,28.68c7.09,0,12.79,2.35,17.1,7.04,4.31,4.7,5.89,11.64,4.74,20.83l-9.48,65.81c-1.34,8.62-4.6,14.71-9.77,18.25-5.17,3.55-11.21,5.32-18.11,5.32h-12.36l-11.78,83.63h-19.25l28.45-200.88h30.46ZM213.92,59.43c.96-4.98.76-8.62-.58-10.92-1.34-2.3-3.16-3.45-5.46-3.45h-9.2l-12.07,84.78h10.63c4.6,0,7.47-4.5,8.62-13.51l8.05-56.9Z"/><path class="cls-2" d="M280.87,109.43l7.47-51.73c.76-5.17.53-8.86-.72-11.06-1.25-2.2-3.02-3.31-5.32-3.31h-1.44c-2.3,0-4.31,1.06-6.04,3.16-1.72,2.11-3.07,5.94-4.02,11.5l-3.45,25.58c-.96,6.13-.86,11.74.29,16.81,1.15,5.08,2.73,9.82,4.74,14.22,2.01,4.41,4.31,8.67,6.9,12.79,2.59,4.12,4.93,8.43,7.04,12.93,2.11,4.5,3.69,9.29,4.74,14.37,1.05,5.08,1.19,10.68.43,16.81l-4.31,31.61c-.77,4.98-2.16,9.25-4.17,12.79-2.01,3.55-4.41,6.47-7.18,8.77-2.78,2.3-5.75,3.98-8.91,5.03s-6.37,1.58-9.63,1.58h-4.31c-3.26,0-6.32-.53-9.2-1.58-2.87-1.05-5.37-2.73-7.47-5.03-2.11-2.3-3.69-5.22-4.74-8.77-1.05-3.54-1.2-7.8-.43-12.79l7.76-54.6h17.53l-7.47,51.73c-.77,5.37-.43,9.15,1.01,11.35,1.44,2.21,3.4,3.3,5.89,3.3h1.44c2.3,0,4.45-1.1,6.47-3.3,2.01-2.2,3.4-5.99,4.17-11.35l3.74-25.58c.76-6.13.62-11.68-.43-16.67-1.06-4.98-2.64-9.72-4.74-14.23-2.11-4.5-4.45-8.81-7.04-12.93-2.59-4.12-4.93-8.38-7.04-12.79-2.11-4.4-3.74-9.15-4.89-14.22-1.15-5.07-1.25-10.78-.29-17.1l4.6-31.61c.76-4.98,2.16-9.24,4.17-12.79,2.01-3.54,4.41-6.47,7.18-8.76,2.77-2.3,5.79-3.97,9.05-5.03,3.26-1.05,6.42-1.58,9.48-1.58h3.16c3.06,0,6.08.53,9.05,1.58,2.97,1.06,5.46,2.73,7.47,5.03,2.01,2.3,3.49,5.22,4.46,8.76.96,3.55,1.05,7.81.29,12.79l-7.76,54.31h-17.53Z"/><path class="cls-2" d="M395.24,12.3h12.93l-2.3,14.94c2.68.39,5.27,1.2,7.76,2.44,2.49,1.25,4.6,3.02,6.32,5.32,1.72,2.3,2.92,5.13,3.59,8.48.67,3.35.72,7.23.14,11.64l-7.76,54.89h-19.25l7.18-52.3c.96-5.17.76-8.86-.58-11.06-1.34-2.2-3.07-3.31-5.17-3.31h-1.72c-2.11,0-4.07,1.06-5.89,3.16-1.82,2.11-3.12,5.94-3.88,11.5l-6.61,44.83c-1.15,10.92,1.34,16.38,7.47,16.38h6.61l-1.15,7.76h-.29l-.58,6.32h-6.61c-3.07,0-5.6,1.44-7.62,4.31s-3.4,6.9-4.17,12.07l-7.18,50.87c-.96,5.37-.82,9.15.43,11.35,1.24,2.21,3.02,3.3,5.32,3.3h1.44c2.3,0,4.31-1.1,6.04-3.3,1.72-2.2,3.06-5.99,4.02-11.35l7.47-52.01h19.25l-7.76,54.89c-1.34,9.01-4.55,15.66-9.63,19.97-5.08,4.31-10.49,6.85-16.24,7.62l-2.3,14.94h-12.65l2.01-14.94c-2.68-.39-5.22-1.2-7.62-2.44-2.4-1.24-4.41-2.97-6.04-5.17-1.63-2.2-2.77-4.98-3.45-8.33-.67-3.35-.62-7.23.14-11.64l7.18-53.17c.96-7.85,3.54-13.6,7.76-17.24,4.21-3.64,8.81-5.94,13.79-6.9-4.79-1.15-8.72-3.69-11.78-7.62-3.07-3.92-4.02-9.92-2.87-17.96l6.61-45.41c1.34-8.62,4.45-15.13,9.34-19.54,4.89-4.4,10.1-7.09,15.66-8.05l2.59-15.23Z"/><path class="cls-2" d="M506.75,28.68l-28.45,200.88h-19.25l28.45-200.88h19.25Z"/><path class="cls-2" d="M520.82,229.56h-19.83l4.02-26.44h19.54l-3.74,26.44Z"/><path class="cls-2" d="M579.74,229.56l2.87-54.31h-17.53l-12.36,54.31h-16.67l46.84-200.88h24.71l-9.2,200.88h-18.68ZM568.53,160.59h14.66l4.31-77.88h-.86l-18.11,77.88Z"/><path class="cls-1" d="M55.17,217.26l2.87-54.31h-17.53l-12.36,54.31H11.49L58.33,16.38h24.71l-9.2,200.88h-18.68ZM43.96,148.29h14.66l4.31-77.88h-.86l-18.1,77.88Z"/><path class="cls-1" d="M147.99,16.38c7.09,0,12.79,2.35,17.1,7.04,4.31,4.7,5.89,11.64,4.74,20.83l-9.48,65.81c-1.34,8.62-4.6,14.71-9.77,18.25-5.17,3.55-11.21,5.32-18.11,5.32h-12.36l-11.78,83.63h-19.25L117.53,16.38h30.46ZM149.71,47.13c.96-4.98.76-8.62-.58-10.92-1.34-2.3-3.16-3.45-5.46-3.45h-9.2l-12.07,84.78h10.63c4.6,0,7.47-4.5,8.62-13.51l8.05-56.9Z"/><path class="cls-1" d="M216.67,97.13l7.47-51.73c.76-5.17.53-8.86-.72-11.06-1.25-2.2-3.02-3.31-5.32-3.31h-1.44c-2.3,0-4.31,1.06-6.04,3.16-1.72,2.11-3.07,5.94-4.02,11.5l-3.45,25.58c-.96,6.13-.86,11.74.29,16.81,1.15,5.08,2.73,9.82,4.74,14.22,2.01,4.41,4.31,8.67,6.9,12.79,2.59,4.12,4.93,8.43,7.04,12.93,2.11,4.5,3.69,9.29,4.74,14.37,1.05,5.08,1.19,10.68.43,16.81l-4.31,31.61c-.77,4.98-2.16,9.25-4.17,12.79-2.01,3.55-4.41,6.47-7.18,8.77-2.78,2.3-5.75,3.98-8.91,5.03s-6.37,1.58-9.63,1.58h-4.31c-3.26,0-6.32-.53-9.2-1.58-2.87-1.05-5.37-2.73-7.47-5.03-2.11-2.3-3.69-5.22-4.74-8.77-1.05-3.54-1.2-7.8-.43-12.79l7.76-54.6h17.53l-7.47,51.73c-.77,5.37-.43,9.15,1.01,11.35,1.44,2.21,3.4,3.3,5.89,3.3h1.44c2.3,0,4.45-1.1,6.47-3.3,2.01-2.2,3.4-5.99,4.17-11.35l3.74-25.58c.76-6.13.62-11.68-.43-16.67-1.06-4.98-2.64-9.72-4.74-14.23-2.11-4.5-4.45-8.81-7.04-12.93-2.59-4.12-4.93-8.38-7.04-12.79-2.11-4.4-3.74-9.15-4.89-14.22-1.15-5.07-1.25-10.78-.29-17.1l4.6-31.61c.76-4.98,2.16-9.24,4.17-12.79,2.01-3.54,4.41-6.47,7.18-8.76,2.77-2.3,5.79-3.97,9.05-5.03,3.26-1.05,6.42-1.58,9.48-1.58h3.16c3.06,0,6.08.53,9.05,1.58,2.97,1.06,5.46,2.73,7.47,5.03,2.01,2.3,3.49,5.22,4.46,8.76.96,3.55,1.05,7.81.29,12.79l-7.76,54.31h-17.53Z"/><path class="cls-1" d="M291.1,97.13l7.47-51.73c.76-5.17.53-8.86-.72-11.06-1.25-2.2-3.02-3.31-5.32-3.31h-1.44c-2.3,0-4.31,1.06-6.04,3.16-1.72,2.11-3.07,5.94-4.02,11.5l-3.45,25.58c-.96,6.13-.86,11.74.29,16.81,1.15,5.08,2.73,9.82,4.74,14.22,2.01,4.41,4.31,8.67,6.9,12.79,2.59,4.12,4.93,8.43,7.04,12.93,2.11,4.5,3.69,9.29,4.74,14.37,1.05,5.08,1.19,10.68.43,16.81l-4.31,31.61c-.77,4.98-2.16,9.25-4.17,12.79-2.01,3.55-4.41,6.47-7.18,8.77-2.78,2.3-5.75,3.98-8.91,5.03s-6.37,1.58-9.63,1.58h-4.31c-3.26,0-6.32-.53-9.2-1.58-2.87-1.05-5.37-2.73-7.47-5.03-2.11-2.3-3.69-5.22-4.74-8.77-1.05-3.54-1.2-7.8-.43-12.79l7.76-54.6h17.53l-7.47,51.73c-.77,5.37-.43,9.15,1.01,11.35,1.44,2.21,3.4,3.3,5.89,3.3h1.44c2.3,0,4.45-1.1,6.47-3.3,2.01-2.2,3.4-5.99,4.17-11.35l3.74-25.58c.76-6.13.62-11.68-.43-16.67-1.06-4.98-2.64-9.72-4.74-14.23-2.11-4.5-4.45-8.81-7.04-12.93-2.59-4.12-4.93-8.38-7.04-12.79-2.11-4.4-3.74-9.15-4.89-14.22-1.15-5.07-1.25-10.78-.29-17.1l4.6-31.61c.76-4.98,2.16-9.24,4.17-12.79,2.01-3.54,4.41-6.47,7.18-8.76,2.77-2.3,5.79-3.97,9.05-5.03,3.26-1.05,6.42-1.58,9.48-1.58h3.16c3.06,0,6.08.53,9.05,1.58,2.97,1.06,5.46,2.73,7.47,5.03,2.01,2.3,3.49,5.22,4.46,8.76.96,3.55,1.05,7.81.29,12.79l-7.76,54.31h-17.53Z"/><path class="cls-1" d="M405.47,0h12.93l-2.3,14.94c2.68.39,5.27,1.2,7.76,2.44,2.49,1.25,4.6,3.02,6.32,5.32,1.72,2.3,2.92,5.13,3.59,8.48.67,3.35.72,7.23.14,11.64l-7.76,54.89h-19.25l7.18-52.3c.96-5.17.76-8.86-.58-11.06-1.34-2.2-3.07-3.31-5.17-3.31h-1.72c-2.11,0-4.07,1.06-5.89,3.16-1.82,2.11-3.12,5.94-3.88,11.5l-6.61,44.83c-1.15,10.92,1.34,16.38,7.47,16.38h6.61l-1.15,7.76h-.29l-.58,6.32h-6.61c-3.07,0-5.6,1.44-7.62,4.31s-3.4,6.9-4.17,12.07l-7.18,50.87c-.96,5.37-.82,9.15.43,11.35,1.24,2.21,3.02,3.3,5.32,3.3h1.44c2.3,0,4.31-1.1,6.04-3.3,1.72-2.2,3.06-5.99,4.02-11.35l7.47-52.01h19.25l-7.76,54.89c-1.34,9.01-4.55,15.66-9.63,19.97-5.08,4.31-10.49,6.85-16.24,7.62l-2.3,14.94h-12.65l2.01-14.94c-2.68-.39-5.22-1.2-7.62-2.44-2.4-1.24-4.41-2.97-6.04-5.17-1.63-2.2-2.77-4.98-3.45-8.33-.67-3.35-.62-7.23.14-11.64l7.18-53.17c.96-7.85,3.54-13.6,7.76-17.24,4.21-3.64,8.81-5.94,13.79-6.9-4.79-1.15-8.72-3.69-11.78-7.62-3.07-3.92-4.02-9.92-2.87-17.96l6.61-45.41c1.34-8.62,4.45-15.13,9.34-19.54,4.89-4.4,10.1-7.09,15.66-8.05l2.59-15.23Z"/><path class="cls-1" d="M516.97,16.38l-28.45,200.88h-19.25l28.45-200.88h19.25Z"/><path class="cls-1" d="M531.05,217.26h-19.83l4.02-26.44h19.54l-3.74,26.44Z"/><path class="cls-1" d="M589.96,217.26l2.87-54.31h-17.53l-12.36,54.31h-16.67l46.84-200.88h24.71l-9.2,200.88h-18.68ZM578.75,148.29h14.66l4.31-77.88h-.86l-18.11,77.88Z"/></g></svg>