<?xml version="1.0" encoding="UTF-8"?><svg id="Capa_2" xmlns="http://www.w3.org/2000/svg" viewBox="0 0 622.62 248.38"><defs><style>.cls-1{fill:#191514;}.cls-2{fill:none;stroke:#ff0;stroke-miterlimit:10;stroke-width:2px;}</style></defs><g id="Capa_1-2"><path class="cls-2" d="M22.78,247.38c-3.07,0-6.04-.53-8.91-1.58-2.87-1.05-5.37-2.73-7.47-5.03-2.11-2.3-3.64-5.22-4.6-8.76-.96-3.54-1.05-7.8-.29-12.79L22.2,71.21c.76-4.98,2.16-9.24,4.17-12.79,2.01-3.54,4.4-6.47,7.18-8.76,2.77-2.3,5.75-3.97,8.91-5.03,3.16-1.05,6.37-1.58,9.63-1.58h4.89c3.06,0,6.04.53,8.91,1.58,2.87,1.06,5.36,2.73,7.47,5.03,2.11,2.3,3.69,5.22,4.74,8.76,1.05,3.55,1.19,7.81.43,12.79l-7.76,54.6h-19.54l7.47-52.02c.76-5.17.53-8.86-.72-11.06-1.25-2.2-2.92-3.31-5.03-3.31h-1.72c-2.11,0-4.07,1.06-5.89,3.16-1.82,2.11-3.12,5.94-3.88,11.5l-20.4,142.25c-.77,5.37-.53,9.15.72,11.35,1.24,2.2,2.92,3.3,5.03,3.3h1.72c2.11,0,4.07-1.1,5.89-3.3,1.82-2.2,3.11-5.99,3.88-11.35l7.47-52.02h19.54l-7.76,54.89c-.77,4.98-2.16,9.25-4.17,12.79-2.01,3.55-4.41,6.47-7.18,8.76-2.78,2.3-5.8,3.98-9.05,5.03-3.26,1.05-6.42,1.58-9.48,1.58h-4.89Z"/><path class="cls-2" d="M109.56,245.65l2.87-54.31h-17.53l-12.36,54.31h-16.67L112.72,44.77h24.71l-9.2,200.88h-18.68ZM98.36,176.68h14.66l4.31-77.88h-.86l-18.1,77.88Z"/><path class="cls-2" d="M250.38,44.77l-28.74,200.88h-16.09l20.12-141.39h-.29l-36.21,141.39h-14.37l4.6-141.39h-.29l-20.12,141.39h-16.09l28.45-200.88h25.29l-4.31,127.02h.29l32.76-127.02h25Z"/><path class="cls-2" d="M299.8,44.77c7.09,0,12.79,2.35,17.1,7.04,4.31,4.7,5.89,11.64,4.74,20.83l-9.48,65.81c-1.34,8.62-4.6,14.71-9.77,18.25-5.17,3.55-11.21,5.32-18.1,5.32h-12.36l-11.78,83.63h-19.25l28.45-200.88h30.46ZM301.53,75.52c.96-4.98.76-8.62-.57-10.92-1.34-2.3-3.16-3.45-5.46-3.45h-9.2l-12.07,84.78h10.63c4.6,0,7.47-4.5,8.62-13.51l8.05-56.9Z"/><path class="cls-2" d="M346.65,245.65l2.87-54.31h-17.53l-12.36,54.31h-16.67l46.84-200.88h24.71l-9.2,200.88h-18.68ZM335.44,176.68h14.66l4.31-77.88h-.86l-18.1,77.88Z"/><path class="cls-2" d="M422.51,245.65l-6.32-141.1h-.29l-19.83,141.1h-16.09l28.16-200.88h22.13l4.6,139.09h.29l19.83-139.09h17.82l-28.74,200.88h-21.55ZM419.93,22.07c2.3-3.45,4.69-5.94,7.18-7.47,2.49-1.53,4.89-2.3,7.18-2.3,3.26,0,6.27.91,9.05,2.73,2.78,1.82,5.79,2.73,9.05,2.73,2.49,0,5.17-1.34,8.05-4.02l8.05,5.79c-2.69,3.74-5.22,6.25-7.62,7.52-2.4,1.28-4.94,1.92-7.62,1.92-3.45,0-6.47-.91-9.05-2.73-2.59-1.82-5.22-2.73-7.9-2.73-1.54,0-3.02.29-4.45.86-1.44.57-3.02,1.63-4.74,3.16l-7.18-5.46Z"/><path class="cls-2" d="M499.53,245.65l2.87-54.31h-17.53l-12.36,54.31h-16.67l46.84-200.88h24.71l-9.2,200.88h-18.68ZM488.32,176.68h14.66l4.31-77.88h-.86l-18.1,77.88Z"/><path class="cls-2" d="M586.6,125.53l7.47-51.73c.76-5.17.53-8.86-.72-11.06-1.25-2.2-3.02-3.31-5.32-3.31h-1.44c-2.3,0-4.31,1.06-6.04,3.16-1.72,2.11-3.07,5.94-4.02,11.5l-3.45,25.58c-.96,6.13-.86,11.74.29,16.81,1.15,5.08,2.73,9.82,4.74,14.23,2.01,4.41,4.31,8.67,6.9,12.79,2.59,4.12,4.93,8.43,7.04,12.93,2.11,4.5,3.69,9.29,4.74,14.37,1.05,5.08,1.19,10.68.43,16.81l-4.31,31.61c-.77,4.98-2.16,9.25-4.17,12.79-2.01,3.55-4.41,6.47-7.18,8.76-2.78,2.3-5.75,3.98-8.91,5.03s-6.37,1.58-9.63,1.58h-4.31c-3.26,0-6.32-.53-9.2-1.58s-5.37-2.73-7.47-5.03c-2.11-2.3-3.69-5.22-4.74-8.76-1.05-3.54-1.19-7.8-.43-12.79l7.76-54.6h17.53l-7.47,51.73c-.77,5.37-.43,9.15,1.01,11.35,1.44,2.2,3.4,3.3,5.89,3.3h1.44c2.3,0,4.45-1.1,6.47-3.3,2.01-2.2,3.4-5.99,4.17-11.35l3.74-25.58c.76-6.13.62-11.68-.43-16.67-1.05-4.98-2.64-9.72-4.74-14.22-2.11-4.5-4.46-8.81-7.04-12.93-2.59-4.12-4.93-8.38-7.04-12.79-2.11-4.41-3.74-9.15-4.88-14.23-1.15-5.07-1.25-10.78-.29-17.1l4.6-31.61c.76-4.98,2.16-9.24,4.17-12.79,2.01-3.54,4.4-6.47,7.18-8.76,2.77-2.3,5.79-3.97,9.05-5.03,3.26-1.05,6.42-1.58,9.48-1.58h3.16c3.06,0,6.08.53,9.05,1.58,2.97,1.06,5.46,2.73,7.47,5.03s3.49,5.22,4.45,8.76c.96,3.55,1.05,7.81.29,12.79l-7.76,54.31h-17.53Z"/><path class="cls-1" d="M33,235.08c-3.07,0-6.04-.53-8.91-1.58-2.87-1.05-5.37-2.73-7.47-5.03-2.11-2.3-3.64-5.22-4.6-8.76-.96-3.54-1.05-7.8-.29-12.79L32.43,58.91c.76-4.98,2.16-9.24,4.17-12.79,2.01-3.54,4.4-6.47,7.18-8.76,2.77-2.3,5.75-3.97,8.91-5.03,3.16-1.05,6.37-1.58,9.63-1.58h4.89c3.06,0,6.04.53,8.91,1.58,2.87,1.06,5.36,2.73,7.47,5.03,2.11,2.3,3.69,5.22,4.74,8.76,1.05,3.55,1.19,7.81.43,12.79l-7.76,54.6h-19.54l7.47-52.02c.76-5.17.53-8.86-.72-11.06-1.25-2.2-2.92-3.31-5.03-3.31h-1.72c-2.11,0-4.07,1.06-5.89,3.16-1.82,2.11-3.12,5.94-3.88,11.5l-20.4,142.25c-.77,5.37-.53,9.15.72,11.35,1.24,2.2,2.92,3.3,5.03,3.3h1.72c2.11,0,4.07-1.1,5.89-3.3,1.82-2.2,3.11-5.99,3.88-11.35l7.47-52.02h19.54l-7.76,54.89c-.77,4.98-2.16,9.25-4.17,12.79-2.01,3.55-4.41,6.47-7.18,8.76-2.78,2.3-5.8,3.98-9.05,5.03-3.26,1.05-6.42,1.58-9.48,1.58h-4.89Z"/><path class="cls-1" d="M119.79,233.35l2.87-54.31h-17.53l-12.36,54.31h-16.67L122.95,32.47h24.71l-9.2,200.88h-18.68ZM108.58,164.38h14.66l4.31-77.88h-.86l-18.1,77.88Z"/><path class="cls-1" d="M260.6,32.47l-28.74,200.88h-16.09l20.12-141.39h-.29l-36.21,141.39h-14.37l4.6-141.39h-.29l-20.12,141.39h-16.09l28.45-200.88h25.29l-4.31,127.02h.29l32.76-127.02h25Z"/><path class="cls-1" d="M310.03,32.47c7.09,0,12.79,2.35,17.1,7.04,4.31,4.7,5.89,11.64,4.74,20.83l-9.48,65.81c-1.34,8.62-4.6,14.71-9.77,18.25-5.17,3.55-11.21,5.32-18.1,5.32h-12.36l-11.78,83.63h-19.25l28.45-200.88h30.46ZM311.75,63.22c.96-4.98.76-8.62-.57-10.92-1.34-2.3-3.16-3.45-5.46-3.45h-9.2l-12.07,84.78h10.63c4.6,0,7.47-4.5,8.62-13.51l8.05-56.9Z"/><path class="cls-1" d="M356.87,233.35l2.87-54.31h-17.53l-12.36,54.31h-16.67l46.84-200.88h24.71l-9.2,200.88h-18.68ZM345.66,164.38h14.66l4.31-77.88h-.86l-18.1,77.88Z"/><path class="cls-1" d="M432.74,233.35l-6.32-141.1h-.29l-19.83,141.1h-16.09l28.16-200.88h22.13l4.6,139.09h.29l19.83-139.09h17.82l-28.74,200.88h-21.55ZM430.15,9.77c2.3-3.45,4.69-5.94,7.18-7.47,2.49-1.53,4.89-2.3,7.18-2.3,3.26,0,6.27.91,9.05,2.73,2.78,1.82,5.79,2.73,9.05,2.73,2.49,0,5.17-1.34,8.05-4.02l8.05,5.79c-2.69,3.74-5.22,6.25-7.62,7.52-2.4,1.28-4.94,1.92-7.62,1.92-3.45,0-6.47-.91-9.05-2.73-2.59-1.82-5.22-2.73-7.9-2.73-1.54,0-3.02.29-4.45.86-1.44.57-3.02,1.63-4.74,3.16l-7.18-5.46Z"/><path class="cls-1" d="M509.75,233.35l2.87-54.31h-17.53l-12.36,54.31h-16.67l46.84-200.88h24.71l-9.2,200.88h-18.68ZM498.54,164.38h14.66l4.31-77.88h-.86l-18.1,77.88Z"/><path class="cls-1" d="M596.83,113.23l7.47-51.73c.76-5.17.53-8.86-.72-11.06-1.25-2.2-3.02-3.31-5.32-3.31h-1.44c-2.3,0-4.31,1.06-6.04,3.16-1.72,2.11-3.07,5.94-4.02,11.5l-3.45,25.58c-.96,6.13-.86,11.74.29,16.81,1.15,5.08,2.73,9.82,4.74,14.23,2.01,4.41,4.31,8.67,6.9,12.79,2.59,4.12,4.93,8.43,7.04,12.93,2.11,4.5,3.69,9.29,4.74,14.37,1.05,5.08,1.19,10.68.43,16.81l-4.31,31.61c-.77,4.98-2.16,9.25-4.17,12.79-2.01,3.55-4.41,6.47-7.18,8.76-2.78,2.3-5.75,3.98-8.91,5.03s-6.37,1.58-9.63,1.58h-4.31c-3.26,0-6.32-.53-9.2-1.58s-5.37-2.73-7.47-5.03c-2.11-2.3-3.69-5.22-4.74-8.76-1.05-3.54-1.19-7.8-.43-12.79l7.76-54.6h17.53l-7.47,51.73c-.77,5.37-.43,9.15,1.01,11.35,1.44,2.2,3.4,3.3,5.89,3.3h1.44c2.3,0,4.45-1.1,6.47-3.3,2.01-2.2,3.4-5.99,4.17-11.35l3.74-25.58c.76-6.13.62-11.68-.43-16.67-1.05-4.98-2.64-9.72-4.74-14.22-2.11-4.5-4.46-8.81-7.04-12.93-2.59-4.12-4.93-8.38-7.04-12.79-2.11-4.41-3.74-9.15-4.88-14.23-1.15-5.07-1.25-10.78-.29-17.1l4.6-31.61c.76-4.98,2.16-9.24,4.17-12.79,2.01-3.54,4.4-6.47,7.18-8.76,2.77-2.3,5.79-3.97,9.05-5.03,3.26-1.05,6.42-1.58,9.48-1.58h3.16c3.06,0,6.08.53,9.05,1.58,2.97,1.06,5.46,2.73,7.47,5.03s3.49,5.22,4.45,8.76c.96,3.55,1.05,7.81.29,12.79l-7.76,54.31h-17.53Z"/></g></svg>