<?xml version="1.0" encoding="UTF-8"?><svg id="Capa_2" xmlns="http://www.w3.org/2000/svg" viewBox="0 0 492.13 477.47"><defs><style>.cls-1{fill:#ff0;}</style></defs><g id="Layer_1"><path class="cls-1" d="M408.23,109.96s-39.82-9.63-106.74,13.27c-66.92,22.9-152.62,83.84-182.03,156.22-13.23,32.55-13.8,64.93.98,82.19,34.67,40.47,80.23,10.95,80.23,10.95-34.1,7.37-71.14-10.34-36.06-79.77,54.43-107.73,171.83-135.41,171.83-135.41,32.58-11,83.22-12.98,102.58,38.21,19.37,51.18-3.69,111.04-16.51,143.93-12.82,32.89-39.93,55.87-39.93,55.87l-.68-42.32c1.18-5.62-1.66-11.12-6.4-13.09-3.72-1.55-8.17-.73-11.47,2.04-16.68,13.62-40.22,30.85-70.52,47.15-17.74,9.55-44.61,23.81-81.62,33.84-40.56,10.99-99.02,26.84-150.53-1.93-19.02-10.62-31.63-24.28-39.05-33.69,54.75,99.92,124.47,88.8,182.68,82.38,58.22-6.42,131.36-50.88,131.36-50.88,0,0-5.71,31.07-.61,45.27,2.07,5.78,3.22,8.52,5.71,10.42,20.7,15.82,68.97-39.33,73.39-43.67,22.46-22.03,72.77-100.26,77.2-182.13,0,0,5.5-117.44-83.84-138.86Z"/><path class="cls-1" d="M332.61,174.91c.84-3.71,1.57-7.34,2.23-10.9-7.64,2.14-29.16,8.83-54.93,22.6-26.77,100.2-88.4,141.12-105.98,145.71-8.41,2.2-13.78,2.52-17.2,2.1-1.16,10.48.87,17.38,3.62,21.86,6.37,10.35,19.23,11.9,26.34,11.9,4.1,0,8.38-.48,12.73-1.42,2.7-.58,5.41.78,6.61,3.24,53.17-25.91,107.61-110.73,126.59-195.09Z"/><path class="cls-1" d="M27.01,383.73c10.62,13.46,23.16,24.29,37.28,32.17,18.73,10.46,39.64,15.55,63.9,15.55,12.07,0,23.99-1.29,35.45-3.23-40.55-3.15-81.41-25.19-103.26-73.65-29.21-64.79-.54-145.88,30.29-200.94,30.83-55.05,113.47-118.34,158.75-106.44,45.28,11.89,42.01,68.41,42.01,68.41-.12,1.71-.26,3.4-.39,5.09,2.87-1.09,5.72-2.12,8.53-3.09,14.22-4.87,27.25-8.28,38.93-10.65-3.99-55.28-30.71-79.63-30.71-79.63,0,0-86.37-87.69-216.92,51.13S8.81,355.43,8.81,355.43c3.01,9.97,6.58,18.87,10.62,26.81,2.54-1.42,5.75-.82,7.58,1.49Z"/></g></svg>