<?xml version="1.0" encoding="UTF-8"?><svg id="Capa_2" xmlns="http://www.w3.org/2000/svg" viewBox="0 0 589.47 217.63"><defs><style>.cls-1{fill:#191514;}.cls-2{fill:none;stroke:#ff0;stroke-miterlimit:10;stroke-width:2px;}</style></defs><g id="Capa_1-2"><path class="cls-2" d="M74.72,92.19c-.96,6.13-2.59,10.68-4.89,13.65-2.3,2.97-4.98,4.93-8.05,5.89,2.68.77,4.79,2.64,6.32,5.6,1.53,2.97,1.82,7.52.86,13.65l-8.05,57.19c-.57,4.6-1.87,8.62-3.88,12.07-2.01,3.45-4.41,6.23-7.18,8.33-2.78,2.11-5.8,3.69-9.05,4.74-3.26,1.05-6.42,1.58-9.48,1.58H1.15L29.6,14.02h30.46c3.06,0,6.08.53,9.05,1.58,2.97,1.06,5.51,2.73,7.62,5.03,2.11,2.3,3.64,5.22,4.6,8.77.96,3.55,1.05,7.81.29,12.79l-6.9,50ZM49.43,132.42c1.15-9-.48-13.51-4.89-13.51h-10.35l-11.5,79.6h9.2c2.3,0,4.36-1.05,6.18-3.16,1.82-2.11,3.11-5.46,3.88-10.06l7.47-52.88ZM46.56,104.55c4.6,0,7.57-4.5,8.91-13.51l6.32-45.98c.96-5.17.76-8.91-.57-11.21-1.34-2.3-3.07-3.45-5.17-3.45h-9.48l-10.63,74.14h10.63Z"/><path class="cls-2" d="M148,95.06c-.96,6.13-2.59,10.68-4.89,13.65-2.3,2.97-4.98,4.93-8.05,5.89,2.87.77,5.07,2.64,6.61,5.6,1.53,2.97,1.82,7.52.86,13.65l-6.61,46.84c-1.72,12.07-2.59,20.55-2.59,25.43s.19,7.81.57,8.76h-19.25c-.96-2.3-1.29-6.13-1.01-11.5.29-5.36,1.19-12.93,2.73-22.7l6.32-45.12c1.34-9.2-.29-13.79-4.89-13.79h-10.35l-13.22,93.11h-19.25L103.46,14.02h30.46c7.09,0,12.79,2.35,17.1,7.04,4.31,4.7,5.89,11.64,4.74,20.83l-7.76,53.16ZM120.12,107.42c4.6,0,7.47-4.5,8.62-13.51l6.9-49.14c.96-4.98.76-8.62-.57-10.92-1.34-2.3-3.16-3.45-5.46-3.45h-9.2l-10.92,77.02h10.63Z"/><path class="cls-2" d="M186.5,214.9l2.87-54.31h-17.53l-12.36,54.31h-16.67L189.67,14.02h24.71l-9.2,200.88h-18.68ZM175.3,145.93h14.66l4.31-77.88h-.86l-18.1,77.88Z"/><path class="cls-2" d="M262.37,214.9l-6.04-141.1h-.29l-20.12,141.1h-16.09L248.29,14.02h21.84l4.89,139.09h.29l19.83-139.09h17.53l-28.45,200.88h-21.84Z"/><path class="cls-2" d="M302.89,214.9l28.45-200.88h30.46c3.06,0,6.08.48,9.05,1.44,2.97.96,5.51,2.54,7.62,4.74,2.11,2.2,3.64,5.03,4.6,8.48.96,3.45,1.05,7.67.29,12.64l-20.4,146.28c-.77,4.98-2.16,9.2-4.17,12.64-2.01,3.45-4.41,6.28-7.18,8.48-2.78,2.21-5.8,3.79-9.05,4.74-3.26.96-6.42,1.44-9.48,1.44h-30.17ZM348.29,30.41l-23.85,168.12h9.48c2.11,0,4.07-1.01,5.89-3.02,1.82-2.01,3.11-5.6,3.88-10.78l20.12-140.53c.76-5.17.48-8.77-.86-10.78-1.34-2.01-3.07-3.02-5.17-3.02h-9.48Z"/><path class="cls-2" d="M425.31,14.02l-28.45,200.88h-19.25l28.45-200.88h19.25Z"/><path class="cls-2" d="M458.64,214.9l-6.04-141.1h-.29l-20.12,141.1h-16.09l28.45-200.88h21.84l4.89,139.09h.29l19.83-139.09h17.53l-28.45,200.88h-21.84Z"/><path class="cls-2" d="M523.01,216.63c-3.07,0-6.03-.53-8.91-1.58s-5.37-2.73-7.47-5.03c-2.11-2.3-3.64-5.22-4.6-8.77-.96-3.54-1.05-7.8-.29-12.79l20.69-148c.76-4.98,2.16-9.24,4.17-12.79,2.01-3.54,4.41-6.47,7.18-8.76,2.77-2.3,5.75-3.97,8.91-5.03,3.16-1.05,6.37-1.58,9.63-1.58h4.88c3.06,0,6.04.53,8.91,1.58,2.87,1.06,5.36,2.73,7.47,5.03,2.11,2.3,3.69,5.22,4.74,8.76,1.05,3.55,1.19,7.81.43,12.79l-7.76,54.6h-19.54l7.47-52.01c.76-5.17.53-8.86-.72-11.06-1.25-2.2-2.92-3.31-5.03-3.31h-1.72c-2.11,0-4.07,1.06-5.89,3.16-1.82,2.11-3.12,5.94-3.88,11.5l-20.4,142.25c-.77,5.37-.53,9.15.72,11.35,1.24,2.21,2.92,3.3,5.03,3.3h1.72c2.11,0,4.07-1.1,5.89-3.3,1.82-2.2,3.11-5.99,3.88-11.35l5.17-35.63h-8.91l2.59-16.38h28.16l-6.9,48.28c-.19.39-.29.96-.29,1.72l-4.6,31.32h-9.48l-1.44-6.61c-3.26,2.69-6.42,4.74-9.48,6.18-3.07,1.44-5.85,2.16-8.33,2.16h-2.01Z"/><path class="cls-1" d="M84.95,79.89c-.96,6.13-2.59,10.68-4.89,13.65-2.3,2.97-4.98,4.93-8.05,5.89,2.68.77,4.79,2.64,6.32,5.6,1.53,2.97,1.82,7.52.86,13.65l-8.05,57.19c-.57,4.6-1.87,8.62-3.88,12.07-2.01,3.45-4.41,6.23-7.18,8.33-2.78,2.11-5.8,3.69-9.05,4.74-3.26,1.05-6.42,1.58-9.48,1.58H11.38L39.83,1.72h30.46c3.06,0,6.08.53,9.05,1.58,2.97,1.06,5.51,2.73,7.62,5.03,2.11,2.3,3.64,5.22,4.6,8.77.96,3.55,1.05,7.81.29,12.79l-6.9,50ZM59.66,120.12c1.15-9-.48-13.51-4.89-13.51h-10.35l-11.5,79.6h9.2c2.3,0,4.36-1.05,6.18-3.16,1.82-2.11,3.11-5.46,3.88-10.06l7.47-52.88ZM56.78,92.25c4.6,0,7.57-4.5,8.91-13.51l6.32-45.98c.96-5.17.76-8.91-.57-11.21-1.34-2.3-3.07-3.45-5.17-3.45h-9.48l-10.63,74.14h10.63Z"/><path class="cls-1" d="M158.22,82.76c-.96,6.13-2.59,10.68-4.89,13.65-2.3,2.97-4.98,4.93-8.05,5.89,2.87.77,5.07,2.64,6.61,5.6,1.53,2.97,1.82,7.52.86,13.65l-6.61,46.84c-1.72,12.07-2.59,20.55-2.59,25.43s.19,7.81.57,8.76h-19.25c-.96-2.3-1.29-6.13-1.01-11.5.29-5.36,1.19-12.93,2.73-22.7l6.32-45.12c1.34-9.2-.29-13.79-4.89-13.79h-10.35l-13.22,93.11h-19.25L113.68,1.72h30.46c7.09,0,12.79,2.35,17.1,7.04,4.31,4.7,5.89,11.64,4.74,20.83l-7.76,53.16ZM130.35,95.12c4.6,0,7.47-4.5,8.62-13.51l6.9-49.14c.96-4.98.76-8.62-.57-10.92-1.34-2.3-3.16-3.45-5.46-3.45h-9.2l-10.92,77.02h10.63Z"/><path class="cls-1" d="M196.73,202.6l2.87-54.31h-17.53l-12.36,54.31h-16.67L199.89,1.72h24.71l-9.2,200.88h-18.68ZM185.52,133.63h14.66l4.31-77.88h-.86l-18.1,77.88Z"/><path class="cls-1" d="M272.6,202.6l-6.04-141.1h-.29l-20.12,141.1h-16.09L258.51,1.72h21.84l4.89,139.09h.29L305.36,1.72h17.53l-28.45,200.88h-21.84Z"/><path class="cls-1" d="M313.11,202.6L341.56,1.72h30.46c3.06,0,6.08.48,9.05,1.44,2.97.96,5.51,2.54,7.62,4.74,2.11,2.2,3.64,5.03,4.6,8.48.96,3.45,1.05,7.67.29,12.65l-20.4,146.27c-.77,4.98-2.16,9.2-4.17,12.64-2.01,3.45-4.41,6.28-7.18,8.48-2.78,2.21-5.8,3.79-9.05,4.74-3.26.96-6.42,1.44-9.48,1.44h-30.17ZM358.52,18.1l-23.85,168.12h9.48c2.11,0,4.07-1.01,5.89-3.02,1.82-2.01,3.11-5.6,3.88-10.78l20.12-140.53c.76-5.17.48-8.77-.86-10.78-1.34-2.01-3.07-3.02-5.17-3.02h-9.48Z"/><path class="cls-1" d="M435.54,1.72l-28.45,200.88h-19.25L416.28,1.72h19.25Z"/><path class="cls-1" d="M468.87,202.6l-6.04-141.1h-.29l-20.12,141.1h-16.09L454.79,1.72h21.84l4.89,139.09h.29L501.63,1.72h17.53l-28.45,200.88h-21.84Z"/><path class="cls-1" d="M533.24,204.33c-3.07,0-6.03-.53-8.91-1.58s-5.37-2.73-7.47-5.03c-2.11-2.3-3.64-5.22-4.6-8.77-.96-3.54-1.05-7.8-.29-12.79l20.69-148c.76-4.98,2.16-9.24,4.17-12.79,2.01-3.54,4.41-6.47,7.18-8.76,2.77-2.3,5.75-3.97,8.91-5.03,3.16-1.05,6.37-1.58,9.63-1.58h4.88c3.06,0,6.04.53,8.91,1.58,2.87,1.06,5.36,2.73,7.47,5.03,2.11,2.3,3.69,5.22,4.74,8.76,1.05,3.55,1.19,7.81.43,12.79l-7.76,54.6h-19.54l7.47-52.01c.76-5.17.53-8.86-.72-11.06-1.25-2.2-2.92-3.31-5.03-3.31h-1.72c-2.11,0-4.07,1.06-5.89,3.16-1.82,2.11-3.12,5.94-3.88,11.5l-20.4,142.25c-.77,5.37-.53,9.15.72,11.35,1.24,2.21,2.92,3.3,5.03,3.3h1.72c2.11,0,4.07-1.1,5.89-3.3,1.82-2.2,3.11-5.99,3.88-11.35l5.17-35.63h-8.91l2.59-16.38h28.16l-6.9,48.28c-.19.39-.29.96-.29,1.72l-4.6,31.32h-9.48l-1.44-6.61c-3.26,2.69-6.42,4.74-9.48,6.18-3.07,1.44-5.85,2.16-8.33,2.16h-2.01Z"/></g></svg>