<?xml version="1.0" encoding="UTF-8"?><svg id="Capa_2" xmlns="http://www.w3.org/2000/svg" viewBox="0 0 779.24 217.63"><defs><style>.cls-1{fill:#191514;}.cls-2{fill:none;stroke:#ff0;stroke-miterlimit:10;stroke-width:2px;}</style></defs><g id="Capa_1-2"><path class="cls-2" d="M46.56,30.41l-10.92,76.73h20.12l-2.3,14.66h-19.83l-10.92,76.73h27.01l-2.3,16.38H1.15L29.6,14.02h44.83l-2.3,16.38h-25.58Z"/><path class="cls-2" d="M139.38,107.71l-1.72,13.22h-59.77l1.72-13.22h59.77Z"/><path class="cls-2" d="M166.68,216.63c-3.07,0-6.04-.53-8.91-1.58-2.87-1.05-5.37-2.73-7.47-5.03-2.11-2.3-3.64-5.22-4.6-8.76-.96-3.54-1.05-7.8-.29-12.79l20.69-148c.76-4.98,2.16-9.24,4.17-12.79,2.01-3.54,4.4-6.47,7.18-8.76,2.77-2.3,5.75-3.97,8.91-5.03,3.16-1.05,6.37-1.58,9.63-1.58h4.89c3.06,0,6.04.53,8.91,1.58,2.87,1.06,5.36,2.73,7.47,5.03,2.11,2.3,3.69,5.22,4.74,8.76,1.05,3.55,1.19,7.81.43,12.79l-7.76,54.6h-19.54l7.47-52.02c.76-5.17.53-8.86-.72-11.06-1.25-2.2-2.92-3.31-5.03-3.31h-1.72c-2.11,0-4.07,1.06-5.89,3.16-1.82,2.11-3.12,5.94-3.88,11.5l-20.4,142.25c-.77,5.37-.53,9.15.72,11.35,1.24,2.2,2.92,3.3,5.03,3.3h1.72c2.11,0,4.07-1.1,5.89-3.3,1.82-2.2,3.11-5.99,3.88-11.35l7.47-52.02h19.54l-7.76,54.89c-.77,4.98-2.16,9.25-4.17,12.79-2.01,3.55-4.41,6.47-7.18,8.76-2.78,2.3-5.8,3.98-9.05,5.03-3.26,1.05-6.42,1.58-9.48,1.58h-4.89Z"/><path class="cls-2" d="M240.24,216.63c-3.07,0-6.04-.53-8.91-1.58-2.87-1.05-5.37-2.73-7.47-5.03-2.11-2.3-3.64-5.22-4.6-8.76-.96-3.54-1.05-7.8-.29-12.79l20.69-148c.76-4.98,2.16-9.24,4.17-12.79,2.01-3.54,4.4-6.47,7.18-8.76,2.77-2.3,5.75-3.97,8.91-5.03,3.16-1.05,6.37-1.58,9.63-1.58h4.89c3.06,0,6.04.53,8.91,1.58,2.87,1.06,5.36,2.73,7.47,5.03,2.11,2.3,3.69,5.22,4.74,8.76,1.05,3.55,1.19,7.81.43,12.79l-20.98,148c-.77,4.98-2.16,9.25-4.17,12.79-2.01,3.55-4.41,6.47-7.18,8.76-2.78,2.3-5.8,3.98-9.05,5.03-3.26,1.05-6.42,1.58-9.48,1.58h-4.89ZM268.7,28.68c-2.11,0-4.07,1.15-5.89,3.45-1.82,2.3-3.12,6.04-3.88,11.21l-20.4,142.25c-.77,5.37-.53,9.15.72,11.35,1.24,2.2,2.92,3.3,5.03,3.3h1.72c2.11,0,4.07-1.1,5.89-3.3,1.82-2.2,3.11-5.99,3.88-11.35l20.4-142.25c.76-5.17.53-8.91-.72-11.21-1.25-2.3-2.92-3.45-5.03-3.45h-1.72Z"/><path class="cls-2" d="M396.87,14.02l-28.74,200.88h-16.09l20.12-141.39h-.29l-36.21,141.39h-14.37l4.6-141.39h-.29l-20.12,141.39h-16.09l28.45-200.88h25.29l-4.31,127.02h.29l32.76-127.02h25Z"/><path class="cls-2" d="M494.28,14.02l-28.74,200.88h-16.09l20.12-141.39h-.29l-36.21,141.39h-14.37l4.6-141.39h-.29l-20.12,141.39h-16.09l28.45-200.88h25.29l-4.31,127.02h.29l32.76-127.02h25Z"/><path class="cls-2" d="M530.2,30.41l-10.92,76.73h20.12l-2.3,14.66h-19.83l-10.92,76.73h27.01l-2.3,16.38h-46.27l28.45-200.88h44.83l-2.3,16.38h-25.58Z"/><path class="cls-2" d="M620.73,95.07c-.96,6.13-2.59,10.68-4.88,13.65-2.3,2.97-4.98,4.93-8.05,5.89,2.87.77,5.07,2.64,6.61,5.6,1.53,2.97,1.82,7.52.86,13.65l-6.61,46.84c-1.72,12.07-2.59,20.55-2.59,25.43s.19,7.81.58,8.77h-19.25c-.96-2.3-1.29-6.13-1.01-11.5.29-5.36,1.19-12.93,2.73-22.7l6.32-45.12c1.34-9.2-.29-13.79-4.88-13.79h-10.35l-13.22,93.11h-19.25l28.45-200.88h30.46c7.09,0,12.79,2.35,17.1,7.04,4.31,4.7,5.89,11.64,4.74,20.83l-7.76,53.17ZM592.85,107.42c4.6,0,7.47-4.5,8.62-13.51l6.9-49.14c.96-4.98.76-8.62-.58-10.92-1.34-2.3-3.16-3.45-5.46-3.45h-9.2l-10.92,77.02h10.63Z"/><path class="cls-2" d="M646.01,216.63c-3.07,0-6.03-.53-8.91-1.58s-5.37-2.73-7.47-5.03c-2.11-2.3-3.64-5.22-4.6-8.76-.96-3.54-1.05-7.8-.29-12.79l20.69-148c.76-4.98,2.16-9.24,4.17-12.79,2.01-3.54,4.41-6.47,7.18-8.76,2.77-2.3,5.75-3.97,8.91-5.03,3.16-1.05,6.37-1.58,9.63-1.58h4.88c3.06,0,6.04.53,8.91,1.58,2.87,1.06,5.36,2.73,7.47,5.03,2.11,2.3,3.69,5.22,4.74,8.76,1.05,3.55,1.19,7.81.43,12.79l-7.76,54.6h-19.54l7.47-52.02c.76-5.17.53-8.86-.72-11.06-1.25-2.2-2.92-3.31-5.03-3.31h-1.72c-2.11,0-4.07,1.06-5.89,3.16-1.82,2.11-3.12,5.94-3.88,11.5l-20.4,142.25c-.77,5.37-.53,9.15.72,11.35,1.24,2.2,2.92,3.3,5.03,3.3h1.72c2.11,0,4.07-1.1,5.89-3.3,1.82-2.2,3.11-5.99,3.88-11.35l7.47-52.02h19.54l-7.76,54.89c-.77,4.98-2.16,9.25-4.17,12.79-2.01,3.55-4.41,6.47-7.18,8.76-2.78,2.3-5.8,3.98-9.05,5.03-3.26,1.05-6.42,1.58-9.48,1.58h-4.89Z"/><path class="cls-2" d="M741.13,30.41l-10.92,76.73h20.12l-2.3,14.66h-19.83l-10.92,76.73h27.01l-2.3,16.38h-46.27l28.45-200.88h44.83l-2.3,16.38h-25.58Z"/><path class="cls-1" d="M56.78,18.1l-10.92,76.73h20.12l-2.3,14.66h-19.83l-10.92,76.73h27.01l-2.3,16.38H11.38L39.83,1.72h44.83l-2.3,16.38h-25.58Z"/><path class="cls-1" d="M149.6,95.41l-1.72,13.22h-59.77l1.72-13.22h59.77Z"/><path class="cls-1" d="M176.9,204.33c-3.07,0-6.04-.53-8.91-1.58-2.87-1.05-5.37-2.73-7.47-5.03-2.11-2.3-3.64-5.22-4.6-8.76-.96-3.54-1.05-7.8-.29-12.79l20.69-148c.76-4.98,2.16-9.24,4.17-12.79,2.01-3.54,4.4-6.47,7.18-8.76,2.77-2.3,5.75-3.97,8.91-5.03,3.16-1.05,6.37-1.58,9.63-1.58h4.89c3.06,0,6.04.53,8.91,1.58,2.87,1.06,5.36,2.73,7.47,5.03,2.11,2.3,3.69,5.22,4.74,8.76,1.05,3.55,1.19,7.81.43,12.79l-7.76,54.6h-19.54l7.47-52.02c.76-5.17.53-8.86-.72-11.06-1.25-2.2-2.92-3.31-5.03-3.31h-1.72c-2.11,0-4.07,1.06-5.89,3.16-1.82,2.11-3.12,5.94-3.88,11.5l-20.4,142.25c-.77,5.37-.53,9.15.72,11.35,1.24,2.2,2.92,3.3,5.03,3.3h1.72c2.11,0,4.07-1.1,5.89-3.3,1.82-2.2,3.11-5.99,3.88-11.35l7.47-52.02h19.54l-7.76,54.89c-.77,4.98-2.16,9.25-4.17,12.79-2.01,3.55-4.41,6.47-7.18,8.76-2.78,2.3-5.8,3.98-9.05,5.03-3.26,1.05-6.42,1.58-9.48,1.58h-4.89Z"/><path class="cls-1" d="M250.47,204.33c-3.07,0-6.04-.53-8.91-1.58-2.87-1.05-5.37-2.73-7.47-5.03-2.11-2.3-3.64-5.22-4.6-8.76-.96-3.54-1.05-7.8-.29-12.79l20.69-148c.76-4.98,2.16-9.24,4.17-12.79,2.01-3.54,4.4-6.47,7.18-8.76,2.77-2.3,5.75-3.97,8.91-5.03,3.16-1.05,6.37-1.58,9.63-1.58h4.89c3.06,0,6.04.53,8.91,1.58,2.87,1.06,5.36,2.73,7.47,5.03,2.11,2.3,3.69,5.22,4.74,8.76,1.05,3.55,1.19,7.81.43,12.79l-20.98,148c-.77,4.98-2.16,9.25-4.17,12.79-2.01,3.55-4.41,6.47-7.18,8.76-2.78,2.3-5.8,3.98-9.05,5.03-3.26,1.05-6.42,1.58-9.48,1.58h-4.89ZM278.92,16.38c-2.11,0-4.07,1.15-5.89,3.45-1.82,2.3-3.12,6.04-3.88,11.21l-20.4,142.25c-.77,5.37-.53,9.15.72,11.35,1.24,2.2,2.92,3.3,5.03,3.3h1.72c2.11,0,4.07-1.1,5.89-3.3,1.82-2.2,3.11-5.99,3.88-11.35l20.4-142.25c.76-5.17.53-8.91-.72-11.21-1.25-2.3-2.92-3.45-5.03-3.45h-1.72Z"/><path class="cls-1" d="M407.09,1.72l-28.74,200.88h-16.09l20.12-141.39h-.29l-36.21,141.39h-14.37l4.6-141.39h-.29l-20.12,141.39h-16.09L328.06,1.72h25.29l-4.31,127.02h.29L382.09,1.72h25Z"/><path class="cls-1" d="M504.51,1.72l-28.74,200.88h-16.09l20.12-141.39h-.29l-36.21,141.39h-14.37l4.6-141.39h-.29l-20.12,141.39h-16.09L425.48,1.72h25.29l-4.31,127.02h.29L479.51,1.72h25Z"/><path class="cls-1" d="M540.43,18.1l-10.92,76.73h20.12l-2.3,14.66h-19.83l-10.92,76.73h27.01l-2.3,16.38h-46.27L523.47,1.72h44.83l-2.3,16.38h-25.58Z"/><path class="cls-1" d="M630.95,82.76c-.96,6.13-2.59,10.68-4.88,13.65-2.3,2.97-4.98,4.93-8.05,5.89,2.87.77,5.07,2.64,6.61,5.6,1.53,2.97,1.82,7.52.86,13.65l-6.61,46.84c-1.72,12.07-2.59,20.55-2.59,25.43s.19,7.81.58,8.77h-19.25c-.96-2.3-1.29-6.13-1.01-11.5.29-5.36,1.19-12.93,2.73-22.7l6.32-45.12c1.34-9.2-.29-13.79-4.88-13.79h-10.35l-13.22,93.11h-19.25L586.41,1.72h30.46c7.09,0,12.79,2.35,17.1,7.04,4.31,4.7,5.89,11.64,4.74,20.83l-7.76,53.17ZM603.08,95.12c4.6,0,7.47-4.5,8.62-13.51l6.9-49.14c.96-4.98.76-8.62-.58-10.92-1.34-2.3-3.16-3.45-5.46-3.45h-9.2l-10.92,77.02h10.63Z"/><path class="cls-1" d="M656.24,204.33c-3.07,0-6.03-.53-8.91-1.58s-5.37-2.73-7.47-5.03c-2.11-2.3-3.64-5.22-4.6-8.76-.96-3.54-1.05-7.8-.29-12.79l20.69-148c.76-4.98,2.16-9.24,4.17-12.79,2.01-3.54,4.41-6.47,7.18-8.76,2.77-2.3,5.75-3.97,8.91-5.03,3.16-1.05,6.37-1.58,9.63-1.58h4.88c3.06,0,6.04.53,8.91,1.58,2.87,1.06,5.36,2.73,7.47,5.03,2.11,2.3,3.69,5.22,4.74,8.76,1.05,3.55,1.19,7.81.43,12.79l-7.76,54.6h-19.54l7.47-52.02c.76-5.17.53-8.86-.72-11.06-1.25-2.2-2.92-3.31-5.03-3.31h-1.72c-2.11,0-4.07,1.06-5.89,3.16-1.82,2.11-3.12,5.94-3.88,11.5l-20.4,142.25c-.77,5.37-.53,9.15.72,11.35,1.24,2.2,2.92,3.3,5.03,3.3h1.72c2.11,0,4.07-1.1,5.89-3.3,1.82-2.2,3.11-5.99,3.88-11.35l7.47-52.02h19.54l-7.76,54.89c-.77,4.98-2.16,9.25-4.17,12.79-2.01,3.55-4.41,6.47-7.18,8.76-2.78,2.3-5.8,3.98-9.05,5.03-3.26,1.05-6.42,1.58-9.48,1.58h-4.89Z"/><path class="cls-1" d="M751.36,18.1l-10.92,76.73h20.12l-2.3,14.66h-19.83l-10.92,76.73h27.01l-2.3,16.38h-46.27L734.4,1.72h44.83l-2.3,16.38h-25.58Z"/></g></svg>