<?xml version="1.0" encoding="UTF-8"?>
<svg id="b" data-name="Layer 2" xmlns="http://www.w3.org/2000/svg" viewBox="0 0 224.221 217.539">
  <g id="c" data-name="Layer 1">
    <path d="M185.994,50.101s-11.524-2.776-31.62,1.367c-1.092-27.126-14.146-39.02-14.146-39.02,0,0-39.353-39.952-98.831,23.296C-18.08,98.992,4.015,161.94,4.015,161.94c1.934,6.402,4.376,11.838,7.202,16.441,24.781,43.516,56.032,38.551,82.188,35.666,26.525-2.926,59.851-23.179,59.851-23.179,0,0-2.599,14.155-.278,20.628.945,2.635,1.469,3.881,2.604,4.749,9.433,7.21,31.421-17.919,33.438-19.897,10.232-10.036,33.154-45.68,35.172-82.979,0,0,2.507-53.508-38.196-63.266ZM192.508,154.702c-5.842,14.984-18.19,25.455-18.19,25.455l-.311-19.279c.539-2.56-.756-5.067-2.918-5.965-1.697-.705-3.724-.333-5.224.929-7.6,6.208-18.326,14.054-32.129,21.483-8.082,4.35-20.325,10.848-37.187,15.418-1.274.345-2.591.701-3.939,1.061-23.201,5.205-51.839-2.842-65.101-32.261-13.309-29.52-.246-66.466,13.799-91.549,14.045-25.082,51.699-53.915,72.329-48.497,20.629,5.418,19.14,31.169,19.14,31.169-.125,1.81-.278,3.583-.448,5.335-29.616,11.614-65.226,38.136-77.899,69.32-6.026,14.829-6.288,29.582.449,37.445,15.796,18.438,36.555,4.991,36.555,4.991-.142.031-.283.058-.425.087,25.108-10.029,51.548-50.202,60.536-90.154.614-2.73,1.115-5.366,1.523-7.916.144-.036.227-.056.227-.056,14.845-5.011,37.916-5.914,46.739,17.407,8.823,23.32-1.682,50.592-7.524,65.576ZM128.408,81.495l-1.401,5.423c-12.458,44.271-39.867,62.428-47.762,64.489-8.03,2.096-9.979.446-10.412-.179.671-4.852,2.598-10.743,6.17-17.815,13.671-27.06,36.062-43.031,53.404-51.919Z" style="fill: #ff0;"/>
  </g>
</svg>