<?xml version="1.0" encoding="UTF-8"?>
<svg id="b" data-name="Layer 2" xmlns="http://www.w3.org/2000/svg" viewBox="0 0 1040.4 471.45">
  <g id="c" data-name="Layer 1">
    <path d="M1039.17,471.45h1.23c-5.08-52.49-18-103.51-38.61-152.23-11.76-27.79-25.79-54.3-41.98-79.42-2.99-8.86-8.99-17.52-17.82-25.88-15.75-21.45-33.15-41.78-52.21-60.84-48-48-103.9-85.68-166.14-112.01-12.93-5.47-26.02-10.39-39.26-14.77-5.25-2.16-10.94-4.22-17.05-6.18-24.12-7.73-53.14-13.31-84.81-16.46-18.86-2.23-37.91-3.45-57.12-3.63-.86-.02-1.72-.03-2.58-.03-.29,0-.58,0-.87.01-.59-.01-1.17-.01-1.75-.01h-1.61c-.16,0-.31.01-.47.01-23.65.09-47.06,1.73-70.16,4.91-27.21,3.28-52.16,8.41-73.34,15.2-3.21,1.03-6.28,2.09-9.25,3.17-16.44,5.1-32.65,11.03-48.62,17.78-62.24,26.33-118.13,64.01-166.13,112.01-48.01,48-85.69,103.9-112.02,166.14C17.99,367.95,5.07,418.97,0,471.45h1.22c5.07-52.33,17.95-103.19,38.5-151.76,26.26-62.1,63.86-117.86,111.75-165.75,47.89-47.89,103.66-85.49,165.75-111.76,10.84-4.58,21.8-8.78,32.86-12.6-23.67,11.05-36.42,24.17-36.42,37.96,0,1.9.25,3.78.73,5.64-28.74,22.15-55.26,48.88-79.21,79.96-.53.69-1.05,1.4-1.58,2.1-7.08,1.84-14.01,3.74-20.73,5.73-83.09,24.51-128.84,57.2-128.84,92.04,0,24.35,22.37,47.65,64.2,67.84-9.34,28.93-16.63,58.97-21.79,89.81-52.97,17.68-90.92,38.4-111.93,60.79h1.72c21.42-22.25,59.49-42.47,109.98-59.41-3.22,19.51-5.6,39.34-7.09,59.41h1.21c1.51-20.22,3.91-40.19,7.18-59.84,41.72-13.89,91.82-25.56,147.95-34.29-4.33,30.55-7.3,62.03-8.83,94.13h1.22c1.56-32.4,4.58-63.94,8.93-94.34,17.39-2.69,35.36-5.09,53.83-7.2,24.24,3.49,49.52,6.32,75.6,8.44-1.92,30.22-3.24,61.36-3.93,93.1h1.22c.69-31.93,2.02-63.02,3.94-93.01,37.21,2.98,76,4.52,115.59,4.52,36.47,0,72.26-1.3,106.75-3.84,1.9,29.78,3.22,60.64,3.9,92.33h1.22c-.68-31.5-1.99-62.4-3.89-92.42,27.92-2.07,54.98-4.96,80.87-8.61,19.66,2.31,38.74,4.96,57.15,7.92,4.26,30.02,7.22,61.15,8.76,93.11h1.2c-1.49-31.67-4.4-62.73-8.63-92.89,54.09,8.77,102.37,20.28,142.65,33.88,3.2,19.38,5.56,39.08,7.05,59.01h1.21c-1.47-19.79-3.81-39.33-6.96-58.57,49.25,16.77,86.42,36.68,107.49,58.57h1.72c-20.68-22.03-57.77-42.45-109.43-59.95-5.04-30.3-12.11-59.85-21.17-88.33,44.99-20.72,69.12-44.87,69.12-70.16,0-3.08-.38-6.13-1.09-9.17,15.24,24.06,28.52,49.37,39.72,75.85,20.54,48.57,33.43,99.43,38.5,151.76ZM956.22,234.33c-2.98-4.5-6-8.96-9.12-13.37,3.82,4.37,6.87,8.84,9.12,13.37ZM723.17,42.18c62.09,26.27,117.86,63.87,165.75,111.76,17.63,17.63,33.85,36.33,48.64,56.02-21.52-18.26-56.81-34.96-104.36-48.99-8.94-2.64-18.21-5.14-27.76-7.52-.08-.1-.15-.21-.23-.31-23.6-30.61-49.68-57.01-77.91-78.96.66-2.19.99-4.41.99-6.64,0-12.96-11.25-25.33-32.25-35.94,9.11,3.27,18.16,6.79,27.13,10.58ZM680.99,110.14c25.5-9.93,41.31-21.91,45.9-34.75,27.74,21.62,53.39,47.56,76.65,77.59-33.19-8.18-69.86-14.78-108.96-19.68-4.42-8.06-8.95-15.79-13.59-23.16ZM692.94,133.09c-23.36-2.89-47.57-5.18-72.43-6.84,16.98-2.99,32.74-6.77,46.82-11.29,4.33-1.38,8.44-2.83,12.34-4.32,4.55,7.19,8.98,14.67,13.27,22.45ZM804.74,154.54c37.63,48.98,66.84,105.95,86.69,167.96-32.28,14.75-74.52,27.44-123.9,37.26-12.38-77.01-33.59-147.57-62.58-206.52-3.14-6.38-6.35-12.57-9.62-18.58,39.86,5.04,76.68,11.77,109.41,19.88ZM583.15,4.95c34.45,4.13,68.22,11.67,101.09,22.58,26.85,11.08,42.84,24.96,42.84,40.01,0,1.97-.29,3.92-.82,5.84-15.74-12.15-32.13-22.94-49.15-32.28-34.99-19.21-71.52-31.73-109.07-37.47,5.11.38,10.15.82,15.11,1.32ZM548.65,2.49c44.17,3.99,87.07,17.28,127.88,39.67,17.1,9.38,33.56,20.23,49.35,32.46-4.4,13.01-20.77,24.89-45.54,34.5-38.28-60.36-83.82-97.14-132.24-106.65.18.01.36.01.55.02ZM538.04,2.13c52.87,6.33,101.49,45.45,140.99,107.49-17.59,6.69-39.27,12.26-63.82,16.29-6.87-.43-13.77-.81-20.73-1.15-18.51-70.88-41.28-113.47-65.64-122.81,3.08.04,6.15.1,9.2.18ZM442.7,129.5c24.52,3.21,50.99,4.9,78.27,4.9,25.58,0,50.45-1.48,73.66-4.31,15.55,61.32,27.44,141.08,33.98,231.65-35.64-2.23-72.32-3.38-109.6-3.38-37.58,0-74.54,1.17-110.44,3.43,6.55-90.87,18.5-170.87,34.13-232.29ZM441.82,128.15c-2.8-.37-5.56-.77-8.3-1.17,2.9-.18,5.81-.35,8.73-.51-.15.55-.29,1.12-.43,1.68ZM443,128.3c.17-.63.33-1.27.49-1.9,25.8-1.4,52.39-2.13,79.54-2.13,24.01,0,47.57.57,70.53,1.67.26.98.51,1.96.77,2.95-22.81,2.77-47.53,4.3-73.36,4.3-27.58,0-53.9-1.74-77.97-4.89ZM594.81,126c4.96.24,9.9.51,14.8.8-4.61.7-9.31,1.35-14.1,1.94-.23-.92-.47-1.83-.7-2.74ZM520.97,1.9c1.23,0,2.45.01,3.67.01,26.07,6.09,49.88,51.29,68.61,122.8-23.01-1.09-46.47-1.65-70.22-1.65-26.86,0-53.34.71-79.21,2.1,18.69-71.61,42.48-116.93,68.54-123.2,2.86-.04,5.73-.06,8.61-.06ZM442.57,125.23c-4.92.26-9.82.55-14.69.87-23.64-3.83-44.66-9.07-61.98-15.37C405.64,47.88,454.68,8.28,508.04,2.07c-24.3,9.6-47.01,52.28-65.47,123.16ZM422.6,126.46c-23.98,1.64-47.36,3.88-69.94,6.69,4.09-7.4,8.29-14.53,12.6-21.4,3,1.1,6.12,2.17,9.36,3.21,14.41,4.62,30.56,8.47,47.98,11.5ZM498.49,2.29c-49.08,9.27-95.23,46.53-133.91,107.96-27.05-10.04-44.76-22.69-48.81-36.6,15.41-11.83,31.45-22.36,48.09-31.49,40.31-22.12,82.66-35.37,126.27-39.53,2.77-.13,5.56-.24,8.36-.34ZM365.03,24.67c26.9-8.39,54.38-14.54,82.32-18.44,7.59-.93,15.39-1.71,23.38-2.35-36.98,5.84-72.97,18.29-107.46,37.22-16.55,9.08-32.5,19.54-47.84,31.29-.37-1.6-.56-3.22-.56-4.85,0-16.37,18.92-31.36,50.16-42.87ZM236.14,153.88c23.78-30.86,50.1-57.41,78.6-79.44,4.29,13.69,21.31,26.45,49.2,36.84-4.4,7.04-8.71,14.41-12.92,22.08-41.7,5.24-80.65,12.42-115.53,21.38.22-.28.43-.58.65-.86ZM234.31,156.31c34.33-8.87,73.41-16.2,115.96-21.59-3.25,5.99-6.45,12.16-9.58,18.52-28.99,58.93-50.19,129.46-62.57,206.43-51.75-10.31-95.63-23.78-128.4-39.47,19.59-60.38,48.08-115.91,84.59-163.89ZM85.24,253.01c0-38.22,56.94-72.61,147.18-96.21-36.11,47.76-64.34,102.94-83.8,162.87-40.21-19.46-63.38-42.28-63.38-66.66ZM275.65,376c-46.1,7.16-88.78,16.41-126.67,27.58-7.33,2.17-14.41,4.38-21.25,6.65,5.14-30.51,12.37-60.22,21.6-88.86,17.79,8.5,39.03,16.45,63.54,23.68,20.16,5.95,41.95,11.25,65.05,15.86-.8,5-1.55,10.03-2.27,15.09ZM276.97,375.79c.71-4.9,1.45-9.78,2.23-14.62,14.98,2.96,30.51,5.65,46.52,8.03-16.62,1.95-32.88,4.15-48.75,6.59ZM406.29,377.1c-24.49-1.99-48.11-4.6-70.69-7.75,23.15-2.57,47.07-4.66,71.64-6.24-.33,4.64-.65,9.31-.95,13.99ZM407.32,361.87c-26.22,1.68-51.87,3.93-76.76,6.76-17.76-2.57-34.85-5.48-51.16-8.7,14.18-87.66,39.49-165.12,72.52-225.42,24.27-3.04,49.65-5.46,75.92-7.17,4.48.72,9.04,1.39,13.67,2.01-1.95,7.69-3.86,15.7-5.72,24.03-13.24,59.45-22.88,130.72-28.47,208.49ZM523.03,381.75c-39.97,0-78.7-1.58-115.51-4.55.3-4.75.63-9.47.96-14.17,35.64-2.27,72.62-3.46,110.53-3.46,37.61,0,74.31,1.18,109.68,3.41.36,4.94.69,9.91,1.01,14.91-34.15,2.52-69.89,3.86-106.67,3.86ZM630.93,377.79c-.31-4.93-.64-9.85-.99-14.73,26.44,1.68,52.13,3.96,76.92,6.78-24.2,3.31-49.59,5.98-75.93,7.95ZM711.87,369.15c-26.53-3.1-53.94-5.55-82.02-7.33-5.58-77.76-15.23-149-28.46-208.44-1.81-8.12-3.67-15.93-5.57-23.44,6.63-.82,13.11-1.75,19.44-2.8,27.16,1.72,53.39,4.18,78.43,7.31,33.05,60.33,58.38,137.84,72.56,225.56-17.3,3.41-35.46,6.47-54.38,9.14ZM716.74,369.72c17.13-2.49,33.74-5.31,49.71-8.47.84,5.22,1.63,10.48,2.39,15.77-16.92-2.72-34.3-5.16-52.1-7.3ZM912.79,411.06c-7.61-2.55-15.52-5.05-23.75-7.48-35.74-10.54-75.76-19.37-118.87-26.34-.77-5.45-1.58-10.87-2.44-16.25,23.26-4.63,45.18-9.95,65.47-15.94,22.28-6.57,41.85-13.74,58.6-21.37,8.96,28.18,15.98,57.41,20.99,87.38ZM892.54,321.99c-19.74-61.59-48.69-118.2-85.93-166.99,62.27,15.61,109.55,36.24,134.48,59.75,6.13,8.35,12.01,16.88,17.62,25.58,1.4,4.17,2.12,8.4,2.12,12.68,0,25.36-25.07,49.03-68.29,68.98Z" style="fill: #fff;"/>
  </g>
</svg>