<?xml version="1.0" encoding="UTF-8"?>
<svg id="b" data-name="Layer 2" xmlns="http://www.w3.org/2000/svg" viewBox="0 0 451.67 451.67">
  <g id="c" data-name="Layer 1">
    <g>
      <circle cx="225.835" cy="225.835" r="225.835" style="fill: #ff0;"/>
      <g>
        <path d="M139.071,195.42c-.8,8.301-8.5,14.351-18.401,14.351-11.351,0-19.551-8.05-19.551-19.151s8.2-19.15,19.501-19.15c9.751,0,17.451,6.1,18.351,14.551l-10.05,1.05c-.75-3.7-4.101-6.4-7.951-6.4-5.35,0-9,4.05-9,9.95s3.7,9.951,8.951,9.951c3.85,0,7.2-2.65,8.05-6.301l10.101,1.15Z" style="fill: #191514;"/>
        <path d="M159.62,196.869v-14.15h9.651v25.802h-9.651v-6.15c-1.25,4.351-4.25,7.15-8.101,7.15-5.05,0-8.65-4.3-8.65-10.301v-16.501h9.651v14.301c0,2.4,1.3,4.101,3.4,4.101s3.7-1.75,3.7-4.251Z" style="fill: #191514;"/>
        <path d="M173.468,200.07h7.8c0,2,1.95,3.449,4.65,3.449,2.1,0,3.65-1.049,3.65-2.399,0-1.601-1.85-2.2-5.4-2.45-5.55-.45-10.551-1.5-10.551-7.951.05-5.35,5.05-9.199,11.801-9.199,7.15,0,12.301,3.8,12.351,9.05l-8.15-.05c-.05-1.6-1.8-2.801-4.15-2.801-1.9,0-3.351.951-3.351,2.201,0,1.549,2.6,1.899,4.3,2.199,5.55.551,12.401,1.601,12.401,7.801,0,5.7-5.3,9.801-13.101,9.801-7.101,0-12.251-4.051-12.251-9.65Z" style="fill: #191514;"/>
        <path d="M216.419,199.42h1.9v4.35c0,3.4-2.85,5.751-6.8,5.751-4.95,0-8.101-2.75-8.101-6.95v-12.701h-3.3v-7.15h3.7l.95-6.75h8.25v6.75h5.4v7.15h-5.4v13.852c0,1.25.7,2.05,1.7,2.05s1.7-.8,1.7-2.05v-4.301Z" style="fill: #191514;"/>
        <path d="M236.119,209.52c-8.75,0-14.651-5.601-14.651-13.901s5.9-13.9,14.651-13.9c8.701,0,14.601,5.601,14.601,13.9s-5.9,13.901-14.601,13.901ZM236.119,190.119c-2.95,0-5,2.25-5,5.5s2.05,5.501,5,5.501,5-2.25,5-5.501-2.05-5.5-5-5.5Z" style="fill: #191514;"/>
        <path d="M297.67,191.67v16.851h-9.65v-14.301c0-2.25-1.3-4.001-3.55-4.101-2.2,0-3.601,1.7-3.601,4.101v14.301h-9.601v-14.301c0-2.45-1.35-4.101-3.35-4.101-2.1,0-3.4,1.65-3.4,4.101v14.301h-9.651v-25.802h9.601v6.25c1.35-4.4,4.351-7.25,8.101-7.25,4,0,7.2,3.1,8,7.601,1.4-4.601,4.75-7.601,8.75-7.601,4.85,0,8.351,4.2,8.351,9.951Z" style="fill: #191514;"/>
        <path d="M329.118,200.82c-1.15,5.05-6.7,8.7-13.4,8.7-8.5,0-14.401-5.65-14.401-14.001,0-8.2,6.05-13.801,14.601-13.801s14.151,5.601,14.151,13.9c0,.75-.05,2.101-.1,2.601h-18.751c.65,2.7,2.4,4.351,5,4.351,2.2,0,3.8-1.2,4.4-2.851l8.5,1.101ZM320.368,193.17c-.15-2.451-2.05-4.551-4.65-4.551-2.45,0-4.05,1.801-4.55,4.551h9.2Z" style="fill: #191514;"/>
        <path d="M353.167,182.318v8.551c-1.55-.65-3.35-1.05-4.55-1.05-2.85,0-4.75,2.2-4.75,5.4v13.301h-9.651v-25.802h9.601v6.4c1.15-4.5,3.6-7.4,6.601-7.4.8,0,1.8.25,2.75.6Z" style="fill: #191514;"/>
        <path d="M109.077,238.476h-2.59v-6.021c0-1.75-1.05-2.869-2.45-2.869-1.33,0-2.38,1.119-2.38,2.869v9.941h7.491v10.012h-7.491v26.112h-13.441v-26.112h-4.62v-10.012h4.62v-8.33c0-5.881,4.411-9.731,11.341-9.731,5.601,0,9.521,3.29,9.521,8.051v6.091Z" style="fill: #191514;"/>
        <path d="M131.827,279.921c-12.251,0-20.512-7.841-20.512-19.462s8.261-19.463,20.512-19.463c12.181,0,20.442,7.842,20.442,19.463s-8.261,19.462-20.442,19.462ZM131.827,252.758c-4.13,0-7,3.15-7,7.701s2.87,7.7,7,7.7,7-3.149,7-7.7-2.87-7.701-7-7.701Z" style="fill: #191514;"/>
        <path d="M183.557,257.518c-.7-3.081-3.431-5.321-6.581-5.321-3.92,0-6.861,3.431-6.861,8.262,0,4.76,2.87,8.261,6.861,8.261,3.15,0,5.88-2.24,6.581-5.321l12.391,1.471c-1.12,8.751-9.311,15.052-19.112,15.052-11.551,0-20.232-8.19-20.232-19.462s8.541-19.463,20.232-19.463c9.871,0,18.062,6.23,19.112,14.912l-12.391,1.61Z" style="fill: #191514;"/>
        <path d="M224.296,262.209v-19.812h13.512v36.124h-13.512v-8.61c-1.75,6.09-5.951,10.011-11.341,10.011-7.071,0-12.111-6.021-12.111-14.422v-23.103h13.511v20.022c0,3.36,1.82,5.74,4.76,5.74s5.181-2.45,5.181-5.95Z" style="fill: #191514;"/>
        <path d="M243.682,266.689h10.921c0,2.801,2.73,4.83,6.511,4.83,2.94,0,5.111-1.47,5.111-3.36,0-2.24-2.59-3.08-7.561-3.431-7.771-.629-14.771-2.1-14.771-11.131.07-7.49,7.071-12.881,16.521-12.881,10.011,0,17.222,5.32,17.292,12.671l-11.411-.069c-.07-2.24-2.521-3.921-5.811-3.921-2.66,0-4.69,1.33-4.69,3.08,0,2.171,3.64,2.661,6.021,3.081,7.771.77,17.362,2.24,17.362,10.921,0,7.98-7.421,13.722-18.342,13.722-9.941,0-17.152-5.671-17.152-13.512Z" style="fill: #191514;"/>
        <path d="M322.016,267.739c-1.61,7.071-9.381,12.182-18.762,12.182-11.901,0-20.162-7.911-20.162-19.603,0-11.48,8.471-19.322,20.442-19.322s19.812,7.842,19.812,19.463c0,1.05-.07,2.939-.14,3.641h-26.252c.91,3.779,3.36,6.09,7,6.09,3.081,0,5.321-1.68,6.161-3.99l11.901,1.54ZM309.765,257.028c-.21-3.431-2.87-6.37-6.511-6.37-3.43,0-5.67,2.52-6.371,6.37h12.881Z" style="fill: #191514;"/>
        <path d="M368.075,226.295v52.226h-13.441v-7.28c-2.24,5.391-6.371,8.681-11.831,8.681-8.961,0-15.122-7.911-15.122-19.462s6.161-19.463,15.122-19.463c5.32,0,9.521,3.291,11.831,8.752v-23.453h13.441ZM348.193,268.019c4.061,0,7.001-3.221,7.001-7.561,0-4.41-2.94-7.631-7.001-7.631-4.13,0-7,3.221-7,7.631s2.94,7.561,7,7.561Z" style="fill: #191514;"/>
      </g>
    </g>
  </g>
</svg>