<?xml version="1.0" encoding="UTF-8"?>
<svg id="b" data-name="Layer 2" xmlns="http://www.w3.org/2000/svg" viewBox="0 0 451.67 451.67">
  <g id="c" data-name="Layer 1">
    <g>
      <circle cx="225.835" cy="225.835" r="225.835" style="fill: #ff0;"/>
      <g>
        <path d="M176.979,208.036h-14.801v-35.803h14.801c12.301,0,20.501,7.15,20.501,17.901s-8.2,17.901-20.501,17.901ZM172.679,180.334v19.601h4.3c5.75,0,9.65-3.85,9.65-9.8s-3.9-9.801-9.65-9.801h-4.3Z" style="fill: #191514;"/>
        <path d="M220.379,182.233h9.601v22.152c0,.5.35.9.85.9s.85-.4.85-.9v-5.351h1.85v5.251c0,2.799-2.2,4.75-6.451,4.75-3.9,0-6.7-1.601-6.7-5.701v-2.199c-1.4,4.9-4.601,7.9-8.75,7.9-6.5,0-10.951-5.65-10.951-13.901s4.45-13.901,10.951-13.901c4.15,0,7.3,3.001,8.75,7.852v-6.852ZM220.329,195.135c0-3.2-2.1-5.501-5-5.501-2.95,0-5,2.301-5,5.501,0,3.15,2.05,5.501,5,5.501,2.9,0,5-2.351,5-5.501Z" style="fill: #191514;"/>
        <path d="M252.028,198.934h1.9v4.351c0,3.4-2.85,5.751-6.8,5.751-4.95,0-8.101-2.75-8.101-6.951v-12.701h-3.3v-7.15h3.7l.95-6.75h8.25v6.75h5.4v7.15h-5.4v13.852c0,1.25.7,2.051,1.7,2.051s1.7-.801,1.7-2.051v-4.301Z" style="fill: #191514;"/>
        <path d="M276.828,182.233h9.601v22.152c0,.5.35.9.85.9s.85-.4.85-.9v-5.351h1.85v5.251c0,2.799-2.2,4.75-6.451,4.75-3.9,0-6.7-1.601-6.7-5.701v-2.199c-1.4,4.9-4.601,7.9-8.75,7.9-6.5,0-10.951-5.65-10.951-13.901s4.45-13.901,10.951-13.901c4.15,0,7.3,3.001,8.75,7.852v-6.852ZM276.778,195.135c0-3.2-2.1-5.501-5-5.501-2.95,0-5,2.301-5,5.501,0,3.15,2.05,5.501,5,5.501,2.9,0,5-2.351,5-5.501Z" style="fill: #191514;"/>
        <path d="M130.426,278.036h-20.722v-50.125h20.722c17.222,0,28.703,10.01,28.703,25.062s-11.481,25.062-28.703,25.062ZM124.406,239.251v27.443h6.021c8.051,0,13.512-5.391,13.512-13.721s-5.461-13.723-13.512-13.723h-6.021Z" style="fill: #191514;"/>
        <path d="M191.607,241.352v11.971c-2.17-.91-4.69-1.471-6.371-1.471-3.99,0-6.65,3.08-6.65,7.561v18.623h-13.512v-36.125h13.441v8.961c1.61-6.3,5.041-10.36,9.241-10.36,1.12,0,2.52.351,3.85.841Z" style="fill: #191514;"/>
        <path d="M203.574,223.71c4.34,0,7.491,3.01,7.491,7.211,0,4.27-3.15,7.281-7.491,7.281s-7.561-3.012-7.561-7.281c0-4.201,3.221-7.211,7.561-7.211ZM210.295,278.036h-13.512v-36.125h13.512v36.125Z" style="fill: #191514;"/>
        <path d="M247.816,278.036h-22.332l-10.501-36.125h14.352l7.281,32.135,7.281-32.135h14.352l-10.431,36.125Z" style="fill: #191514;"/>
        <path d="M297.867,267.255c-1.61,7.07-9.381,12.182-18.762,12.182-11.901,0-20.162-7.912-20.162-19.604,0-11.48,8.471-19.321,20.442-19.321s19.812,7.841,19.812,19.462c0,1.051-.07,2.94-.14,3.641h-26.252c.91,3.78,3.36,6.09,7,6.09,3.081,0,5.321-1.68,6.161-3.99l11.901,1.541ZM285.615,256.544c-.21-3.432-2.87-6.371-6.511-6.371-3.43,0-5.67,2.52-6.371,6.371h12.881Z" style="fill: #191514;"/>
        <path d="M318.513,258.153v19.883h-13.512v-36.125h13.512v8.611c1.82-6.09,6.021-10.011,11.341-10.011,7.07,0,12.111,6.021,12.111,14.352v23.173h-13.511v-20.093c0-3.36-1.82-5.671-4.761-5.671s-5.18,2.381-5.18,5.881Z" style="fill: #191514;"/>
      </g>
    </g>
  </g>
</svg>