<?xml version="1.0" encoding="UTF-8"?>
<svg id="b" data-name="Layer 2" xmlns="http://www.w3.org/2000/svg" viewBox="0 0 451.67 451.67">
  <g id="c" data-name="Layer 1">
    <g>
      <circle cx="225.835" cy="225.835" r="225.835" style="fill: #ff0;"/>
      <g>
        <path d="M194.82,182.946v-30.053h9.75v35.803h-16.351l-7.55-30.002v30.002h-9.751v-35.803h16.401l7.5,30.053Z" style="fill: #191514;"/>
        <path d="M237.17,180.995c-1.15,5.051-6.701,8.701-13.401,8.701-8.5,0-14.401-5.65-14.401-14.001,0-8.2,6.05-13.801,14.601-13.801s14.151,5.601,14.151,13.901c0,.75-.05,2.1-.1,2.6h-18.751c.65,2.7,2.4,4.351,5,4.351,2.2,0,3.8-1.2,4.4-2.851l8.501,1.1ZM228.419,173.345c-.15-2.449-2.05-4.55-4.65-4.55-2.45,0-4.05,1.8-4.55,4.55h9.2Z" style="fill: #191514;"/>
        <path d="M271.77,185.847l3.35-22.952h9.601l-5.5,25.802h-14.051l-3.15-21.502-3.1,21.502h-14.101l-5.45-25.802h9.951l3.4,22.702,3.3-22.702h12l3.75,22.952Z" style="fill: #191514;"/>
        <path d="M52.288,229.195c-.65-2.86-3.186-4.94-6.11-4.94-3.64,0-6.37,3.186-6.37,7.671,0,4.42,2.665,7.67,6.37,7.67,2.925,0,5.46-2.08,6.11-4.94l11.505,1.365c-1.04,8.125-8.646,13.976-17.746,13.976-10.726,0-18.786-7.604-18.786-18.07s7.931-18.071,18.786-18.071c9.165,0,16.771,5.785,17.746,13.846l-11.505,1.495Z" style="fill: #191514;"/>
        <path d="M86.607,249.996c-11.375,0-19.046-7.28-19.046-18.07s7.67-18.071,19.046-18.071c11.311,0,18.98,7.281,18.98,18.071s-7.67,18.07-18.98,18.07ZM86.607,224.775c-3.835,0-6.5,2.925-6.5,7.15s2.665,7.15,6.5,7.15,6.5-2.925,6.5-7.15-2.665-7.15-6.5-7.15Z" style="fill: #191514;"/>
        <path d="M166.623,226.79v21.906h-12.545v-18.591c0-2.925-1.69-5.2-4.615-5.33-2.86,0-4.68,2.21-4.68,5.33v18.591h-12.48v-18.591c0-3.185-1.755-5.33-4.355-5.33-2.73,0-4.42,2.146-4.42,5.33v18.591h-12.545v-33.541h12.48v8.125c1.755-5.721,5.655-9.426,10.53-9.426,5.2,0,9.36,4.031,10.4,9.881,1.82-5.98,6.175-9.881,11.375-9.881,6.305,0,10.855,5.461,10.855,12.936Z" style="fill: #191514;"/>
        <path d="M228.372,226.79v21.906h-12.545v-18.591c0-2.925-1.69-5.2-4.615-5.33-2.86,0-4.68,2.21-4.68,5.33v18.591h-12.48v-18.591c0-3.185-1.755-5.33-4.355-5.33-2.73,0-4.42,2.146-4.42,5.33v18.591h-12.545v-33.541h12.48v8.125c1.755-5.721,5.655-9.426,10.53-9.426,5.2,0,9.36,4.031,10.4,9.881,1.82-5.98,6.175-9.881,11.375-9.881,6.305,0,10.855,5.461,10.855,12.936Z" style="fill: #191514;"/>
        <path d="M269.256,238.686c-1.495,6.564-8.71,11.31-17.42,11.31-11.051,0-18.721-7.345-18.721-18.2,0-10.66,7.865-17.941,18.98-17.941s18.396,7.281,18.396,18.071c0,.976-.065,2.729-.13,3.38h-24.376c.845,3.51,3.12,5.655,6.5,5.655,2.86,0,4.94-1.56,5.72-3.705l11.05,1.431ZM257.881,228.741c-.195-3.186-2.665-5.916-6.045-5.916-3.186,0-5.266,2.34-5.916,5.916h11.96Z" style="fill: #191514;"/>
        <path d="M300.52,214.635v11.116c-2.015-.846-4.355-1.365-5.916-1.365-3.705,0-6.175,2.859-6.175,7.02v17.291h-12.545v-33.541h12.48v8.32c1.495-5.851,4.68-9.621,8.581-9.621,1.04,0,2.34.326,3.575.78Z" style="fill: #191514;"/>
        <path d="M328.275,229.195c-.65-2.86-3.185-4.94-6.11-4.94-3.64,0-6.37,3.186-6.37,7.671,0,4.42,2.665,7.67,6.37,7.67,2.925,0,5.46-2.08,6.11-4.94l11.505,1.365c-1.04,8.125-8.646,13.976-17.746,13.976-10.726,0-18.786-7.604-18.786-18.07s7.93-18.071,18.786-18.071c9.165,0,16.771,5.785,17.746,13.846l-11.505,1.495Z" style="fill: #191514;"/>
        <path d="M351.999,198.255c4.03,0,6.955,2.795,6.955,6.695,0,3.965-2.925,6.76-6.955,6.76s-7.021-2.795-7.021-6.76c0-3.9,2.99-6.695,7.021-6.695ZM358.239,248.696h-12.546v-33.541h12.546v33.541Z" style="fill: #191514;"/>
        <path d="M389.959,215.155h12.48v28.796c0,.649.455,1.17,1.105,1.17s1.105-.521,1.105-1.17v-6.955h2.405v6.825c0,3.641-2.86,6.175-8.385,6.175-5.07,0-8.71-2.08-8.71-7.41v-2.86c-1.82,6.371-5.98,10.271-11.375,10.271-8.45,0-14.235-7.345-14.235-18.07s5.785-18.071,14.235-18.071c5.395,0,9.49,3.9,11.375,10.206v-8.905ZM389.894,231.926c0-4.16-2.73-7.15-6.5-7.15-3.835,0-6.5,2.99-6.5,7.15,0,4.095,2.665,7.15,6.5,7.15,3.77,0,6.5-3.056,6.5-7.15Z" style="fill: #191514;"/>
        <path d="M424.408,248.696h-12.48v-48.492h12.48v48.492Z" style="fill: #191514;"/>
        <path d="M139.601,284.196c-.45-1.979-2.205-3.42-4.23-3.42-2.52,0-4.41,2.205-4.41,5.311,0,3.06,1.845,5.31,4.41,5.31,2.025,0,3.78-1.44,4.23-3.42l7.964.945c-.72,5.624-5.984,9.675-12.284,9.675-7.425,0-13.004-5.266-13.004-12.51s5.49-12.51,13.004-12.51c6.345,0,11.609,4.005,12.284,9.585l-7.964,1.034Z" style="fill: #191514;"/>
        <path d="M174.925,297.696h-8.685v-12.914c0-2.16-1.215-3.646-3.105-3.646s-3.285,1.53-3.285,3.78v12.779h-8.685v-33.568h8.685v15.885c1.215-3.916,4.05-6.436,7.47-6.436,4.5,0,7.604,3.734,7.604,8.91v15.209Z" style="fill: #191514;"/>
        <path d="M195.94,274.477h8.64v19.934c0,.45.315.811.765.811s.765-.36.765-.811v-4.814h1.665v4.725c0,2.52-1.98,4.275-5.805,4.275-3.51,0-6.03-1.44-6.03-5.131v-1.979c-1.26,4.41-4.14,7.11-7.875,7.11-5.85,0-9.854-5.086-9.854-12.51s4.005-12.51,9.854-12.51c3.735,0,6.57,2.7,7.875,7.064v-6.164ZM195.895,286.087c0-2.88-1.89-4.95-4.5-4.95-2.655,0-4.5,2.07-4.5,4.95,0,2.835,1.845,4.949,4.5,4.949,2.61,0,4.5-2.114,4.5-4.949Z" style="fill: #191514;"/>
        <path d="M219.835,284.917v12.779h-8.685v-23.219h8.685v5.535c1.17-3.916,3.87-6.436,7.29-6.436,4.545,0,7.785,3.87,7.785,9.225v14.895h-8.685v-12.914c0-2.16-1.17-3.646-3.06-3.646s-3.33,1.53-3.33,3.78Z" style="fill: #191514;"/>
        <path d="M247.825,284.917v12.779h-8.685v-23.219h8.685v5.535c1.17-3.916,3.87-6.436,7.29-6.436,4.545,0,7.785,3.87,7.785,9.225v14.895h-8.685v-12.914c0-2.16-1.17-3.646-3.06-3.646s-3.33,1.53-3.33,3.78Z" style="fill: #191514;"/>
        <path d="M291.204,290.766c-1.035,4.545-6.03,7.83-12.06,7.83-7.65,0-12.959-5.086-12.959-12.6,0-7.38,5.445-12.42,13.139-12.42s12.734,5.04,12.734,12.51c0,.675-.045,1.89-.09,2.34h-16.874c.585,2.43,2.16,3.914,4.5,3.914,1.98,0,3.42-1.079,3.96-2.564l7.65.99ZM283.329,283.882c-.135-2.205-1.845-4.095-4.185-4.095-2.205,0-3.645,1.62-4.095,4.095h8.28Z" style="fill: #191514;"/>
        <path d="M304.433,297.696h-8.64v-33.568h8.64v33.568Z" style="fill: #191514;"/>
        <path d="M308.214,290.092h7.02c0,1.8,1.755,3.104,4.185,3.104,1.89,0,3.285-.945,3.285-2.16,0-1.439-1.665-1.979-4.86-2.205-4.995-.404-9.495-1.35-9.495-7.154.045-4.814,4.545-8.279,10.62-8.279,6.435,0,11.07,3.42,11.115,8.145l-7.335-.045c-.045-1.439-1.62-2.52-3.735-2.52-1.71,0-3.015.854-3.015,1.979,0,1.396,2.34,1.71,3.87,1.979,4.995.495,11.16,1.44,11.16,7.02,0,5.131-4.77,8.82-11.79,8.82-6.39,0-11.024-3.645-11.024-8.685Z" style="fill: #191514;"/>
      </g>
    </g>
  </g>
</svg>