<?xml version="1.0" encoding="UTF-8"?>
<svg id="b" data-name="Layer 2" xmlns="http://www.w3.org/2000/svg" viewBox="0 0 451.67 451.67">
  <g id="c" data-name="Layer 1">
    <g>
      <circle cx="225.835" cy="225.835" r="225.835" style="fill: #ff0;"/>
      <g>
        <path d="M62.5,174.056c14.399,0,24.179,9.299,24.179,22.979s-9.78,22.979-24.179,22.979-24.119-9.299-24.119-22.979,9.72-22.979,24.119-22.979ZM62.5,208.974c6.66,0,11.16-4.859,11.16-11.939s-4.5-11.939-11.16-11.939c-6.6,0-11.1,4.859-11.1,11.939s4.5,11.879,11.1,11.939Z" style="fill: #191514;"/>
        <path d="M91.78,232.313v-44.759h11.52v6.24c1.92-4.619,5.459-7.439,10.2-7.439,7.62,0,12.899,6.779,12.899,16.68s-5.22,16.68-12.899,16.68c-4.62,0-8.16-2.82-10.14-7.5v20.099h-11.58ZM108.879,196.495c-3.479,0-6,2.76-6,6.54,0,3.719,2.52,6.479,6,6.479s6-2.761,6-6.479c0-3.78-2.52-6.54-6-6.54Z" style="fill: #191514;"/>
        <path d="M163.479,209.274c-1.38,6.06-8.04,10.44-16.079,10.44-10.2,0-17.279-6.78-17.279-16.801,0-9.839,7.259-16.559,17.519-16.559s16.979,6.72,16.979,16.68c0,.899-.06,2.52-.12,3.119h-22.499c.78,3.24,2.88,5.221,6,5.221,2.64,0,4.56-1.44,5.28-3.42l10.2,1.319ZM152.979,200.094c-.18-2.94-2.46-5.46-5.58-5.46-2.94,0-4.86,2.16-5.46,5.46h11.04Z" style="fill: #191514;"/>
        <path d="M192.338,187.076v10.259c-1.86-.78-4.02-1.26-5.459-1.26-3.42,0-5.7,2.64-5.7,6.479v15.959h-11.58v-30.959h11.52v7.68c1.38-5.398,4.32-8.879,7.919-8.879.96,0,2.16.3,3.3.721Z" style="fill: #191514;"/>
        <path d="M218.498,187.554h11.52v26.58c0,.6.42,1.08,1.02,1.08s1.02-.48,1.02-1.08v-6.42h2.22v6.299c0,3.36-2.64,5.701-7.74,5.701-4.68,0-8.04-1.92-8.04-6.84v-2.641c-1.68,5.88-5.52,9.48-10.5,9.48-7.8,0-13.14-6.78-13.14-16.68s5.34-16.68,13.14-16.68c4.98,0,8.76,3.6,10.5,9.42v-8.221ZM218.438,203.035c0-3.84-2.52-6.6-6-6.6-3.54,0-6,2.76-6,6.6,0,3.779,2.46,6.6,6,6.6,3.48,0,6-2.82,6-6.6Z" style="fill: #191514;"/>
        <path d="M256.478,207.594h2.28v5.22c0,4.08-3.42,6.9-8.16,6.9-5.939,0-9.72-3.301-9.72-8.34v-15.24h-3.959v-8.58h4.44l1.14-8.1h9.899v8.1h6.48v8.58h-6.48v16.619c0,1.5.84,2.461,2.04,2.461s2.04-.961,2.04-2.461v-5.159Z" style="fill: #191514;"/>
        <path d="M270.338,171.955c3.72,0,6.42,2.58,6.42,6.18,0,3.659-2.7,6.239-6.42,6.239s-6.479-2.58-6.479-6.239c0-3.6,2.76-6.18,6.479-6.18ZM276.097,218.513h-11.58v-30.959h11.58v30.959Z" style="fill: #191514;"/>
        <path d="M299.257,219.714c-10.5,0-17.579-6.721-17.579-16.68s7.08-16.68,17.579-16.68c10.439,0,17.52,6.72,17.52,16.68s-7.08,16.68-17.52,16.68ZM299.257,196.435c-3.54,0-6,2.699-6,6.6s2.46,6.6,6,6.6,6-2.7,6-6.6-2.46-6.6-6-6.6Z" style="fill: #191514;"/>
        <path d="M333.337,201.474v17.039h-11.58v-30.959h11.58v7.381c1.56-5.221,5.16-8.58,9.719-8.58,6.06,0,10.38,5.16,10.38,12.299v19.859h-11.58v-17.219c0-2.88-1.56-4.859-4.08-4.859s-4.44,2.039-4.44,5.039Z" style="fill: #191514;"/>
        <path d="M381.455,187.554h11.52v26.58c0,.6.42,1.08,1.02,1.08s1.02-.48,1.02-1.08v-6.42h2.22v6.299c0,3.36-2.64,5.701-7.739,5.701-4.68,0-8.04-1.92-8.04-6.84v-2.641c-1.68,5.88-5.52,9.48-10.5,9.48-7.8,0-13.139-6.78-13.139-16.68s5.339-16.68,13.139-16.68c4.98,0,8.76,3.6,10.5,9.42v-8.221ZM381.395,203.035c0-3.84-2.52-6.6-6-6.6-3.54,0-6,2.76-6,6.6,0,3.779,2.46,6.6,6,6.6,3.48,0,6-2.82,6-6.6Z" style="fill: #191514;"/>
        <path d="M413.255,218.513h-11.52v-44.758h11.52v44.758Z" style="fill: #191514;"/>
        <path d="M46.512,269.413h1.9v4.35c0,3.4-2.85,5.75-6.8,5.75-4.95,0-8.101-2.75-8.101-6.949v-12.701h-3.3v-7.15h3.7l.95-6.75h8.25v6.75h5.4v7.15h-5.4v13.851c0,1.25.7,2.05,1.7,2.05s1.7-.8,1.7-2.05v-4.3Z" style="fill: #191514;"/>
        <path d="M71.612,252.312v8.551c-1.55-.65-3.35-1.051-4.55-1.051-2.85,0-4.75,2.201-4.75,5.4v13.301h-9.651v-25.801h9.601v6.4c1.15-4.5,3.6-7.4,6.601-7.4.8,0,1.8.25,2.75.6Z" style="fill: #191514;"/>
        <path d="M93.412,252.712h9.601v22.15c0,.5.35.9.85.9s.85-.4.85-.9v-5.35h1.851v5.25c0,2.801-2.2,4.75-6.451,4.75-3.9,0-6.7-1.6-6.7-5.699v-2.201c-1.4,4.9-4.601,7.9-8.75,7.9-6.5,0-10.951-5.65-10.951-13.9s4.45-13.9,10.951-13.9c4.15,0,7.3,3,8.75,7.85v-6.85ZM93.361,265.613c0-3.2-2.1-5.5-5-5.5-2.95,0-5,2.3-5,5.5,0,3.15,2.05,5.5,5,5.5,2.9,0,5-2.35,5-5.5Z" style="fill: #191514;"/>
        <path d="M119.961,264.313v14.2h-9.651v-25.801h9.651v6.15c1.3-4.351,4.3-7.15,8.1-7.15,5.05,0,8.651,4.3,8.651,10.25v16.551h-9.651v-14.351c0-2.399-1.3-4.05-3.4-4.05s-3.7,1.699-3.7,4.2Z" style="fill: #191514;"/>
        <path d="M140.409,270.063h7.8c0,2.001,1.95,3.45,4.65,3.45,2.1,0,3.65-1.05,3.65-2.4,0-1.6-1.85-2.199-5.4-2.449-5.55-.451-10.551-1.5-10.551-7.951.05-5.35,5.05-9.2,11.801-9.2,7.15,0,12.301,3.8,12.351,9.05l-8.15-.049c-.05-1.601-1.8-2.801-4.15-2.801-1.9,0-3.351.95-3.351,2.2,0,1.55,2.6,1.899,4.3,2.2,5.55.55,12.401,1.6,12.401,7.801,0,5.699-5.3,9.801-13.101,9.801-7.101,0-12.251-4.051-12.251-9.651Z" style="fill: #191514;"/>
        <path d="M185.761,249.911h-1.851v-4.3c0-1.25-.75-2.05-1.75-2.05-.95,0-1.7.8-1.7,2.05v7.101h5.351v7.15h-5.351v18.65h-9.601v-18.65h-3.3v-7.15h3.3v-5.951c0-4.199,3.15-6.949,8.101-6.949,4,0,6.801,2.35,6.801,5.75v4.35Z" style="fill: #191514;"/>
        <path d="M202.01,279.513c-8.75,0-14.651-5.6-14.651-13.9s5.9-13.9,14.651-13.9c8.701,0,14.601,5.6,14.601,13.9s-5.9,13.9-14.601,13.9ZM202.01,260.113c-2.95,0-5,2.25-5,5.5s2.05,5.5,5,5.5,5-2.25,5-5.5-2.05-5.5-5-5.5Z" style="fill: #191514;"/>
        <path d="M239.71,252.312v8.551c-1.55-.65-3.35-1.051-4.55-1.051-2.85,0-4.75,2.201-4.75,5.4v13.301h-9.651v-25.801h9.601v6.4c1.15-4.5,3.6-7.4,6.601-7.4.8,0,1.8.25,2.75.6Z" style="fill: #191514;"/>
        <path d="M285.661,261.662v16.851h-9.65v-14.301c0-2.25-1.3-4-3.55-4.1-2.2,0-3.601,1.699-3.601,4.1v14.301h-9.601v-14.301c0-2.449-1.35-4.1-3.35-4.1-2.1,0-3.4,1.65-3.4,4.1v14.301h-9.651v-25.801h9.601v6.25c1.35-4.4,4.351-7.25,8.101-7.25,4,0,7.2,3.1,8,7.6,1.4-4.6,4.75-7.6,8.75-7.6,4.85,0,8.351,4.199,8.351,9.95Z" style="fill: #191514;"/>
        <path d="M309.009,252.712h9.601v22.15c0,.5.35.9.85.9s.85-.4.85-.9v-5.35h1.851v5.25c0,2.801-2.2,4.75-6.451,4.75-3.9,0-6.7-1.6-6.7-5.699v-2.201c-1.4,4.9-4.601,7.9-8.75,7.9-6.5,0-10.951-5.65-10.951-13.9s4.45-13.9,10.951-13.9c4.15,0,7.3,3,8.75,7.85v-6.85ZM308.959,265.613c0-3.2-2.1-5.5-5-5.5-2.95,0-5,2.3-5,5.5,0,3.15,2.05,5.5,5,5.5,2.9,0,5-2.35,5-5.5Z" style="fill: #191514;"/>
        <path d="M340.659,269.413h1.9v4.35c0,3.4-2.85,5.75-6.8,5.75-4.95,0-8.101-2.75-8.101-6.949v-12.701h-3.3v-7.15h3.7l.95-6.75h8.25v6.75h5.4v7.15h-5.4v13.851c0,1.25.7,2.05,1.7,2.05s1.7-.8,1.7-2.05v-4.3Z" style="fill: #191514;"/>
        <path d="M352.208,239.711c3.1,0,5.351,2.149,5.351,5.15,0,3.05-2.25,5.2-5.351,5.2s-5.4-2.15-5.4-5.2c0-3.001,2.3-5.15,5.4-5.15ZM357.008,278.513h-9.65v-25.801h9.65v25.801Z" style="fill: #191514;"/>
        <path d="M376.308,279.513c-8.75,0-14.651-5.6-14.651-13.9s5.9-13.9,14.651-13.9c8.701,0,14.601,5.6,14.601,13.9s-5.9,13.9-14.601,13.9ZM376.308,260.113c-2.95,0-5,2.25-5,5.5s2.05,5.5,5,5.5,5-2.25,5-5.5-2.05-5.5-5-5.5Z" style="fill: #191514;"/>
        <path d="M404.708,264.313v14.2h-9.651v-25.801h9.651v6.15c1.3-4.351,4.3-7.15,8.1-7.15,5.05,0,8.651,4.3,8.651,10.25v16.551h-9.651v-14.351c0-2.399-1.3-4.05-3.4-4.05s-3.7,1.699-3.7,4.2Z" style="fill: #191514;"/>
      </g>
    </g>
  </g>
</svg>