<?xml version="1.0" encoding="UTF-8"?>
<svg id="b" data-name="Layer 2" xmlns="http://www.w3.org/2000/svg" viewBox="0 0 79.32 101.185">
  <g id="c" data-name="Layer 1">
    <g>
      <g>
        <path d="M77.412,34.252C72.849,14.752,61.614,5.335,52.993.867c-3.071-1.591-7.163-.93-9.115,1.465l-2.084,2.393c-.445.546-1.177,1.198-2.134,1.198s-1.689-.651-2.142-1.207l-2.069-2.376c-1.959-2.404-6.051-3.065-9.122-1.474C17.706,5.335,6.471,14.753,1.908,34.252c-3.151,13.465-2.389,27.314,2.204,40.049,3.894,10.799,9.701,18.839,17.259,23.897l2.933,1.666c1.473.836,3.664,1.321,5.929,1.321.136,0,.273-.002.41-.005,2.641-.068,5.12-1.494,6.631-3.814.4-.615,1.243-1.646,2.385-1.646s1.985,1.031,2.385,1.646c1.511,2.32,3.99,3.745,6.631,3.814.137.004.274.005.41.005,2.264,0,4.456-.485,5.929-1.321l2.911-1.653.022-.013c7.558-5.058,13.365-13.098,17.259-23.897,4.593-12.735,5.355-26.584,2.204-40.049ZM74.552,74.064c-3.841,10.651-9.554,18.574-16.981,23.547l-2.9,1.646c-1.456.827-3.69,1.288-5.977,1.225-2.412-.062-4.68-1.37-6.066-3.497-.824-1.265-1.879-1.963-2.969-1.963s-2.145.697-2.969,1.963c-1.386,2.127-3.653,3.435-6.065,3.497-2.289.062-4.521-.398-5.977-1.225l-2.9-1.646c-7.427-4.974-13.14-12.896-16.981-23.547C.221,61.456-.533,47.744,2.587,34.41,7.09,15.17,18.157,5.886,26.648,1.486c2.747-1.423,6.529-.83,8.268,1.304l2.069,2.376c.776.952,1.701,1.455,2.675,1.455s1.899-.503,2.667-1.446l2.084-2.393c1.732-2.125,5.515-2.718,8.261-1.295,8.491,4.4,19.558,13.683,24.061,32.924,3.12,13.333,2.366,27.045-2.181,39.653Z" style="fill: #fff;"/>
        <path d="M75.191,34.956C70.564,14.794,59.015,6.046,52.542,2.626c-2.726-1.441-6.103-.737-8.029,1.673l-1.97,2.466c-.511.64-1.274,1.007-2.093,1.007h-1.58c-.819,0-1.582-.367-2.093-1.007l-1.97-2.466c-1.926-2.41-5.302-3.113-8.029-1.673-6.472,3.42-18.021,12.168-22.648,32.33-2.964,12.917-2.248,26.202,2.073,38.419,3.664,10.362,9.129,18.076,16.241,22.93l2.76,1.599c1.354.784,2.847,1.174,4.336,1.173,1.669,0,3.334-.489,4.793-1.462l.037-.025c.763-.509,1.401-1.196,1.895-2.042.49-.839,1.477-1.839,3.396-1.839s2.906,1,3.396,1.839c.494.846,1.132,1.533,1.895,2.042l.036.024c1.459.973,3.124,1.462,4.793,1.462,1.489,0,2.983-.39,4.336-1.173l2.738-1.585.022-.014c7.113-4.854,12.577-12.568,16.241-22.93,4.32-12.217,5.037-25.502,2.073-38.419ZM72.46,73.142c-3.612,10.214-8.983,17.81-15.966,22.579l-2.727,1.579c-2.64,1.528-5.856,1.426-8.394-.266l-.036-.024c-.674-.45-1.239-1.059-1.68-1.813-.582-.996-1.748-2.184-3.998-2.184s-3.416,1.188-3.998,2.184c-.44.754-1.005,1.364-1.679,1.813l-.037.025c-2.538,1.692-5.754,1.794-8.393.265l-2.727-1.579c-6.982-4.769-12.353-12.365-15.966-22.579-4.276-12.092-4.985-25.243-2.051-38.031C9.374,15.22,20.737,6.606,27.104,3.242c2.43-1.284,5.441-.657,7.158,1.492l1.97,2.465c.644.806,1.606,1.269,2.638,1.269h1.58c1.032,0,1.994-.462,2.638-1.269l1.97-2.466c1.717-2.149,4.728-2.776,7.159-1.492,6.367,3.364,17.73,11.978,22.295,31.87,2.934,12.788,2.225,25.939-2.051,38.031Z" style="fill: #fff;"/>
      </g>
      <path d="M59.664,41.768c-2.599-11.327-9.094-16.244-12.734-18.168-1.59-.84-3.557-.429-4.679.975l-1.101,1.378c-.256.321-.639.505-1.049.505h-.883c-.411,0-.793-.184-1.05-.505l-1.101-1.378c-1.122-1.404-3.09-1.814-4.678-.975-3.64,1.923-10.135,6.841-12.734,18.168-1.663,7.246-1.261,14.7,1.163,21.554,2.059,5.821,5.132,10.158,9.133,12.889l1.552.9c.781.452,1.641.677,2.5.677.963,0,1.923-.282,2.764-.843l.02-.014c.446-.297.818-.698,1.106-1.191.253-.434.765-.951,1.765-.951s1.511.517,1.765.951c.288.493.661.894,1.106,1.191l.02.014c.841.561,1.801.843,2.764.843.859,0,1.72-.225,2.501-.676l1.53-.886.022-.014c4.002-2.731,7.075-7.067,9.134-12.889,2.424-6.855,2.826-14.308,1.163-21.554ZM57.844,63.09c-2.006,5.673-4.987,9.892-8.859,12.538l-1.519.879c-1.424.825-3.159.77-4.528-.143l-.02-.014c-.357-.238-.657-.562-.891-.963-.283-.484-.967-1.297-2.367-1.297s-2.084.812-2.367,1.297c-.234.401-.534.725-.891.963l-.02.014c-1.369.913-3.104.968-4.528.143l-1.519-.879c-3.872-2.646-6.852-6.865-8.859-12.538-2.38-6.729-2.774-14.048-1.141-21.166,2.537-11.056,8.846-15.84,12.38-17.707,1.292-.683,2.894-.35,3.808.794l1.101,1.378c.389.487.97.767,1.594.767h.883c.624,0,1.205-.279,1.594-.767l1.101-1.378c.914-1.143,2.514-1.477,3.808-.794,3.535,1.868,9.843,6.651,12.38,17.707,1.633,7.117,1.239,14.436-1.141,21.166Z" style="fill: #fff;"/>
      <g>
        <path d="M14.426,54.488c.013.24.028.47.044.689.017.219.034.418.053.596.021.205.046.415.075.63.028.215.06.434.096.658l-.316.033-.014-.136c-.029-.276-.113-.455-.254-.537s-.493-.094-1.058-.035l-.221.023-1.108.115c.017.219.036.451.059.695.022.244.056.585.102,1.022.047.447.088.837.126,1.168.037.331.077.668.119,1.01l1.257-.131c.598-.062.961-.149,1.089-.259s.178-.303.149-.579l-.014-.136.316-.033c.012.227.025.449.042.666.016.218.036.431.057.639.018.178.042.375.07.589.028.215.061.441.098.678l-.316.033c-.002-.017-.003-.041-.003-.071,0-.031,0-.053-.002-.066-.027-.259-.118-.428-.274-.507s-.473-.094-.951-.044c-.09.009-.262.029-.514.059-.252.03-.459.053-.622.07l-1.2.125c-.162.017-.371.037-.625.06-.255.023-.428.039-.522.049-.493.051-.81.132-.951.242-.14.11-.197.294-.17.553.005.047.009.083.014.108.004.025.007.048.009.068l-.312.032c-.016-.267-.032-.514-.05-.742-.017-.228-.034-.419-.051-.574-.019-.182-.043-.386-.073-.612s-.064-.468-.103-.726l.316-.033c.002.02.004.051.005.091.001.041.002.069.004.086.029.276.116.455.261.536.145.082.477.096.995.042l.546-.057.988-.103-.007-.066c-.078-.866-.138-1.499-.179-1.899-.032-.303-.065-.592-.099-.867-.004-.037-.006-.057-.006-.061-.015-.145-.032-.301-.051-.469-.019-.168-.04-.346-.062-.534l-1.074.112-.361.038c-.578.06-.931.146-1.059.258-.128.112-.178.307-.149.587.002.017.006.045.013.085s.012.07.014.09l-.316.033c-.015-.26-.031-.504-.049-.732-.018-.228-.036-.432-.055-.614-.016-.155-.039-.344-.069-.569-.029-.225-.064-.471-.104-.739l.311-.032c.002.02.004.043.005.068,0,.025.004.06.008.104.027.262.121.433.281.511.16.078.487.092.98.041.093-.01.267-.029.52-.059s.462-.053.624-.07l1.2-.125c.15-.016.342-.034.576-.055.233-.021.392-.036.476-.044.52-.054.852-.137.995-.249.143-.112.201-.301.174-.566-.001-.01-.005-.03-.011-.06s-.01-.053-.012-.07l.316-.033Z" style="fill: #fff;"/>
        <path d="M16.592,65.701c.165.487.249.943.254,1.368.005.425-.071.837-.227,1.236-.19.478-.459.886-.808,1.224-.349.337-.757.585-1.224.743-.476.161-.961.209-1.456.144-.494-.065-.96-.238-1.397-.518-.351-.224-.664-.517-.941-.878s-.485-.747-.623-1.157c-.173-.513-.248-1.013-.225-1.501.023-.488.146-.953.367-1.396.202-.404.465-.749.79-1.035s.696-.5,1.115-.642c.453-.153.913-.202,1.38-.148.467.054.914.211,1.34.471.386.234.721.531,1.005.892s.501.76.65,1.199ZM14.078,69.26c.834-.282,1.437-.754,1.809-1.415s.435-1.357.188-2.087c-.237-.702-.657-1.187-1.259-1.457-.602-.27-1.287-.274-2.055-.015-.854.289-1.474.767-1.858,1.434-.385.667-.454,1.363-.21,2.087.236.698.662,1.182,1.278,1.45s1.318.269,2.106.003Z" style="fill: #fff;"/>
        <path d="M13.241,73.829l.091.152c.123.206.234.339.331.399.098.06.218.071.361.032.096-.022.399-.179.909-.47.51-.291,1.296-.756,2.361-1.393l1.242-.744-.526-.879c-.255-.427-.479-.684-.671-.772-.192-.088-.475-.07-.848.055l-.115-.316c.259-.08.506-.171.741-.273.235-.102.458-.215.668-.341.003.117.073.314.211.592.138.278.406.749.804,1.413l.636,1.062c.528.882.878,1.444,1.049,1.686.172.242.314.398.426.469-.026.016-.068.039-.125.069s-.101.054-.129.071c-.164.098-.327.207-.492.327-.165.12-.329.251-.494.394l-.211-.246c.272-.21.419-.419.439-.627.02-.207-.101-.546-.364-1.015l-.493-.823c-.15.086-.361.208-.632.367-.712.419-1.19.701-1.434.847-.921.552-1.542.932-1.861,1.141-.319.209-.51.353-.571.434-.071.094-.098.195-.083.304.016.109.077.253.185.433l.091.152-.273.163c-.134-.247-.262-.479-.385-.695s-.234-.409-.335-.577c-.088-.148-.2-.328-.335-.541-.135-.213-.283-.443-.444-.689l.273-.163Z" style="fill: #fff;"/>
        <path d="M21.059,74.82c.388.447.737.845,1.047,1.194.31.349.58.648.809.896.255.276.516.552.783.827s.541.553.823.831c-.165.156-.328.321-.491.495-.163.174-.324.35-.484.53l-.251-.231c.248-.266.344-.525.287-.776s-.337-.649-.839-1.193c-.129-.139-.367-.391-.715-.755-.071-.072-.123-.126-.155-.161-.271.241-.605.536-1.001.883s-.653.573-.771.677l.107.116c.135.147.303.331.503.554.2.223.334.372.403.446.333.36.582.57.749.631.167.06.336.02.507-.12l.197.253c-.154.11-.294.215-.42.315-.126.1-.239.196-.339.289-.058.053-.177.174-.356.364-.064.069-.113.12-.146.156l-.23-.236.027-.025c.189-.174.26-.354.213-.539-.047-.185-.279-.503-.696-.955l-.613-.663-.248-.268c-.109.101-.261.238-.455.413s-.334.302-.418.38c-.147.135-.299.278-.455.427-.157.149-.338.326-.545.531.101.136.221.287.361.451.139.164.296.34.47.529.576.624,1.009.984,1.299,1.082.29.098.642.064,1.057-.103l.168.342c-.253.096-.495.197-.726.304-.231.107-.453.221-.668.34-.347-.402-.672-.774-.975-1.116-.303-.341-.58-.648-.83-.919-.342-.37-.905-.955-1.688-1.755l-.127-.131.217-.2c.014.019.027.038.041.055.014.017.036.042.066.074.305.33.875.114,1.712-.648.211-.19.377-.339.497-.445l.924-.825c.198-.178.39-.352.575-.521.186-.169.386-.353.602-.552.191-.177.287-.338.287-.486,0-.147-.094-.323-.282-.526l-.027-.03.223-.206Z" style="fill: #fff;"/>
        <path d="M25.236,79.215c.287.221.505.388.655.501.15.113.272.203.367.268.181.125.36.245.538.359.178.114.357.225.538.332l-.181.261-.129-.09c-.22-.152-.415-.188-.587-.106-.172.081-.426.366-.764.853l-.514.742-1.882,2.74c.15.115.295.224.432.325.138.101.269.195.394.282.745.516,1.268.788,1.568.814.301.026.637-.093,1.01-.357l.243.29c-.234.154-.457.311-.666.471-.21.16-.412.327-.607.501-.453-.332-.871-.636-1.254-.911-.383-.275-.744-.53-1.083-.765-.239-.166-.508-.348-.807-.546-.299-.198-.653-.43-1.061-.695l.168-.242c.018.016.035.031.052.044.017.014.044.033.08.058.377.258.897-.09,1.562-1.042.15-.216.268-.384.356-.504l.711-1.008c.076-.109.174-.249.296-.418.122-.17.206-.288.252-.355.317-.457.482-.783.496-.978s-.098-.374-.334-.538l-.033-.023.184-.265Z" style="fill: #fff;"/>
        <path d="M30.426,89.344c.022.009.044.016.065.023.021.007.053.015.095.026.437.108.794-.386,1.073-1.483.072-.275.129-.49.171-.645l.318-1.198c.067-.258.132-.508.194-.751.062-.243.128-.507.199-.792.063-.253.053-.44-.027-.563-.081-.123-.256-.218-.525-.285l-.039-.01.076-.308c.206.067.41.128.61.184.2.056.404.11.611.161.23.057.514.12.852.19.338.07.558.117.66.142.676.168,1.177.435,1.503.801s.432.777.319,1.232c-.079.32-.244.573-.494.759-.25.186-.623.332-1.12.44.553.243.941.526,1.164.85.223.323.283.692.18,1.106-.133.537-.479.911-1.036,1.122-.558.211-1.233.218-2.028.021-.144-.036-.413-.111-.807-.224-.394-.113-.72-.202-.979-.266-.108-.027-.259-.061-.453-.103-.193-.042-.411-.086-.654-.134l.073-.295ZM32.24,89.49c.178.097.356.181.533.252s.354.127.527.17c.538.134.984.12,1.338-.042.354-.162.582-.452.687-.872.111-.446.027-.818-.251-1.117-.278-.298-.76-.532-1.446-.702-.112-.028-.224-.055-.338-.081s-.262-.058-.445-.094c-.031.123-.077.304-.14.543s-.108.414-.135.525c-.045.182-.091.376-.139.58s-.111.484-.192.838ZM32.948,86.594c.074.025.154.048.241.071.087.023.217.056.391.099.187.047.361.086.521.12.161.034.317.061.468.084.277-.093.501-.221.67-.383.169-.162.283-.359.34-.591.092-.373.032-.7-.18-.982-.212-.282-.55-.48-1.013-.595-.102-.025-.221-.049-.356-.07-.136-.021-.29-.041-.464-.059-.107.391-.23.845-.367,1.363-.137.518-.221.832-.252.943Z" style="fill: #fff;"/>
        <path d="M41.249,84.447c.513-.037.975-.004,1.388.099.412.103.792.28,1.139.531.415.304.742.668.98,1.09.239.423.376.88.411,1.372.036.501-.04.983-.228,1.445s-.472.869-.854,1.221c-.305.283-.668.513-1.087.69s-.845.281-1.277.312c-.54.039-1.043-.015-1.509-.161s-.886-.381-1.258-.707c-.34-.297-.608-.639-.803-1.026s-.309-.8-.34-1.241c-.034-.477.034-.934.205-1.373.17-.438.435-.831.793-1.178.324-.314.695-.564,1.116-.749.421-.184.862-.293,1.324-.326ZM44.06,87.777c-.063-.878-.367-1.581-.913-2.107-.546-.527-1.204-.763-1.973-.708-.739.053-1.314.337-1.727.851-.413.515-.59,1.177-.532,1.985.064.899.371,1.619.919,2.159.549.54,1.204.783,1.967.729.735-.052,1.31-.343,1.725-.872.415-.528.593-1.208.534-2.038Z" style="fill: #fff;"/>
        <path d="M47.445,83.227l.125.282c-.019.008-.045.019-.081.031-.035.012-.061.022-.076.029-.244.108-.378.254-.4.436-.023.182.086.543.325,1.083l.291.656.381.859c.199.448.361.772.486.972.125.199.255.352.387.459.284.232.608.36.973.386.365.025.756-.054,1.173-.24.312-.139.568-.3.767-.485.199-.184.346-.397.439-.637.093-.24.12-.496.082-.767-.039-.271-.183-.687-.432-1.249-.3-.675-.56-1.239-.782-1.693-.221-.453-.368-.722-.438-.807-.1-.108-.206-.167-.32-.176-.113-.009-.272.031-.476.122l-.07.031-.125-.282c.037-.016.092-.039.164-.068.435-.17.744-.295.926-.376.179-.08.478-.224.896-.432.073-.036.126-.061.16-.076l.125.282-.056.025c-.182.081-.31.162-.383.244s-.108.18-.105.295c.001.095.07.317.207.666.136.349.374.905.713,1.669l.184.415c.194.437.324.78.389,1.027.066.248.096.479.091.693-.01.445-.18.867-.51,1.265s-.783.725-1.357.98c-.399.177-.789.287-1.171.331-.382.044-.735.018-1.058-.077-.35-.096-.642-.264-.878-.502s-.467-.615-.695-1.13c-.088-.199-.23-.526-.425-.982-.194-.455-.348-.81-.461-1.065l-.057-.129c-.211-.476-.386-.75-.523-.821-.137-.072-.334-.051-.591.063l-.084.037-.125-.282c.224-.086.437-.171.637-.253.2-.082.382-.16.546-.233.198-.088.398-.18.599-.276.201-.096.405-.196.61-.301Z" style="fill: #fff;"/>
        <path d="M56.79,84.995l.136-.114c.184-.154.298-.284.342-.39.044-.106.036-.226-.025-.361-.037-.091-.239-.366-.606-.824-.368-.458-.949-1.162-1.745-2.114l-.929-1.11-.786.657c-.381.319-.6.58-.657.784s.005.48.187.829l-.294.163c-.12-.243-.248-.473-.385-.69-.137-.217-.284-.419-.441-.607.115-.021.298-.122.551-.301.253-.18.676-.518,1.27-1.015l.949-.794c.789-.66,1.289-1.093,1.501-1.3.212-.207.345-.372.397-.494.019.023.049.061.088.113.039.052.069.091.091.116.122.146.256.291.4.435s.3.286.466.427l-.21.247c-.25-.236-.48-.348-.688-.336-.208.012-.523.185-.945.518l-.735.615c.108.134.262.323.461.567.525.638.878,1.066,1.061,1.284.689.824,1.162,1.377,1.418,1.66.256.283.429.448.518.496.103.055.208.067.313.034.105-.032.238-.116.399-.251l.136-.114.204.244c-.223.171-.432.334-.626.489-.195.155-.367.295-.518.421-.132.111-.293.249-.482.415-.189.166-.393.348-.611.546l-.204-.244Z" style="fill: #fff;"/>
        <path d="M56.436,77.048c.162-.173.322-.346.477-.52s.306-.346.45-.516c.123-.144.257-.307.403-.489.147-.182.299-.376.459-.582l.235.2-.056.066c-.142.168-.232.308-.268.421s-.029.221.024.323c.035.066.109.154.22.263s.301.279.568.506l.689.585,1.724,1.464c.273.231.47.387.593.467.123.08.224.127.303.141.086.016.179-.009.277-.074s.215-.176.348-.333l.069-.081.242.206c-.197.214-.378.413-.543.597-.164.184-.3.34-.407.466-.127.15-.268.32-.423.512s-.316.395-.482.609l-.242-.206.066-.077c.136-.16.227-.293.274-.4.047-.107.056-.201.026-.284-.032-.089-.113-.201-.242-.336-.13-.135-.381-.36-.752-.675l-.547-.464-1.354-1.149c-.362-.308-.625-.521-.787-.641-.162-.12-.283-.194-.363-.222-.107-.038-.212-.031-.316.021s-.228.163-.372.333l-.059.07-.235-.2Z" style="fill: #fff;"/>
        <path d="M66.614,73.585l1.121-.696c.542-.344.945-.634,1.207-.869s.468-.484.618-.745c.049-.085.099-.189.152-.311s.111-.272.174-.45l.274.087c-.134.477-.242.825-.324,1.045-.083.22-.168.407-.258.563-.358.625-1.4,1.415-3.127,2.37l-.214.117c-.012.021-.029.053-.05.097s-.039.076-.05.097c-.515.898-1.215,1.481-2.102,1.75-.887.269-1.75.163-2.59-.318-.42-.241-.764-.554-1.031-.939-.268-.385-.449-.825-.545-1.321-.084-.438-.085-.883-.003-1.335s.239-.882.473-1.29c.252-.44.537-.802.853-1.087.317-.284.675-.501,1.074-.65.488-.176.975-.246,1.459-.21s.94.176,1.365.42c.651.373,1.11.88,1.378,1.521.267.641.316,1.359.146,2.154ZM64.671,70.962c-.764-.438-1.517-.577-2.258-.418s-1.305.574-1.688,1.242c-.368.642-.454,1.279-.257,1.908.197.63.647,1.146,1.351,1.549.79.453,1.559.6,2.308.44.749-.159,1.319-.581,1.711-1.264.36-.628.435-1.258.224-1.892-.211-.633-.674-1.155-1.391-1.566Z" style="fill: #fff;"/>
        <path d="M63.166,65.473l.296.087c-.006.02-.015.047-.029.081-.013.035-.022.06-.027.077-.075.256-.051.452.074.587.124.135.47.286,1.036.453l.688.203.902.265c.471.139.822.224,1.056.258s.433.034.601.002c.361-.067.668-.231.924-.492.255-.262.447-.611.576-1.049.096-.328.139-.627.127-.898-.012-.271-.079-.52-.202-.747-.123-.226-.3-.412-.532-.558-.232-.146-.642-.305-1.232-.479-.709-.209-1.307-.375-1.796-.499-.489-.124-.789-.187-.899-.188-.147.006-.26.049-.341.13-.08.08-.152.228-.215.442l-.022.073-.296-.087c.012-.039.03-.095.054-.169.152-.442.256-.758.313-.95.055-.188.139-.509.25-.963.02-.079.035-.136.046-.172l.296.087-.017.058c-.056.192-.077.341-.061.45s.068.199.157.271c.074.061.287.152.641.273.354.122.932.301,1.733.536l.436.128c.459.135.804.258,1.035.368.231.11.427.237.587.379.333.295.544.698.634,1.207.09.509.046,1.066-.131,1.669-.123.419-.292.788-.506,1.107-.214.32-.462.572-.743.757-.3.204-.617.319-.951.344-.334.025-.771-.042-1.312-.201-.209-.061-.55-.165-1.023-.312s-.843-.259-1.11-.337l-.135-.04c-.5-.147-.821-.191-.965-.133s-.255.222-.334.491l-.026.088-.296-.087c.079-.227.153-.443.219-.649.067-.206.126-.395.176-.567.061-.208.12-.419.177-.635s.112-.436.166-.66Z" style="fill: #fff;"/>
        <path d="M64.493,60.478c.071-.588.132-1.114.183-1.578.051-.464.091-.864.122-1.201.034-.374.063-.752.088-1.135.025-.383.047-.773.064-1.168.226.017.459.028.697.032.238.005.477.006.717.004l-.003.341c-.364-.006-.62.097-.768.308s-.255.685-.322,1.423c-.017.189-.044.534-.08,1.037-.006.101-.011.176-.015.223.361.039.803.089,1.326.15.523.061.863.1,1.019.117l.014-.157c.018-.199.042-.447.074-.745.032-.298.052-.497.061-.598.044-.488.032-.814-.035-.978-.067-.164-.21-.263-.429-.296l.056-.316c.185.04.356.074.515.1s.306.045.441.058c.078.007.248.014.509.02.094.002.165.003.214.004l-.021.329-.036-.003c-.256-.023-.437.045-.542.203-.105.158-.186.544-.241,1.157l-.081.899-.033.364c.148.013.352.033.612.06.26.027.448.045.562.056.199.018.406.035.622.051.216.016.469.032.759.048.033-.167.064-.357.092-.57.028-.213.054-.448.077-.704.076-.845.053-1.409-.069-1.689-.122-.281-.384-.519-.785-.715l.141-.354c.241.124.479.235.713.334.234.099.468.188.7.267-.066.527-.123,1.018-.174,1.472-.05.454-.091.864-.124,1.232-.045.502-.101,1.312-.169,2.429l-.012.182-.294-.026c.005-.023.009-.046.013-.068.003-.022.007-.054.011-.098.04-.448-.503-.726-1.629-.834-.283-.029-.504-.052-.663-.07l-1.232-.131c-.265-.027-.522-.053-.772-.077-.25-.024-.521-.049-.813-.076-.259-.023-.443.014-.552.113-.109.099-.176.286-.201.563l-.004.04-.303-.027Z" style="fill: #fff;"/>
      </g>
      <g>
        <path d="M9.402,40.122l.152.026c.209.035.428.065.656.088.228.023.469.041.722.053v.336c-.442-.013-.812.134-1.111.44-.299.306-.496.738-.59,1.297-.126.744.005,1.357.392,1.839.387.482.999.794,1.836.935.894.151,1.655.041,2.285-.331.63-.371,1.007-.928,1.133-1.669.079-.466.04-.888-.118-1.267-.157-.378-.427-.698-.811-.96l.199-.275c.178.128.361.249.55.36s.379.215.572.309c.092.347.147.695.165,1.042.018.347-.001.69-.058,1.027-.168.992-.61,1.743-1.328,2.253-.718.51-1.577.681-2.578.512-.986-.167-1.734-.627-2.245-1.38-.51-.753-.679-1.644-.505-2.672.052-.305.134-.622.248-.952.114-.329.259-.667.434-1.012Z" style="fill: #fff;"/>
        <path d="M10.586,35.418l.257-.739c1.267.023,2.428.031,3.483.024,1.056-.007,1.853-.024,2.392-.052.312-.02.514-.06.606-.122.092-.061.165-.169.218-.324l.03-.086.296.103c-.089.219-.168.42-.238.603-.07.183-.127.337-.17.463-.056.16-.114.337-.175.531-.061.194-.123.4-.186.619l-.296-.103.028-.082c.071-.203.095-.35.074-.441-.021-.091-.095-.158-.221-.202-.046-.016-.099-.028-.159-.036-.06-.008-.133-.013-.22-.014l-1.463-.037c-.038.109-.091.257-.16.445-.128.341-.209.559-.243.657-.068.195-.131.379-.19.552-.059.174-.118.355-.177.543.443.382.769.651.978.807.209.156.364.252.465.287.141.049.252.046.334-.009.082-.055.156-.178.223-.37l.04-.116.296.103c-.084.205-.161.397-.23.577-.069.18-.128.341-.178.484-.04.115-.087.259-.141.432-.054.174-.11.363-.168.567l-.292-.101c.065-.205.08-.38.045-.526-.035-.145-.125-.293-.272-.443-.279-.277-.852-.794-1.717-1.552-.865-.758-1.822-1.573-2.871-2.444ZM11.46,35.505l2.226,1.876c.019-.054.048-.133.086-.235.121-.32.202-.539.243-.657.05-.143.136-.404.257-.782.026-.084.046-.147.061-.19l-2.874-.012Z" style="fill: #fff;"/>
        <path d="M14.608,27.06c.197.107.397.202.601.283.204.082.412.149.625.203l-.11.344c-.355-.134-.669-.141-.942-.018-.273.122-.514.373-.721.754-.191.351-.261.683-.211.995.051.312.211.542.48.688.442.24,1.075-.022,1.899-.788.108-.103.192-.182.252-.235.382-.347.745-.559,1.088-.634.343-.076.686-.02,1.03.167.53.288.85.723.96,1.304.11.581-.015,1.203-.376,1.865-.138.253-.293.489-.465.707-.172.219-.37.428-.592.627-.025-.017-.055-.036-.091-.057-.035-.021-.087-.05-.157-.088-.189-.103-.381-.194-.576-.272-.195-.079-.396-.147-.603-.204l.112-.405c.461.192.855.229,1.182.11.327-.119.613-.403.858-.853.214-.394.29-.769.226-1.124-.064-.355-.251-.618-.562-.787-.442-.24-.995-.041-1.66.597-.094.09-.168.16-.223.21-.464.441-.884.709-1.26.804-.376.095-.759.037-1.147-.174-.458-.249-.741-.638-.85-1.167-.109-.528-.015-1.066.282-1.611.109-.2.235-.393.378-.581s.336-.407.576-.659Z" style="fill: #fff;"/>
        <path d="M17.377,22.787l.494-.606c1.182.456,2.27.861,3.264,1.216.994.355,1.749.612,2.265.771.3.088.503.119.611.093.107-.026.213-.102.316-.229l.057-.07.243.198c-.159.176-.302.337-.43.485s-.235.273-.319.376c-.107.132-.223.278-.346.439-.124.161-.253.334-.387.517l-.243-.198.055-.067c.136-.167.21-.296.221-.389.011-.093-.035-.181-.139-.266-.038-.031-.083-.06-.137-.088-.054-.028-.121-.057-.202-.088l-1.362-.536c-.073.089-.174.21-.302.363-.237.276-.388.454-.453.534-.13.16-.253.311-.367.454-.115.143-.232.293-.352.449.285.51.5.875.643,1.093.143.218.256.361.338.428.115.094.221.129.317.106.096-.024.208-.114.336-.271l.078-.095.243.198c-.149.164-.287.318-.413.464-.126.145-.237.277-.333.394-.077.094-.17.213-.28.358-.11.145-.228.303-.352.475l-.24-.195c.131-.17.206-.33.223-.478.017-.148-.017-.318-.104-.51-.168-.356-.528-1.038-1.081-2.046-.553-1.008-1.173-2.102-1.86-3.28ZM18.168,23.168l1.448,2.525c.036-.045.09-.108.162-.191.224-.26.375-.438.453-.534.096-.117.266-.333.509-.646.053-.07.094-.123.123-.158l-2.695-.996Z" style="fill: #fff;"/>
        <path d="M27.468,14.447c.117.191.243.373.379.546.136.173.282.335.44.488l-.267.243c-.24-.294-.509-.456-.807-.487-.298-.031-.632.066-1.001.293-.341.209-.568.461-.68.757-.112.296-.088.574.071.836.262.429.942.518,2.038.267.145-.035.257-.061.336-.078.505-.11.925-.112,1.259-.005.335.106.604.326.808.659.315.515.374,1.051.179,1.609-.195.558-.615,1.034-1.258,1.427-.246.15-.498.277-.756.38s-.534.185-.827.247c-.013-.027-.03-.059-.05-.095-.02-.036-.051-.087-.092-.154-.112-.184-.233-.358-.363-.524s-.27-.325-.42-.478l.299-.295c.303.397.626.626.969.687.342.061.732-.043,1.169-.31.383-.234.635-.521.758-.86s.092-.661-.093-.963c-.262-.429-.841-.533-1.736-.313-.127.031-.226.055-.298.07-.622.15-1.12.172-1.494.066-.374-.105-.676-.347-.907-.724-.272-.445-.323-.923-.153-1.436.17-.512.52-.93,1.05-1.255.194-.119.4-.223.618-.314s.494-.185.829-.283Z" style="fill: #fff;"/>
        <path d="M32.537,12.22l.753-.209c.701,1.055,1.355,2.015,1.961,2.879.606.864,1.074,1.51,1.403,1.938.194.245.342.388.445.429.102.041.233.039.39-.004l.088-.024.084.302c-.231.052-.441.1-.631.147-.19.046-.349.087-.478.123-.164.045-.342.098-.536.158-.194.06-.399.126-.615.199l-.084-.302.083-.023c.207-.057.342-.121.405-.19.063-.069.076-.168.04-.297-.013-.047-.033-.097-.061-.151s-.065-.117-.114-.188l-.802-1.224c-.111.031-.263.071-.457.122-.353.088-.579.146-.678.174-.199.055-.386.108-.562.158-.176.051-.359.105-.547.163-.062.581-.098,1.003-.107,1.264-.009.261,0,.443.029.545.04.143.105.233.197.269.092.036.235.027.431-.027l.118-.033.084.302c-.216.047-.418.094-.605.139-.187.046-.354.089-.5.129-.117.032-.262.076-.436.13-.174.054-.361.116-.562.184l-.083-.298c.206-.063.358-.15.458-.262.1-.111.17-.27.21-.476.069-.387.169-1.152.3-2.295.131-1.143.257-2.393.377-3.751ZM32.962,12.988l-.277,2.898c.055-.015.136-.036.242-.062.332-.083.558-.141.678-.174.146-.04.409-.118.789-.233.084-.026.148-.046.192-.058l-1.624-2.371Z" style="fill: #fff;"/>
        <path d="M38.708,10.959c.141.025.278.046.412.064.134.018.266.033.395.044.097.009.21.016.34.021.13.006.272.009.424.01.03.103.076.211.136.322.06.112.137.236.232.372l3.342,4.752c.032-.46.077-1.069.135-1.827.117-1.593.166-2.451.147-2.574-.024-.142-.079-.244-.167-.307s-.235-.103-.443-.122l-.14-.013.028-.312c.036.003.09.01.163.019.427.059.728.097.903.112.178.016.49.033.935.051.064.003.112.005.145.008l-.032.312c-.018-.005-.037-.009-.058-.012-.021-.003-.05-.007-.086-.01-.405-.036-.66.509-.766,1.634-.028.284-.05.505-.064.665l-.125,1.203c-.022.178-.042.361-.06.549s-.042.447-.071.776c-.032.365-.053.65-.062.855s-.009.37.002.495l-.503-.045c-.041-.125-.202-.383-.483-.773l-.04-.058-3.478-4.914-.009.104c-.234,2.827-.336,4.324-.309,4.49.024.142.079.244.167.307.087.063.232.103.434.121l.136.012-.028.317c-.045-.007-.111-.016-.198-.027-.421-.056-.708-.09-.862-.104-.148-.013-.312-.025-.492-.035-.18-.01-.37-.018-.571-.023l.028-.312c.018.002.038.004.061.008.022.004.052.007.088.01.404.036.66-.506.765-1.625.028-.283.05-.505.064-.665l.13-1.202c.026-.259.051-.512.074-.758.023-.246.049-.527.077-.844.023-.26-.011-.444-.102-.552-.091-.109-.263-.174-.516-.197l-.122-.011.028-.312Z" style="fill: #fff;"/>
        <path d="M54.005,15.267l.66.42c-.314,1.227-.589,2.355-.826,3.384-.236,1.029-.403,1.809-.5,2.34-.053.308-.06.514-.021.617.038.103.127.199.265.287l.077.049-.168.265c-.193-.137-.37-.261-.532-.371-.162-.11-.299-.201-.411-.273-.143-.091-.302-.189-.477-.293-.175-.104-.361-.212-.559-.324l.168-.265.073.046c.181.116.319.173.412.173s.176-.056.248-.169c.026-.041.05-.09.071-.146.022-.056.043-.127.064-.21l.373-1.415c-.097-.062-.229-.148-.396-.258-.302-.203-.496-.332-.583-.387-.174-.111-.339-.215-.494-.312-.156-.097-.318-.196-.487-.297-.473.343-.81.598-1.01.766-.2.168-.329.297-.386.386-.08.126-.103.234-.068.327.035.092.138.193.309.302l.104.066-.168.265c-.18-.129-.35-.248-.509-.356-.159-.108-.303-.203-.43-.285-.102-.065-.232-.144-.388-.236s-.328-.191-.513-.294l.166-.261c.185.11.352.166.501.165s.314-.054.494-.163c.334-.208.969-.646,1.905-1.313.937-.667,1.95-1.411,3.039-2.231ZM53.718,16.098l-2.338,1.734c.049.031.118.077.209.138.284.192.478.321.583.387.128.081.362.225.701.43.076.045.133.079.171.104l.673-2.794ZM56.184,13.562l.337.732-2.096.466-.222-.287,1.981-.911Z" style="fill: #fff;"/>
        <path d="M58.786,18.681c.086.114.171.224.256.329.085.105.171.206.258.303.064.072.142.155.234.248.091.093.192.192.302.297-.048.096-.089.205-.122.328s-.061.266-.086.43l-.817,5.751c.338-.313.788-.726,1.349-1.239,1.176-1.081,1.799-1.673,1.87-1.776.08-.12.109-.232.089-.338s-.101-.236-.24-.392l-.094-.105.234-.209c.024.027.059.069.106.125.27.335.464.569.581.7.119.133.334.359.647.678.045.046.078.081.1.106l-.237.205c-.01-.016-.021-.032-.034-.049s-.032-.039-.056-.066c-.27-.303-.829-.081-1.677.667-.215.187-.382.334-.502.441l-.915.791c-.138.114-.277.234-.42.359-.142.125-.337.297-.583.517-.274.244-.484.437-.631.58-.147.143-.259.264-.338.362l-.336-.377c.056-.119.115-.417.177-.894l.011-.07.829-5.963-.078.07c-2.105,1.901-3.205,2.921-3.299,3.062-.08.12-.109.232-.089.338.021.105.099.234.234.385l.091.102-.238.212c-.028-.036-.07-.088-.126-.155-.269-.329-.454-.551-.557-.666-.099-.111-.211-.232-.335-.362-.125-.131-.258-.266-.4-.408l.234-.209c.012.014.025.029.039.047.014.018.033.041.057.068.27.303.827.083,1.67-.661.215-.187.382-.334.502-.441l.918-.788c.197-.171.387-.338.573-.501.185-.163.397-.351.634-.562.194-.173.296-.331.304-.472.008-.141-.072-.307-.242-.497l-.082-.092.234-.209Z" style="fill: #fff;"/>
        <path d="M67.191,30.856c-.194.113-.387.235-.579.367-.192.132-.383.276-.575.432l-.229-.269c.337-.28.519-.611.547-.992.027-.381-.1-.829-.381-1.345-.38-.697-.88-1.126-1.499-1.287-.619-.161-1.304-.037-2.054.372-.806.439-1.331,1.01-1.573,1.711-.242.702-.166,1.414.228,2.138.083.152.181.296.296.434.115.138.251.276.409.414.209-.104.387-.193.533-.267.146-.074.264-.136.354-.185.455-.248.701-.448.738-.599.037-.151-.038-.398-.226-.742l-.03-.056.271-.148c.113.232.219.446.319.642s.186.36.259.493c.106.194.207.374.305.54s.194.323.288.472l-.271.148c-.122-.224-.245-.346-.368-.366-.123-.021-.41.092-.86.337l-.415.226c-.205.112-.362.201-.473.268-.11.067-.214.134-.312.201-.066-.078-.168-.193-.303-.347-.53-.605-.891-1.085-1.084-1.438-.503-.923-.637-1.809-.402-2.657s.797-1.514,1.686-1.998,1.775-.58,2.658-.286c.883.294,1.584.917,2.103,1.869.157.287.288.591.395.911.107.32.189.655.246,1.007Z" style="fill: #fff;"/>
        <path d="M68.423,33.198c.151.509.288.963.412,1.362.124.4.234.743.33,1.03.107.319.219.64.336.964s.241.65.371.981c-.215.075-.432.157-.653.247-.221.09-.442.183-.662.279l-.122-.28c.337-.138.535-.323.594-.553s-.017-.66-.227-1.29c-.054-.161-.156-.454-.308-.88-.032-.085-.054-.148-.068-.188-.347.109-.772.242-1.276.398-.504.156-.831.257-.982.304l.045.134c.057.17.125.382.206.638.081.256.135.427.164.513.139.417.27.679.392.787s.29.132.504.074l.065.28c-.185.039-.355.08-.511.12s-.298.083-.428.126c-.075.025-.233.086-.476.183-.087.035-.153.062-.198.081l-.102-.277.034-.012c.244-.082.386-.208.424-.379.039-.171-.029-.518-.204-1.041l-.256-.767-.104-.31c-.141.047-.336.111-.586.191-.25.08-.429.138-.538.175-.19.063-.387.131-.591.202-.205.071-.443.158-.716.259.031.149.072.317.125.502.052.185.115.387.188.606.241.721.469,1.173.685,1.355.216.182.544.274.986.277v.345c-.267-.006-.527-.004-.779.006-.252.011-.5.03-.743.056-.134-.457-.261-.881-.382-1.272s-.234-.743-.339-1.056c-.143-.428-.389-1.113-.739-2.054l-.056-.154.28-.094c.004.021.008.041.013.06.005.019.013.047.026.085.128.382.73.397,1.807.043.271-.087.483-.155.637-.203l1.183-.376c.254-.082.5-.162.739-.24.239-.078.498-.164.777-.257.247-.083.403-.186.467-.309s.057-.303-.022-.539l-.012-.034.289-.096Z" style="fill: #fff;"/>
        <path d="M70.512,39.954c.04.322.071.567.094.734.023.167.043.301.062.402.035.194.073.383.115.568.041.185.086.369.135.551l-.313.057-.025-.139c-.043-.236-.153-.38-.33-.434-.178-.054-.558-.028-1.142.078l-.889.162-3.273.608c.021.169.043.329.066.48.023.151.047.294.071.428.145.799.313,1.301.502,1.505.19.204.509.336.957.397l-.04.34c-.273-.046-.54-.082-.8-.109s-.521-.044-.781-.052c-.075-.498-.147-.955-.215-1.372-.068-.417-.135-.808-.201-1.172-.047-.256-.102-.542-.167-.857-.065-.315-.144-.685-.237-1.112l.291-.053c0,.021.002.042.004.062.002.02.007.049.014.088.076.402.686.501,1.831.296.259-.047.462-.082.609-.106l1.217-.212c.131-.024.3-.053.506-.087.206-.034.349-.059.43-.073.548-.1.897-.208,1.046-.326.149-.118.201-.304.155-.557l-.006-.036.317-.058Z" style="fill: #fff;"/>
      </g>
      <g>
        <path d="M52.145,51.692c-.567-1.152-1.742-2.107-2.794-2.818-.848-.573-1.711-1.07-2.62-1.539l-2.21-1.14c-.777-.401-1.413-.948-1.946-1.618-.57-.716-.905-1.576-.892-2.491.022-1.582,1.127-2.526,2.696-2.502.764.012,1.432.412,1.815,1.067.525.899.308,1.634.527,2.712.067.331.222.708.566.82.152.724.469,1.969,1.005,2.483.231.222.462.415.733.637-.164-.626-.438-1.693-.352-2.308l.154-1.108c1.559-1.693,1.249-3.859-.331-5.415-2.356-2.321-6.16-1.324-7.814,1.278-.415.653-.65,1.37-.701,2.137-.099,1.496.609,2.755,1.555,3.854.524.608,1.083,1.147,1.691,1.674.632.547,1.273,1.035,1.926,1.558l2.04,1.632c.542.433,1.014.908,1.488,1.409,1.168,1.235,1.754,2.852,1.657,4.555-.079,1.379-.519,2.602-1.159,3.823-.021.051-.017.059.035.029,1.582-1.731,3.235-4.335,3.314-6.721.023-.706-.071-1.375-.382-2.007Z" style="fill: #fff;"/>
        <path d="M49.211,57.914c.165-.583.226-1.145.199-1.75-.028-.634-.21-1.222-.509-1.784-.541-1.017-1.356-1.837-2.335-2.442-.718-.443-1.43-.705-2.138-.84-.832-1.145-2.837-3.465-6.392-4.994-1.656-.712-5.258-1.692-5.298-1.663.001-.004.002-.008.003-.011-.312.467-.522.937-.744,1.439-.395.893-.655,1.811-.779,2.773-.124.958-.059,1.86.157,2.701.103.399.219.703.341.932-2.038-.581-3.718-1.902-5.108-3.676.185.809.509,1.538.918,2.232,1.248,2.121,3.372,3.142,5.755,3.444,1.191.151,2.369.146,3.569.009,1.383-.158,2.716-.413,4.069-.711.981-.216,1.427-.257,2.435-.202,1.775.097,3.254,1.244,4.056,2.788.42.804.639,1.673.723,2.578.048.479.027.919.026,1.448.481-.698.824-1.461,1.053-2.271Z" style="fill: #fff;"/>
        <path d="M34.76,59.331c1.559-.043,3.077-.311,4.559-.802,1.42-.471,2.784-1.082,4.062-1.922-2.23.717-4.441,1.047-6.738,1.066l-1.155.009c-1.636.013-3.601-.28-5.123-.932-1.357-.581-2.511-1.504-3.372-2.702-1.041-1.448-1.543-3.1-1.757-4.846-.101.553-.107,1.067-.111,1.616-.007.976.119,1.922.387,2.854,1.178,4.094,5.291,5.753,9.248,5.659Z" style="fill: #fff;"/>
        <path d="M38.732,62.181c-2.2-.091-4.275-.894-6.061-2.216.763,1.557,2.035,2.713,3.565,3.424,2.573,1.196,6.032,1.31,8.499-.201,1.13-.692,1.943-1.738,2.297-3.018.168-.609.278-1.224.258-1.876-2.147,2.564-5.233,4.033-8.559,3.888Z" style="fill: #fff;"/>
      </g>
    </g>
  </g>
</svg>