<?xml version="1.0" encoding="UTF-8"?>
<svg id="b" data-name="Layer 2" xmlns="http://www.w3.org/2000/svg" viewBox="0 0 190.209 101.413">
  <g id="c" data-name="Layer 1">
    <g>
      <g>
        <g>
          <path d="M19.635,100.788v-8.668h.819v3.72h5.129v-3.72h.819v8.668h-.819v-4.25h-5.129v4.25h-.819Z" style="fill: #fff;"/>
          <path d="M31.494,96.466c0-.634.086-1.228.259-1.782.172-.554.427-1.037.764-1.451.337-.413.754-.74,1.252-.981.498-.241,1.072-.361,1.722-.361.674,0,1.266.118,1.776.355.509.237.935.562,1.276.975.341.413.598.899.77,1.457s.259,1.154.259,1.788c0,.626-.087,1.214-.259,1.764s-.427,1.031-.764,1.444c-.337.414-.759.741-1.264.981s-1.092.361-1.758.361-1.252-.12-1.758-.361-.927-.568-1.264-.981c-.337-.413-.59-.895-.759-1.444s-.253-1.138-.253-1.764ZM35.539,100.318c.562,0,1.045-.106,1.451-.319.405-.212.738-.495.999-.849s.453-.762.578-1.228c.125-.465.187-.951.187-1.457,0-.602-.074-1.142-.223-1.619-.149-.477-.363-.885-.644-1.222-.281-.337-.622-.594-1.023-.771-.402-.176-.851-.265-1.348-.265-.554,0-1.034.108-1.439.325s-.738.504-.999.861c-.261.357-.454.769-.578,1.234-.125.466-.187.951-.187,1.457,0,.514.062,1.003.187,1.469.124.466.317.875.578,1.228.261.353.594.634.999.842.405.209.893.313,1.463.313Z" style="fill: #fff;"/>
          <path d="M43.906,92.119h6.309v.698h-2.745v7.97h-.819v-7.97h-2.745v-.698Z" style="fill: #fff;"/>
          <path d="M54.874,100.788v-8.668h5.767v.698h-4.948v3.131h4.466v.698h-4.466v3.443h5.068v.698h-5.887Z" style="fill: #fff;"/>
          <path d="M65.722,100.788v-8.668h.819v7.97h4.647v.698h-5.466Z" style="fill: #fff;"/>
        </g>
        <g>
          <path d="M81.4,100.787v-8.668h3.13c.506,0,.939.052,1.3.157s.656.253.885.445c.229.192.395.423.5.692s.157.564.157.885c0,.305-.04.568-.12.789-.08.221-.185.405-.313.554-.128.149-.275.265-.44.349-.164.084-.335.142-.511.175v.024c.602.089,1.049.325,1.342.711.293.385.44.867.44,1.445,0,.449-.07.831-.211,1.143-.141.313-.335.566-.584.759-.249.193-.548.331-.897.415-.349.084-.728.126-1.138.126h-3.54ZM82.219,95.948h2.071c.426,0,.783-.036,1.072-.109s.522-.178.698-.319c.176-.141.303-.313.379-.518s.114-.44.114-.704c0-.273-.044-.504-.132-.693-.089-.188-.229-.341-.421-.457-.193-.116-.444-.201-.753-.253-.309-.052-.688-.078-1.138-.078h-1.89v3.131ZM82.219,100.089h2.083c.449,0,.841-.02,1.174-.06s.608-.122.825-.247c.217-.125.379-.301.488-.53.109-.229.163-.532.163-.909,0-.362-.06-.652-.181-.873-.12-.221-.293-.391-.518-.512-.225-.12-.493-.203-.807-.247s-.662-.066-1.047-.066h-2.179v3.443Z" style="fill: #fff;"/>
          <path d="M92.585,96.465c0-.634.086-1.228.259-1.782.172-.554.427-1.037.764-1.451.337-.413.754-.74,1.252-.981s1.072-.361,1.722-.361c.674,0,1.266.118,1.776.355.509.237.935.562,1.276.975.341.413.598.899.77,1.457.173.558.259,1.154.259,1.788,0,.626-.087,1.214-.259,1.764-.173.55-.427,1.031-.764,1.444-.337.414-.759.741-1.264.981s-1.092.361-1.758.361-1.252-.12-1.758-.361-.927-.568-1.264-.981c-.337-.413-.59-.895-.759-1.444s-.253-1.138-.253-1.764ZM96.63,100.318c.562,0,1.045-.106,1.451-.319.405-.212.738-.495.999-.849s.453-.762.578-1.228c.125-.465.187-.951.187-1.457,0-.602-.074-1.142-.223-1.619-.149-.477-.363-.885-.644-1.222-.281-.337-.622-.594-1.023-.771-.402-.176-.851-.265-1.348-.265-.554,0-1.034.108-1.439.325s-.738.504-.999.861c-.261.357-.454.769-.578,1.234-.125.466-.187.951-.187,1.457,0,.514.062,1.003.187,1.469.124.466.317.875.578,1.228.261.353.594.634.999.842.405.209.893.313,1.463.313Z" style="fill: #fff;"/>
          <path d="M105.792,92.119h.819v5.165c0,1.076.201,1.85.602,2.324s1.047.71,1.938.71c.465,0,.861-.062,1.186-.187.325-.124.588-.313.789-.566.2-.253.345-.568.433-.945.088-.377.132-.823.132-1.336v-5.165h.819v5.406c0,1.131-.279,1.996-.837,2.594-.558.598-1.399.897-2.522.897-1.132,0-1.975-.305-2.528-.915-.554-.61-.831-1.469-.831-2.576v-5.406Z" style="fill: #fff;"/>
          <path d="M117.181,92.119h6.309v.698h-2.745v7.97h-.819v-7.97h-2.745v-.698Z" style="fill: #fff;"/>
          <path d="M128.438,100.787v-8.668h.819v8.668h-.819Z" style="fill: #fff;"/>
          <path d="M142.524,100.859l-.458.554-1.276-.987c-.297.185-.624.329-.981.433s-.752.157-1.186.157c-.666,0-1.252-.12-1.758-.361s-.927-.568-1.264-.981c-.337-.413-.59-.895-.759-1.444s-.253-1.138-.253-1.764c0-.602.082-1.178.247-1.728.165-.55.411-1.035.741-1.457.329-.422.744-.759,1.246-1.012.502-.253,1.09-.379,1.764-.379.61,0,1.166.1,1.667.301s.931.493,1.288.879c.357.385.634.863.831,1.433.196.57.295,1.224.295,1.963,0,.706-.108,1.361-.325,1.963-.217.602-.542,1.115-.975,1.541l1.156.891ZM140.766,99.499c.369-.353.642-.796.819-1.33.176-.534.265-1.101.265-1.703,0-.65-.082-1.216-.247-1.698-.165-.481-.391-.885-.68-1.21s-.63-.568-1.024-.728c-.393-.16-.823-.24-1.288-.24-.554,0-1.034.108-1.439.325s-.739.506-.999.867c-.261.361-.454.775-.578,1.24-.125.466-.187.947-.187,1.445,0,.514.062,1.003.187,1.469.125.466.317.875.578,1.228.26.353.594.634.999.842.405.209.893.313,1.463.313.305,0,.582-.034.831-.102.249-.068.477-.162.686-.283l-.987-.758.433-.566,1.168.891Z" style="fill: #fff;"/>
          <path d="M147.857,92.119h.819v5.165c0,1.076.201,1.85.602,2.324.401.474,1.047.71,1.938.71.465,0,.861-.062,1.186-.187.325-.124.588-.313.789-.566.2-.253.345-.568.433-.945.088-.377.132-.823.132-1.336v-5.165h.819v5.406c0,1.131-.279,1.996-.837,2.594-.558.598-1.399.897-2.522.897-1.132,0-1.975-.305-2.528-.915-.554-.61-.831-1.469-.831-2.576v-5.406Z" style="fill: #fff;"/>
          <path d="M160.029,100.787v-8.668h5.767v.698h-4.948v3.131h4.466v.698h-4.466v3.443h5.068v.698h-5.887Z" style="fill: #fff;"/>
        </g>
      </g>
      <path d="M83.255,23.756c-.597-.647-1.663.063-1.904.297-1.073,1.038-2.384,2.548-3.639,3.36-2.043,1.322-3.914,2.249-5.335,1.445-1.478-.836.193-3.363.35-4.992.158-1.629-.516-3.452-1.995-4.152-1.237-.586-2.735-.265-3.929.404-1.193.669-2.027,1.892-3.259,2.486-8.664,4.177-10.077,4.163-10.077,4.163,0,0-3.018-1.237-2.411-3.222.293-.958,1.545-1.215,2.342-1.621,2.345-1.194.288-3.365-1.391-2.038-1.676,1.325-2.842,2.276-4.221,3.576-1.527,1.44-3.135,2.792-4.795,4.077-1.238.959-3.179,2.207-4.632,1.143-1.993-1.463-.687-4.158-.352-5.877.413-2.113-1.397-3.38-3.3-3.552-2.554-.231-4.465,1.472-5.854,3.452-2.034,2.901-3.621,5.718-6.58,7.795-2.317,1.626-4.789,3.029-7.372,4.184-3.761,1.682-9.342,2.877-11.966-1.356-1.561-2.518-.832-5.908.182-8.485,2.477-6.299,7.082-11.548,12.17-16.011,2.601-2.282,5.375-4.41,8.485-5.927,1.806-.88,6.028-1.759,6.23,1.456.019.304.021.703.167.973.112.207.369.356.587.267.154-.063.255-.202.321-.38.164-.448.095-1.14.037-1.456-.124-.679-.454-1.305-.892-1.833-.898-1.083-2.274-1.811-3.68-1.915-2.548-.189-4.954,1.112-7.097,2.503-5.394,3.503-10.251,7.914-14.014,13.146-3.905,5.43-8.859,15.398-2.064,20.642,2.944,2.272,7.006,2.789,10.548,1.842,4.57-1.222,8.349-4.355,11.966-7.404.536,1.022,2.05.86,3.112.409,2.06-.874,3.889-2.285,5.257-4.055.619,2.815,3.314,4.697,6.138,4.126,2.631-.533,5.413-2.697,7.368-4.698.236-.242.616-.268.883-.061.811.626,2.327,1.678,2.794,1.418-2.169,1.205-4.212,2.637-6.088,4.261-1.72,1.489-3.957,3.36-4.952,5.453-1.433,3.013,1.934,4.225,4.292,3.529,5.44-1.606,12.363-6.51,11.321-12.866,1.946-.696,2.833-1.23,4.522-1.844-.703,1.442-2.026,4.234.305,4.713,1.446.297,2.782-.082,3.953-.824.612-.388,1.849-1.115,2.456-1.51.412-.268,1.128-.859,1.557-1.096.698-.386.206-.132.581.461,1.57,2.484,4.001,3.669,6.776,2.706,1.549-.538,5.174-3.194,6.553-4.718,1.036-1.145,1.141-1.747.544-2.394ZM34.181,23.909c-1.468,1.316-2.823,3.013-3.863,3.349-.431.139-.775-.388-.499-.747.887-1.153,2.963-3.702,4.362-4.22,0,0,1.956-.135,0,1.619ZM53.356,30.967c-.478,1.158-1.511,1.976-2.497,2.749-1.241.973-2.473,1.959-3.736,2.904-.694.519-3.497,3.206-4.381,2.238-.173-.19-.133-.487-.059-.732.503-1.648,2.076-2.573,3.333-3.604,1.484-1.217,3.011-2.383,4.577-3.493.511-.362,1.03-.72,1.604-.968.116-.05.246-.091.378-.115.332-.06.674-.013.827.268.124.229.054.512-.045.753ZM68.722,23.909c-1.468,1.316-2.823,3.013-3.863,3.349-.431.139-.775-.388-.499-.747.887-1.153,2.963-3.702,4.362-4.22,0,0,1.956-.135,0,1.619Z" style="fill: #fff;"/>
      <g>
        <path d="M.752,81.222v-1.629c.086,0,.179.004.28.012.1.008.244.012.43.012,1.906,0,2.873-2.918,2.902-8.755.014-1.479.028-2.635.043-3.469l.086-6.277c.014-1.353.025-2.67.032-3.953.007-1.282.011-2.749.011-4.401,0-1.353-.23-2.289-.688-2.808-.459-.519-1.276-.779-2.451-.779h-.172v-1.628c.946.047,1.824.091,2.634.13.81.039,1.487.059,2.031.059,1.576,0,3.314-.067,5.213-.201,1.899-.134,3.013-.2,3.343-.2,5.331,0,9.531,1.487,12.597,4.46,3.067,2.974,4.601,7.017,4.601,12.13,0,5.255-1.537,9.483-4.611,12.685-3.074,3.202-7.184,4.802-12.329,4.802-.76,0-2.143-.063-4.149-.189-2.007-.126-3.633-.189-4.88-.189-.588,0-1.304.016-2.15.047-.846.031-1.77.079-2.773.141ZM8.362,78.366c1.046.252,2.075.437,3.085.555,1.01.118,2.024.177,3.042.177,4.041,0,7.14-1.211,9.297-3.635,2.157-2.423,3.236-5.884,3.236-10.384,0-4.799-1.161-8.559-3.483-11.281-2.322-2.722-5.546-4.083-9.674-4.083-.846,0-1.706.035-2.58.106-.875.071-1.77.177-2.687.319-.086,5.727-.147,10.242-.183,13.546-.036,3.304-.054,6.057-.054,8.26v6.419Z" style="fill: #fff;"/>
        <path d="M32.186,47.545c2.508.094,4.751.165,6.729.212,1.978.047,3.683.071,5.117.071,1.591,0,3.2-.024,4.826-.071,1.626-.047,3.278-.118,4.955-.212.014,1.18.057,2.388.129,3.622.072,1.235.158,2.474.258,3.717l-1.44.142c-.115-1.888-.645-3.166-1.591-3.835-.946-.669-2.988-1.003-6.127-1.003-.803,0-2.272.024-4.407.071-.43.016-.745.024-.946.024-.029,1.888-.072,4.201-.129,6.938-.058,2.737-.093,4.515-.108,5.333h.667c.845,0,1.902.012,3.17.035,1.269.024,2.118.035,2.548.035,2.078,0,3.45-.212,4.117-.637.667-.425,1.028-1.211,1.086-2.36l1.354.141c-.1.976-.176,1.88-.226,2.714-.05.834-.075,1.605-.075,2.313,0,.409.036,1.29.108,2.643.029.488.05.858.064,1.109l-1.397.047v-.189c0-1.337-.355-2.242-1.064-2.714-.71-.472-2.369-.708-4.977-.708h-5.374c0,.771-.007,1.837-.021,3.198-.014,1.361-.021,2.34-.021,2.938,0,1.038.007,2.12.021,3.245.014,1.125.043,2.443.086,3.953.717.095,1.53.165,2.44.212.91.047,1.91.071,2.999.071,3.597,0,5.966-.381,7.105-1.145,1.14-.763,2.046-2.23,2.72-4.401l1.548.566c-.43,1.306-.81,2.588-1.14,3.847-.33,1.259-.617,2.51-.86,3.752-2.25-.094-4.342-.165-6.277-.212-1.935-.047-3.683-.071-5.245-.071-2.136,0-5.575.087-10.319.26l-.774.024v-1.534c.1.016.197.028.29.035.093.008.233.012.42.012,1.906,0,2.873-2.942,2.902-8.826.014-1.479.029-2.635.043-3.469l.086-6.443c.014-1.384.025-2.729.032-4.035.007-1.306.01-2.722.01-4.248,0-1.353-.229-2.289-.688-2.808-.459-.519-1.276-.779-2.451-.779h-.172v-1.581Z" style="fill: #fff;"/>
        <path d="M101.855,48.607v.802c0,1.101.036,2.246.108,3.434.071,1.188.179,2.435.322,3.741l-1.57.283c-.287-2.265-1.261-4.031-2.924-5.298-1.662-1.266-3.834-1.9-6.513-1.9-3.569,0-6.324,1.2-8.266,3.599-1.942,2.399-2.913,5.802-2.913,10.207,0,4.704,1.114,8.508,3.342,11.41,2.229,2.903,5.12,4.354,8.674,4.354,2.236,0,4.174-.566,5.815-1.699,1.641-1.133,2.92-2.793,3.837-4.98l1.44.779c-.459,1.023-.874,2.065-1.247,3.127-.373,1.062-.702,2.128-.989,3.198-1.548.771-3.125,1.353-4.73,1.746-1.605.393-3.218.59-4.837.59-4.759,0-8.61-1.616-11.555-4.85-2.945-3.233-4.418-7.485-4.418-12.756,0-5.192,1.555-9.42,4.665-12.685,3.11-3.265,7.13-4.897,12.06-4.897,1.461,0,3.006.15,4.632.448,1.627.299,3.314.747,5.063,1.345Z" style="fill: #fff;"/>
        <path d="M118.794,47.545h3.698c1.863,6.251,3.63,11.958,5.299,17.122,1.67,5.164,2.985,9.045,3.945,11.643.573,1.496,1.068,2.417,1.483,2.763.416.347,1.01.52,1.784.52h.43v1.629c-1.118-.063-2.139-.11-3.063-.141-.924-.031-1.702-.047-2.332-.047-.803,0-1.684.016-2.644.047-.96.031-1.978.079-3.052.141v-1.629h.408c1.018,0,1.712-.13,2.085-.39s.559-.737.559-1.431c0-.252-.029-.532-.086-.839-.058-.308-.15-.674-.28-1.1l-2.107-7.237c-.545,0-1.29-.008-2.236-.024-1.72-.047-2.824-.071-3.311-.071-.975,0-1.895.004-2.762.012-.867.008-1.766.028-2.698.059-1.018,2.822-1.713,4.88-2.085,6.173-.373,1.293-.559,2.215-.559,2.767,0,.773.186,1.313.559,1.62.372.307,1.039.46,1.999.46h.58v1.629c-1.046-.063-2.024-.11-2.934-.141-.91-.031-1.724-.047-2.44-.047-.573,0-1.29.016-2.15.047-.86.031-1.791.079-2.794.141v-1.605c1.017-.031,1.823-.256,2.418-.673.595-.418,1.114-1.114,1.559-2.09.802-1.842,2.225-5.53,4.267-11.064,2.042-5.534,4.196-11.616,6.46-18.244ZM119.762,51.982l-4.923,14.112c.272,0,.666.008,1.182.024,1.619.047,2.723.071,3.31.071.717,0,2.013-.024,3.891-.071.416-.015.731-.024.946-.024l-4.407-14.112Z" style="fill: #fff;"/>
        <path d="M138.185,79.688c.115.016.226.028.333.035.107.008.276.012.505.012,1.146,0,1.924-.413,2.332-1.239.409-.826.612-2.67.612-5.534,0-.472-.007-1.314-.021-2.525-.014-1.211-.021-2.21-.021-2.997v-6.419c0-.865.007-2.222.021-4.071.014-1.849.021-3.26.021-4.236,0-1.337-.233-2.269-.699-2.796-.466-.527-1.279-.791-2.44-.791h-.344v-1.581c2.967.079,5.37.138,7.212.177,1.841.04,3.4.059,4.676.059,1.39,0,2.891-.02,4.504-.059,1.612-.039,3.414-.098,5.407-.177,0,1.085.032,2.23.097,3.434.064,1.204.161,2.569.29,4.095l-1.483.189c-.1-1.998-.609-3.343-1.526-4.035-.917-.692-2.967-1.038-6.148-1.038-1.118,0-2.86.032-5.224.094h-.129c-.029,2.329-.072,4.92-.129,7.776-.058,2.856-.093,4.441-.108,4.755h.71c.802,0,1.798.008,2.988.024,1.19.016,1.999.024,2.429.024,2.107,0,3.5-.212,4.181-.637.68-.425,1.05-1.211,1.107-2.36l1.354.094c-.115,1.18-.193,2.152-.237,2.915-.043.763-.064,1.467-.064,2.112,0,.472.01,1.031.032,1.676.021.645.053,1.369.097,2.171l-1.419.118v-.401c0-1.29-.351-2.167-1.053-2.631-.702-.464-2.329-.696-4.88-.696h-5.245v9.18c0,2.265.229,3.694.688,4.283.458.59,1.39.885,2.794.885h.839v1.652c-1.089-.063-2.16-.11-3.214-.141-1.053-.031-2.082-.047-3.085-.047-.502,0-1.265.016-2.29.047-1.025.031-2.182.079-3.472.141v-1.534Z" style="fill: #fff;"/>
        <path d="M164.412,47.545c2.508.094,4.751.165,6.729.212,1.978.047,3.683.071,5.117.071,1.591,0,3.2-.024,4.826-.071,1.626-.047,3.278-.118,4.955-.212.014,1.18.057,2.388.129,3.622.072,1.235.158,2.474.258,3.717l-1.44.142c-.115-1.888-.645-3.166-1.591-3.835-.946-.669-2.988-1.003-6.127-1.003-.803,0-2.272.024-4.407.071-.43.016-.745.024-.946.024-.029,1.888-.072,4.201-.129,6.938-.058,2.737-.093,4.515-.108,5.333h.667c.845,0,1.902.012,3.17.035,1.269.024,2.118.035,2.548.035,2.078,0,3.45-.212,4.117-.637.667-.425,1.028-1.211,1.086-2.36l1.354.141c-.1.976-.176,1.88-.226,2.714-.05.834-.075,1.605-.075,2.313,0,.409.036,1.29.108,2.643.029.488.05.858.064,1.109l-1.397.047v-.189c0-1.337-.355-2.242-1.064-2.714-.71-.472-2.369-.708-4.977-.708h-5.374c0,.771-.007,1.837-.021,3.198-.014,1.361-.021,2.34-.021,2.938,0,1.038.007,2.12.021,3.245.014,1.125.043,2.443.086,3.953.717.095,1.53.165,2.44.212.91.047,1.91.071,2.999.071,3.597,0,5.966-.381,7.105-1.145,1.14-.763,2.046-2.23,2.72-4.401l1.548.566c-.43,1.306-.81,2.588-1.14,3.847-.33,1.259-.617,2.51-.86,3.752-2.25-.094-4.342-.165-6.277-.212-1.935-.047-3.683-.071-5.245-.071-2.136,0-5.575.087-10.319.26l-.774.024v-1.534c.1.016.197.028.29.035.093.008.233.012.42.012,1.906,0,2.873-2.942,2.902-8.826.014-1.479.029-2.635.043-3.469l.086-6.443c.014-1.384.025-2.729.032-4.035.007-1.306.01-2.722.01-4.248,0-1.353-.229-2.289-.688-2.808-.459-.519-1.276-.779-2.451-.779h-.172v-1.581ZM175.687,39.249h4.706l-5.598,4.898-1.612-.637,2.504-4.261Z" style="fill: #fff;"/>
      </g>
      <g>
        <path d="M97.621,4.723c1.457.095,2.563.162,3.319.201.755.039,1.365.059,1.828.059.885,0,1.752-.02,2.603-.059.851-.039,1.698-.098,2.542-.177v1.652h-.633c-1.076,0-1.804.428-2.185,1.285-.381.857-.571,2.826-.571,5.907v4.692l.061,17.285c.762.047,1.487.082,2.175.106.687.024,1.338.035,1.95.035,3.649,0,6-.389,7.055-1.168,1.055-.779,1.896-2.285,2.522-4.519l1.47.519c-.422,1.353-.797,2.682-1.123,3.988-.327,1.306-.612,2.62-.858,3.941-2.26-.079-4.339-.138-6.238-.177-1.899-.039-3.68-.059-5.34-.059-1.171,0-2.478.02-3.92.059-1.443.039-3.145.098-5.105.177v-1.534c.095.016.187.028.276.035.089.008.221.012.398.012,1.838-.015,2.763-3.042,2.777-9.079,0-1.368.007-2.437.02-3.207l.041-6.414c0-.692.007-1.58.02-2.665.013-1.085.02-1.839.02-2.264,0-2.892-.201-4.775-.603-5.647-.401-.873-1.181-1.309-2.338-1.309h-.164v-1.676Z" style="fill: #fff;"/>
        <path d="M137.622,4.015c2.254,0,4.267.342,6.039,1.026,1.772.685,3.377,1.743,4.816,3.174,1.72,1.731,3.036,3.737,3.948,6.018.912,2.281,1.368,4.704,1.368,7.269,0,2.612-.482,5.082-1.446,7.41-.964,2.329-2.335,4.335-4.115,6.018-1.424,1.353-3.081,2.411-4.971,3.174-1.891.763-3.785,1.145-5.683,1.145-2.373,0-4.556-.464-6.55-1.392-1.995-.928-3.756-2.305-5.283-4.13-1.394-1.667-2.458-3.54-3.192-5.616-.734-2.077-1.101-4.264-1.101-6.561,0-2.486.441-4.834,1.323-7.045.882-2.21,2.161-4.149,3.837-5.817,1.513-1.51,3.218-2.667,5.115-3.469s3.863-1.204,5.895-1.204ZM148.877,22.328c0-4.578-1.113-8.334-3.337-11.269-2.224-2.934-5.027-4.401-8.408-4.401-3.248,0-5.854,1.259-7.818,3.776-1.965,2.517-2.947,5.884-2.947,10.1,0,4.689,1.116,8.535,3.348,11.54,2.231,3.005,5.023,4.508,8.374,4.508,3.233,0,5.838-1.294,7.818-3.882,1.979-2.588,2.97-6.045,2.97-10.372Z" style="fill: #fff;"/>
        <path d="M157.574,36.936c.114.016.225.028.331.035.106.008.265.012.478.012,2.174,0,3.277-2.942,3.31-8.826.016-1.479.033-2.635.049-3.469l.098-6.443c.016-1.384.028-2.729.037-4.035.008-1.306.012-2.722.012-4.248,0-1.353-.261-2.289-.784-2.808-.523-.519-1.455-.779-2.795-.779h-.197v-1.652c1.095.079,2.178.134,3.249.165,1.07.032,2.113.047,3.127.047,1.095,0,2.456-.035,4.083-.106,1.626-.071,2.709-.106,3.249-.106,3.351,0,6.096.85,8.238,2.549,2.141,1.699,3.212,3.831,3.212,6.395,0,1.904-.535,3.599-1.606,5.085-1.071,1.487-2.677,2.758-4.818,3.811l4.585,6.679c.164.252.409.614.736,1.086,3.171,4.657,5.77,6.985,7.797,6.985h.245v1.345c-.229.015-.572.047-1.03.094-1.063.095-1.839.142-2.329.142-1.732,0-3.101-.224-4.107-.673-1.005-.448-1.998-1.317-2.979-2.608-.164-.204-1.066-1.605-2.709-4.201-1.643-2.596-3.298-5.042-4.965-7.34-.622.063-1.283.11-1.986.142-.703.032-1.48.047-2.329.047h-1.471v7.245c0,2.36.253,3.851.76,4.472.507.622,1.512.932,3.016.932.049,0,.114-.008.196-.024.082-.015.147-.024.196-.024.065,0,.118.008.16.024.041.016.069.024.086.024v1.558c-1.161-.063-2.313-.11-3.458-.142-1.144-.031-2.28-.047-3.408-.047-.605,0-1.455.016-2.55.047-1.096.032-2.337.079-3.727.142v-1.534ZM166.303,21.832c.784.079,1.524.134,2.219.165.695.032,1.312.047,1.851.047.458,0,.981-.012,1.57-.035.588-.024,1.226-.067,1.913-.13,1.569-.912,2.722-1.971,3.457-3.174.736-1.204,1.104-2.639,1.104-4.307,0-2.186-.736-3.941-2.207-5.263-1.471-1.321-3.449-1.982-5.933-1.982-.671,0-1.324.028-1.962.083-.638.055-1.266.138-1.888.248-.049,1.951-.082,3.957-.098,6.018-.017,2.061-.025,4.838-.025,8.33Z" style="fill: #fff;"/>
        <path d="M72.684,36.933c.109.016.215.028.317.035.102.008.263.012.48.012,1.091,0,1.83-.414,2.219-1.241.388-.828.582-2.676.582-5.546,0-.473-.007-1.316-.02-2.53-.014-1.214-.02-2.215-.02-3.004v-6.432c0-.867.006-2.227.02-4.08.014-1.852.02-3.267.02-4.245,0-1.34-.221-2.274-.664-2.802-.443-.528-1.217-.792-2.321-.792h-.327v-1.584c2.821.079,5.108.138,6.859.177,1.751.04,3.233.059,4.446.059,1.322,0,2.75-.02,4.283-.059,1.533-.039,3.248-.098,5.142-.177,0,1.088.031,2.235.092,3.441.062,1.206.154,2.574.276,4.103l-1.41.189c-.096-2.002-.579-3.35-1.452-4.044-.873-.694-2.821-1.041-5.847-1.041-1.063,0-2.719.032-4.968.095h-.123c-.027,2.333-.068,4.931-.122,7.792-.055,2.861-.089,4.45-.102,4.765h.675c.763,0,1.71.008,2.842.024,1.131.016,1.901.024,2.31.024,2.003,0,3.329-.213,3.976-.639.648-.426.998-1.214,1.053-2.365l1.288.095c-.109,1.182-.184,2.156-.225,2.921-.041.765-.062,1.47-.062,2.117,0,.473.01,1.033.031,1.679.02.647.051,1.372.092,2.176l-1.349.118v-.402c0-1.293-.335-2.172-1.002-2.637-.668-.465-2.215-.698-4.641-.698h-4.988v9.199c0,2.271.218,3.701.654,4.292.436.591,1.322.887,2.658.887h.798v1.656c-1.036-.063-2.055-.11-3.056-.142-1.002-.032-1.98-.047-2.934-.047-.477,0-1.203.016-2.177.047s-2.075.079-3.302.142v-1.537Z" style="fill: #fff;"/>
      </g>
    </g>
  </g>
</svg>