<?xml version="1.0" encoding="UTF-8"?>
<svg id="b" data-name="Layer 2" xmlns="http://www.w3.org/2000/svg" viewBox="0 0 269.462 83.842">
  <g id="c" data-name="Layer 1">
    <g>
      <g>
        <g>
          <path d="M101.25,13.721h16.295c9.796,0,13.438,3.422,13.438,9.639v.659c0,5.965-3.768,9.325-13.846,9.325h-6.593v5.965h-9.294V13.721ZM117.608,26.814c2.7,0,3.987-.785,3.987-2.794v-.094c0-2.072-1.287-2.763-3.987-2.763h-7.064v5.651h7.064Z" style="fill: #0c1f3f;"/>
          <path d="M132.836,13.721h9.294v17.205h15.949v8.383h-25.243V13.721Z" style="fill: #0c1f3f;"/>
          <path d="M181.659,34.663h-11.742l-1.727,4.647h-8.885l9.513-25.588h13.94l9.607,25.588h-8.979l-1.727-4.647ZM179.524,28.886l-3.736-10.047-3.736,10.047h7.472Z" style="fill: #0c1f3f;"/>
          <path d="M185.113,13.721h10.298l5.965,8.32,5.871-8.32h10.361l-11.679,15.73v9.859h-9.262v-9.89l-11.554-15.698Z" style="fill: #0c1f3f;"/>
          <path d="M229.854,13.721h9.294v25.588h-9.294V13.721Z" style="fill: #0c1f3f;"/>
          <path d="M259.838,21.602v17.708h-9.262v-17.708h-9.419v-7.881h28.069v7.881h-9.387Z" style="fill: #0c1f3f;"/>
        </g>
        <path d="M101.275,48.894v-.963s168.187,0,168.187,0v.963s-168.187,0-168.187,0Z" style="fill: #efca18;"/>
        <g>
          <path d="M121.846,64.435l-.04.221c-.228,1.004-.633,1.901-1.215,2.691-.582.79-1.315,1.409-2.199,1.858s-1.875.673-2.972.673c-1.326,0-2.48-.321-3.464-.964-.984-.643-1.737-1.493-2.259-2.551-.522-1.058-.783-2.189-.783-3.394,0-1.218.261-2.36.783-3.424.522-1.064,1.275-1.918,2.259-2.561.984-.643,2.139-.964,3.464-.964,1.098,0,2.089.224,2.972.673.884.449,1.617,1.064,2.199,1.848.582.783.987,1.677,1.215,2.681l.04.221h-2.35l-.04-.14c-.241-.924-.73-1.687-1.466-2.29-.736-.602-1.593-.904-2.571-.904-.871,0-1.62.231-2.249.693-.63.462-1.111,1.061-1.446,1.797-.335.736-.502,1.52-.502,2.35,0,.817.164,1.593.492,2.33.328.736.81,1.332,1.446,1.787.636.455,1.389.683,2.259.683.977,0,1.834-.294,2.571-.884.736-.589,1.225-1.352,1.466-2.289l.04-.141h2.35Z" style="fill: #fff;"/>
          <path d="M149.4,69.617l-1.526-3.454h-6.306l-1.486,3.454h-2.289l5.804-13.435h2.109l6.025,13.435h-2.33ZM147.171,64.214l-2.49-5.563-2.37,5.563h4.86Z" style="fill: #fff;"/>
          <path d="M178.551,68.853c-1.105.683-2.453,1.024-4.047,1.024-1.513,0-2.892-.288-4.137-.864-1.245-.576-1.962-1.513-2.149-2.812l-.04-.241h2.149l.04.161c.147.629.616,1.084,1.406,1.365.79.281,1.627.422,2.51.422.991,0,1.864-.171,2.621-.512.756-.341,1.135-.894,1.135-1.657,0-.776-.395-1.296-1.185-1.556-.79-.261-1.674-.392-2.651-.392-1.687,0-3.07-.244-4.147-.733-1.078-.488-1.617-1.476-1.617-2.962,0-1.392.525-2.42,1.577-3.083,1.051-.663,2.34-.994,3.866-.994,1.486,0,2.822.288,4.006.864,1.185.576,1.858,1.513,2.018,2.812l.04.221h-2.149l-.04-.14c-.134-.616-.576-1.068-1.326-1.356-.75-.288-1.546-.432-2.39-.432-.897,0-1.694.161-2.39.482-.696.321-1.044.837-1.044,1.546s.362,1.188,1.084,1.436c.723.248,1.526.372,2.41.372,1.767,0,3.227.251,4.378.753,1.151.502,1.727,1.523,1.727,3.063,0,1.459-.552,2.53-1.657,3.213Z" style="fill: #fff;"/>
          <path d="M200.109,56.282v13.335h-2.149v-13.335h2.149Z" style="fill: #fff;"/>
          <path d="M220.634,59.696v9.921h-2.149v-13.335h2.028l8.354,9.921v-9.921h2.149v13.335h-2.028l-8.355-9.921Z" style="fill: #fff;"/>
          <path d="M249.553,59.545c.522-1.064,1.275-1.918,2.259-2.561.984-.643,2.139-.964,3.464-.964,1.339,0,2.503.321,3.494.964.991.643,1.747,1.493,2.269,2.551.522,1.058.783,2.202.783,3.434,0,1.218-.261,2.353-.783,3.404-.522,1.051-1.279,1.898-2.269,2.541-.991.643-2.156.964-3.494.964-1.326,0-2.48-.321-3.464-.964-.984-.643-1.737-1.493-2.259-2.551-.522-1.058-.783-2.189-.783-3.394,0-1.218.261-2.36.783-3.424ZM251.582,65.279c.335.736.816,1.332,1.446,1.787.629.455,1.379.683,2.249.683s1.63-.224,2.279-.673c.649-.448,1.145-1.041,1.486-1.777.341-.736.512-1.513.512-2.33,0-.843-.171-1.637-.512-2.38-.341-.743-.833-1.342-1.476-1.797-.643-.455-1.406-.683-2.289-.683-.871,0-1.624.228-2.259.683-.636.455-1.118,1.054-1.446,1.797-.328.743-.492,1.53-.492,2.36,0,.817.167,1.593.502,2.33Z" style="fill: #fff;"/>
        </g>
        <g>
          <path d="M101.25,13.721h16.295c9.796,0,13.438,3.422,13.438,9.639v.659c0,5.965-3.768,9.325-13.846,9.325h-6.593v5.965h-9.294V13.721ZM117.608,26.814c2.7,0,3.987-.785,3.987-2.794v-.094c0-2.072-1.287-2.763-3.987-2.763h-7.064v5.651h7.064Z" style="fill: #fff;"/>
          <path d="M132.836,13.721h9.294v17.205h15.949v8.383h-25.243V13.721Z" style="fill: #fff;"/>
          <path d="M181.659,34.663h-11.742l-1.727,4.647h-8.885l9.513-25.588h13.94l9.607,25.588h-8.979l-1.727-4.647ZM179.524,28.886l-3.736-10.047-3.736,10.047h7.472Z" style="fill: #fff;"/>
          <path d="M185.113,13.721h10.298l5.965,8.32,5.871-8.32h10.361l-11.679,15.73v9.859h-9.262v-9.89l-11.554-15.698Z" style="fill: #fff;"/>
          <path d="M229.854,13.721h9.294v25.588h-9.294V13.721Z" style="fill: #fff;"/>
          <path d="M259.838,21.602v17.708h-9.262v-17.708h-9.419v-7.881h28.069v7.881h-9.387Z" style="fill: #fff;"/>
        </g>
        <path d="M101.275,48.894v-.963s168.187,0,168.187,0v.963s-168.187,0-168.187,0Z" style="fill: #fff;"/>
        <g>
          <path d="M121.846,64.435l-.04.221c-.228,1.004-.633,1.901-1.215,2.691-.582.79-1.315,1.409-2.199,1.858s-1.875.673-2.972.673c-1.326,0-2.48-.321-3.464-.964-.984-.643-1.737-1.493-2.259-2.551-.522-1.058-.783-2.189-.783-3.394,0-1.218.261-2.36.783-3.424.522-1.064,1.275-1.918,2.259-2.561.984-.643,2.139-.964,3.464-.964,1.098,0,2.089.224,2.972.673.884.449,1.617,1.064,2.199,1.848.582.783.987,1.677,1.215,2.681l.04.221h-2.35l-.04-.14c-.241-.924-.73-1.687-1.466-2.29-.736-.602-1.593-.904-2.571-.904-.871,0-1.62.231-2.249.693-.63.462-1.111,1.061-1.446,1.797-.335.736-.502,1.52-.502,2.35,0,.817.164,1.593.492,2.33.328.736.81,1.332,1.446,1.787.636.455,1.389.683,2.259.683.977,0,1.834-.294,2.571-.884.736-.589,1.225-1.352,1.466-2.289l.04-.141h2.35Z" style="fill: #fff;"/>
          <path d="M149.4,69.617l-1.526-3.454h-6.306l-1.486,3.454h-2.289l5.804-13.435h2.109l6.025,13.435h-2.33ZM147.171,64.214l-2.49-5.563-2.37,5.563h4.86Z" style="fill: #fff;"/>
          <path d="M178.551,68.853c-1.105.683-2.453,1.024-4.047,1.024-1.513,0-2.892-.288-4.137-.864-1.245-.576-1.962-1.513-2.149-2.812l-.04-.241h2.149l.04.161c.147.629.616,1.084,1.406,1.365.79.281,1.627.422,2.51.422.991,0,1.864-.171,2.621-.512.756-.341,1.135-.894,1.135-1.657,0-.776-.395-1.296-1.185-1.556-.79-.261-1.674-.392-2.651-.392-1.687,0-3.07-.244-4.147-.733-1.078-.488-1.617-1.476-1.617-2.962,0-1.392.525-2.42,1.577-3.083,1.051-.663,2.34-.994,3.866-.994,1.486,0,2.822.288,4.006.864,1.185.576,1.858,1.513,2.018,2.812l.04.221h-2.149l-.04-.14c-.134-.616-.576-1.068-1.326-1.356-.75-.288-1.546-.432-2.39-.432-.897,0-1.694.161-2.39.482-.696.321-1.044.837-1.044,1.546s.362,1.188,1.084,1.436c.723.248,1.526.372,2.41.372,1.767,0,3.227.251,4.378.753,1.151.502,1.727,1.523,1.727,3.063,0,1.459-.552,2.53-1.657,3.213Z" style="fill: #fff;"/>
          <path d="M200.109,56.282v13.335h-2.149v-13.335h2.149Z" style="fill: #fff;"/>
          <path d="M220.634,59.696v9.921h-2.149v-13.335h2.028l8.354,9.921v-9.921h2.149v13.335h-2.028l-8.355-9.921Z" style="fill: #fff;"/>
          <path d="M249.553,59.545c.522-1.064,1.275-1.918,2.259-2.561.984-.643,2.139-.964,3.464-.964,1.339,0,2.503.321,3.494.964.991.643,1.747,1.493,2.269,2.551.522,1.058.783,2.202.783,3.434,0,1.218-.261,2.353-.783,3.404-.522,1.051-1.279,1.898-2.269,2.541-.991.643-2.156.964-3.494.964-1.326,0-2.48-.321-3.464-.964-.984-.643-1.737-1.493-2.259-2.551-.522-1.058-.783-2.189-.783-3.394,0-1.218.261-2.36.783-3.424ZM251.582,65.279c.335.736.816,1.332,1.446,1.787.629.455,1.379.683,2.249.683s1.63-.224,2.279-.673c.649-.448,1.145-1.041,1.486-1.777.341-.736.512-1.513.512-2.33,0-.843-.171-1.637-.512-2.38-.341-.743-.833-1.342-1.476-1.797-.643-.455-1.406-.683-2.289-.683-.871,0-1.624.228-2.259.683-.636.455-1.118,1.054-1.446,1.797-.328.743-.492,1.53-.492,2.36,0,.817.167,1.593.502,2.33Z" style="fill: #fff;"/>
        </g>
      </g>
      <g>
        <g>
          <path d="M45.218,31.915l-6.966-.129-2.008,5.615,6.966.129c2.663.049,4.211-.707,4.924-2.703l.034-.094c.736-2.059-.288-2.768-2.95-2.818Z" style="fill: #fff;"/>
          <path d="M62.153,16.825c-4.467-4.025-10.262-5.282-16.122-5.023-.078.004-.155.009-.233.015-10.155.809-19.029,5.63-25.642,13.371-4.607,5.392-7.678,12.421-7.09,19.621.364,4.639,2.584,8.934,6.159,11.911,4.482,3.8,10.261,4.979,15.993,4.659,5.035-.191,9.681-1.825,14.149-4.175,10.125-5.329,18.758-15.705,18.584-27.625-.069-4.755-2.28-9.581-5.798-12.754ZM57.625,34.343l-.234.655c-2.119,5.926-7.028,9.195-16.965,9.01l-6.501-.121-2.12,5.926-9.164-.17,9.091-25.421,16.067.298c9.66.179,12.035,3.646,9.826,9.821Z" style="fill: #fff;"/>
        </g>
        <path d="M85.579,23.859c-1.795-3.745-4.407-7.126-6.702-10.579-4.798-7.02-11.56-11.275-19.943-12.623-2.474-.398-6.873-.859-9.382-.562-14.521.947-28.101,7.513-37.862,18.306C3.164,28-2.524,41.347,1.122,54.272c.742,2.629,2.076,5.133,3.315,7.547.07.14.14.278.21.417,2.637,5.226,4.999,9.454,9.498,13.427,2.026,1.812,4.284,3.348,6.716,4.564,29.669,11.702,50.712-8.525,53.497-11.184s21.271-23.29,11.22-45.185ZM4.363,53.996c1.404-.792,2.887-1.512,4.31-2.278,1.353-.728,2.683-1.479,4.046-2.189-1.444-4.604-1.24-8.875-.011-13.478-2.44.092-5.311-.007-7.806.016,1.492-5.151,4.037-9.937,7.473-14.055,2.125.922,4.362,2.021,6.472,3.014,4.384-5.054,8.746-8.167,14.729-11.16-.607-1.882-1.631-4.409-2.34-6.33,5.688-2.559,9.359-3.717,15.666-4.381.193-.027.548-.029.753-.036-.685,2.304-1.28,5.116-1.9,7.489,5.092-.146,9.869.444,14.39,2.978,2.175-2.414,4.425-4.937,6.626-7.312.951.67,1.924,1.213,2.887,1.928,3.189,2.384,5.747,5.51,7.453,9.107-.313.204-.719.391-1.054.565-2.75,1.42-5.563,2.751-8.257,4.279,1.884,5.039,1.845,9.006.675,14.155,2.881.229,6.002.138,8.807.44-1.919,6.244-4.421,10.897-8.722,15.874-2.064-1.097-4.741-2.863-6.778-4.122-1.088,1.187-2.043,2.263-3.222,3.37-3.514,3.297-7.331,5.581-11.65,7.632.978,2.502,1.849,5.038,2.845,7.531-4.275,1.893-7.865,3.088-12.528,3.785-1.744.267-3.505.401-5.268.401.755-2.82,1.446-5.764,2.167-8.604-5.807.13-9.744-1.017-14.714-3.966-2.232,2.289-4.403,4.671-6.665,6.981-4.124-2.992-6.527-7.021-8.381-11.634ZM51.86,78.302c-10.213,3.552-24.77,2.881-32.599-1.774-4.071-2.42-8.187-8.583-8.611-9.103,9.453,6.701,19.621,7.397,26.069,6.517,2.902-.424,5.761-1.105,8.542-2.036,10.851-3.485,20.377-10.203,27.302-19.254,5.018-6.62,8.512-13.987,9.07-22.351.103-1.557.14-3.96-.068-5.476.069.051,2.663,4.279,2.901,4.707.193.342.354.701.483,1.073.341.986.505,2.422.623,3.483.676,6.117-.942,12.875-3.611,18.384-5.819,12.004-17.607,21.487-30.1,25.831Z" style="fill: #fff;"/>
      </g>
    </g>
  </g>
</svg>