<?xml version="1.0" encoding="UTF-8"?>
<svg id="b" data-name="Layer 2" xmlns="http://www.w3.org/2000/svg" viewBox="0 0 95.49 95.49">
  <g id="c" data-name="Layer 1">
    <g>
      <path d="M47.303,77.622c-2.213-1.973-3.706-4.405-4.806-7.6-6.21-18.053,20.847-31.776,12.63-55.658-3.429-9.968-11.317-12.511-21.507-9.006-29.984,10.315-17.342,60.436,13.683,72.265Z" style="fill: #fff;"/>
      <path d="M80.511,14.253c8.798,25.574-40.24,36.556-34.031,54.609,3.817,11.094,17.256,12.572,28.229,8.797,9.995-3.439,17.784-11.377,20.428-22.801l.352.028V14.824c0-8.187-6.637-14.824-14.824-14.824h-15.368c7.841,2.761,13.078,8.045,15.214,14.253Z" style="fill: #fff;"/>
      <path d="M32.13,1.665c1.883-.648,3.715-1.194,5.505-1.665H14.824C6.637,0,0,6.637,0,14.824v18.549C3.966,19.808,14.102,7.867,32.13,1.665Z" style="fill: #fff;"/>
      <path d="M73.692,95.49h6.973c8.187,0,14.824-6.637,14.824-14.824v-12.992c-3.752,12.019-12.068,21.81-21.797,27.816Z" style="fill: #fff;"/>
      <path d="M0,62.228v18.437c0,8.187,6.637,14.824,14.824,14.824h8.652C11.955,88.044,3.605,75.704,0,62.228Z" style="fill: #fff;"/>
    </g>
  </g>
</svg>