<?xml version="1.0" encoding="UTF-8"?>
<svg id="b" data-name="Layer 2" xmlns="http://www.w3.org/2000/svg" viewBox="0 0 70.671 117.488">
  <g id="c" data-name="Layer 1">
    <g>
      <path d="M35.463,87.633l-.42-.176c-.829-.347-20.277-8.576-26.249-18.838C3.953,63.458,1.074,53.017.238,37.581c-.619-11.434.164-21.558.172-21.659l.061-.771L35.482,0l34.826,15.158.05.783c.007.106.676,10.784.038,22.488-.865,15.881-3.632,26.075-8.227,30.304-.46.553-3.31,3.919-7.704,7.765-4.368,3.824-11.135,8.838-18.566,11.006l-.437.127ZM2.92,16.893c-.165,2.55-.627,11.108-.113,20.577.799,14.695,3.549,24.891,7.953,29.485l.11.115.079.139c5.002,8.789,21.8,16.438,24.67,17.696,13.207-4.08,24.509-17.736,24.622-17.874l.061-.075.072-.065c2.828-2.554,6.416-9.586,7.453-28.578.532-9.747.146-18.776.008-21.427L35.479,2.803,2.92,16.893Z" style="fill: #fff;"/>
      <polygon points="40.205 9.411 38.087 11.627 35.336 11.968 32.584 11.627 30.466 9.411 25.597 14.353 32.073 21.682 32.073 48.267 35.336 51.164 38.598 48.267 38.598 21.682 45.074 14.353 40.205 9.411" style="fill: #fff;"/>
      <polygon points="64.423 24.303 50.915 30.288 50.953 16.865 43.029 23.556 43.029 49.46 35.336 56.277 27.642 49.46 27.642 23.556 19.718 16.865 19.756 30.288 6.248 24.303 6.248 31.5 19.756 35.652 19.646 38.586 6.469 34.379 6.469 41.521 19.59 43.624 19.646 45.894 6.746 44.51 7.466 50.821 19.812 51.164 19.812 53.767 10.409 53.767 14.349 58.833 25.597 57.129 16.735 62.412 21.848 67.014 32.073 61.049 31.903 76.216 35.336 76.216 38.769 76.216 38.598 61.049 48.823 67.014 53.936 62.412 45.074 57.129 56.322 58.833 60.262 53.767 50.86 53.767 50.86 51.164 63.205 50.821 63.925 44.51 51.026 45.894 51.081 43.624 64.202 41.521 64.202 34.379 51.026 38.586 50.915 35.652 64.423 31.5 64.423 24.303" style="fill: #fff;"/>
      <g>
        <path d="M21.885,117.488c-2.389,0-4.406-.447-6.051-1.34-1.646-.893-2.905-2.153-3.778-3.778-.873-1.625-1.31-3.532-1.31-5.72,0-2.248.451-4.194,1.355-5.84.903-1.645,2.198-2.915,3.883-3.808s3.703-1.34,6.051-1.34c1.003,0,1.967.086,2.89.256.923.171,1.776.432,2.559.783.783.351,1.455.768,2.017,1.249l-1.445,3.643c-.944-.662-1.897-1.148-2.86-1.46-.963-.311-2.007-.466-3.131-.466-2.128,0-3.733.597-4.817,1.791s-1.626,2.925-1.626,5.193.547,3.984,1.641,5.148c1.094,1.164,2.714,1.746,4.862,1.746.702,0,1.44-.075,2.213-.226.772-.15,1.53-.346,2.273-.587l-.873,1.927v-5.81h-4.576v-3.372h8.429v10.446c-.683.321-1.45.598-2.303.828-.853.231-1.741.412-2.664.542-.923.13-1.836.196-2.74.196Z" style="fill: #fff;"/>
        <path d="M34.061,117.187v-21.224h4.666v21.224h-4.666Z" style="fill: #fff;"/>
        <path d="M43.192,117.187v-21.224h14.541v3.643h-10.055v4.967h9.363v3.643h-9.363v5.328h10.055v3.643h-14.541Z" style="fill: #fff;"/>
      </g>
    </g>
  </g>
</svg>