<?xml version="1.0" encoding="UTF-8"?>
<svg id="b" data-name="Layer 2" xmlns="http://www.w3.org/2000/svg" viewBox="0 0 181.131 90.004">
  <g id="c" data-name="Layer 1">
    <g>
      <g>
        <path d="M109.546,21.829l1.36-1.892L124.591,0h-11.178c-2.376,0-4.597,1.179-5.927,3.147l-10.528,15.57s-5.468,7.705-6.578,9.234c-.014.02,8.49.002,8.49.002,3.547-.032,5.657,2.998,4.74,6.554l-2.011,7.791c-.474,1.837-.003,3.467,1.106,4.479.699.638,1.63.958,2.576.957,2.027-.004,7.774-.015,7.775-.018.272-1.052,3.438-13.321,3.438-13.322.663-2.571,1.072-5.95-.473-8.299-1.516-2.306-6.474-4.266-6.474-4.266Z" style="fill: #fff;"/>
        <path d="M103.172.009s-.049-.003-.143-.004l.004-.005h-11.178c-2.376,0-4.597,1.179-5.927,3.147l-4.32,6.39-.579.843-12.045,17.347c-.06.084-.116.161-.162.225,0,0,.003,0,.006,0l-13.891,20.006h6.285c5.829,0,11.277-2.893,14.542-7.72L99.383,5.318c1.528-2.149,3.224-4.53,3.789-5.309Z" style="fill: #fff;"/>
      </g>
      <g>
        <g>
          <path d="M6.099,65.202l10.136-8.246h6.185l-9.907,8.046,6.729,10.966h-5.354l-4.925-8.074-3.78,3.064-.802,5.011H0l3.006-19.012h4.381l-1.289,8.246Z" style="fill: #fff;"/>
          <path d="M39.542,56.956l4.524,19.012h-4.724l-1.088-4.667h-7.931l-2.548,4.667h-4.667l10.566-19.012h5.87ZM32.469,67.263h4.925l-1.546-6.041-3.379,6.041Z" style="fill: #fff;"/>
          <path d="M52.226,56.956h13.085c1.603,0,2.815.439,3.636,1.317.821.878,1.231,2.014,1.231,3.407,0,.363-.029.735-.086,1.117-.21,1.356-.773,2.548-1.689,3.579-.916,1.031-2.081,1.68-3.493,1.947.019.057.052.124.1.201.047.076.081.143.1.2l3.207,7.244h-4.954l-3.293-7.502h-5.297l-1.174,7.502h-4.381l3.006-19.012ZM55.433,64.429h8.704c.42,0,.763-.129,1.031-.387.267-.258.439-.606.515-1.045l.086-.544c.019-.076.029-.191.029-.343,0-.344-.096-.611-.286-.802-.191-.191-.468-.286-.83-.286h-8.704l-.544,3.407Z" style="fill: #fff;"/>
          <path d="M94.803,61.022h-13.715l-.544,3.407h10.194l-.659,4.037h-10.193l-.544,3.464h13.715l-.63,4.037h-18.096l3.006-19.012h18.096l-.63,4.066Z" style="fill: #fff;"/>
          <path d="M103.65,71.93h10.537l-.63,4.037h-14.918l3.007-19.012h4.381l-2.377,14.975Z" style="fill: #fff;"/>
          <path d="M118.539,56.956h18.468l-.63,4.066h-7.044l-2.376,14.946h-4.381l2.376-14.946h-7.044l.63-4.066Z" style="fill: #fff;"/>
          <path d="M143.679,69.726l-.086.372c-.115.744.324,1.317,1.317,1.718.763.305,1.708.458,2.835.458,1.241,0,2.281-.143,3.121-.429,1.031-.401,1.613-1.012,1.746-1.833.057-.382-.028-.687-.258-.916-.229-.229-.601-.41-1.117-.544-.401-.115-.926-.191-1.575-.229-.363-.019-.84-.028-1.432-.028-2.291,0-4.123-.31-5.497-.931-1.374-.62-2.062-1.818-2.062-3.593,0-.324.029-.687.086-1.088.362-2.176,1.417-3.737,3.164-4.682s3.851-1.417,6.314-1.417c1.317,0,2.558.191,3.722.572,1.164.382,2.109.969,2.834,1.761.725.792,1.088,1.78,1.088,2.964,0,.286-.029.592-.086.916l-.086.43h-4.381l.086-.43c.114-.725-.258-1.279-1.117-1.661-.783-.324-1.68-.487-2.692-.487-1.164,0-2.109.134-2.835.401-.955.306-1.499.85-1.632,1.632-.114.687.324,1.136,1.317,1.346.382.096.859.162,1.432.2.325.019.773.029,1.346.029,2.367,0,4.271.32,5.712.959,1.441.64,2.162,1.857,2.162,3.651,0,.363-.029.745-.086,1.145-.363,2.272-1.465,3.894-3.307,4.868-1.842.973-4.042,1.46-6.6,1.46-1.336,0-2.611-.186-3.823-.558-1.212-.372-2.205-.954-2.978-1.747-.773-.792-1.16-1.799-1.16-3.021,0-.305.029-.611.086-.916l.086-.372h4.352Z" style="fill: #fff;"/>
          <path d="M176.607,56.956l4.524,19.012h-4.724l-1.088-4.667h-7.931l-2.548,4.667h-4.667l10.565-19.012h5.87ZM169.534,67.263h4.925l-1.546-6.041-3.379,6.041Z" style="fill: #fff;"/>
        </g>
        <g>
          <path d="M23.498,89.849l1.831-8.741h1.163l-1.825,8.741h-1.169Z" style="fill: #fff;"/>
          <path d="M33.628,89.849l1.83-8.741h1.133l1.473,3.279c.449,1.002.805,1.844,1.067,2.528.151.398.326.934.525,1.61.107-.735.242-1.495.405-2.278l1.073-5.14h1.139l-1.825,8.741h-1.157l-2.17-5.05c-.386-.89-.686-1.675-.9-2.355-.06.569-.175,1.266-.346,2.093l-1.109,5.313h-1.139Z" style="fill: #fff;"/>
          <path d="M49.232,89.849l1.825-8.741h2.635c.632,0,1.115.046,1.449.137.477.123.884.343,1.222.659.338.316.592.711.763,1.184.171.473.256,1.004.256,1.592,0,.704-.106,1.345-.319,1.923s-.491,1.087-.835,1.526c-.344.439-.704.783-1.079,1.031-.376.249-.82.432-1.333.552-.39.092-.869.137-1.437.137h-3.148ZM50.609,88.859h1.383c.624,0,1.179-.058,1.664-.173.302-.072.56-.177.775-.316.282-.179.539-.415.769-.71.302-.389.544-.834.724-1.333.181-.499.271-1.066.271-1.702,0-.707-.123-1.251-.37-1.631-.247-.379-.561-.631-.942-.754-.282-.091-.721-.137-1.318-.137h-1.544l-1.413,6.756Z" style="fill: #fff;"/>
          <path d="M66.767,81.108h1.169l-1.121,5.372c-.091.445-.137.775-.137.99,0,.469.185.847.555,1.133.37.286.835.429,1.395.429.445,0,.859-.102,1.243-.307.384-.205.687-.506.909-.903.223-.397.423-1.031.602-1.902l1.008-4.812h1.169l-1.067,5.128c-.183.874-.423,1.567-.721,2.078-.298.511-.712.92-1.24,1.228-.529.308-1.143.462-1.842.462-.66,0-1.231-.109-1.714-.328-.483-.218-.845-.521-1.085-.906s-.361-.823-.361-1.312c0-.306.081-.833.244-1.58l.996-4.77Z" style="fill: #fff;"/>
          <path d="M80.862,87.023l1.145-.107-.012.304c0,.338.078.647.233.927s.411.497.769.65c.358.153.783.23,1.276.23.7,0,1.233-.153,1.601-.459.368-.306.551-.656.551-1.049,0-.274-.097-.525-.292-.751-.199-.223-.741-.525-1.628-.907-.688-.298-1.157-.527-1.407-.686-.393-.258-.684-.54-.871-.844-.187-.304-.28-.651-.28-1.041,0-.449.123-.855.37-1.216.247-.362.607-.638,1.082-.829.475-.191,1.011-.286,1.607-.286.712,0,1.312.119,1.801.358.489.238.844.557,1.064.954s.331.777.331,1.139c0,.036-.002.096-.006.179l-1.127.089c0-.246-.022-.439-.066-.579-.08-.242-.203-.447-.37-.614-.167-.167-.396-.301-.689-.402-.292-.101-.619-.152-.981-.152-.636,0-1.131.143-1.485.429-.27.219-.405.509-.405.871,0,.215.056.406.167.575.111.169.312.335.602.498.207.115.698.344,1.473.686.628.278,1.061.497,1.3.656.318.211.563.466.733.766.171.3.256.641.256,1.023,0,.473-.144.909-.432,1.309-.288.399-.687.709-1.196.927-.509.218-1.091.328-1.747.328-.99,0-1.798-.216-2.424-.647-.626-.431-.941-1.207-.945-2.328Z" style="fill: #fff;"/>
          <path d="M97.759,89.849l1.616-7.745h-2.868l.209-.996h6.881l-.209.996h-2.844l-1.616,7.745h-1.169Z" style="fill: #fff;"/>
          <path d="M109.857,89.849l1.83-8.741h3.667c.724,0,1.272.061,1.646.182s.667.349.88.683c.213.334.319.755.319,1.264,0,.712-.232,1.302-.698,1.771-.465.469-1.216.773-2.254.912.318.235.558.465.722.692.366.513.66,1.043.883,1.592l.668,1.646h-1.306l-.626-1.628c-.227-.588-.485-1.097-.775-1.526-.199-.298-.401-.494-.608-.587-.207-.094-.543-.14-1.008-.14h-1.359l-.811,3.882h-1.169ZM112.033,85.019h1.616c.747,0,1.234-.01,1.461-.03.441-.044.803-.143,1.085-.298.282-.155.501-.364.656-.626s.232-.545.232-.847c0-.254-.058-.476-.173-.665s-.266-.317-.453-.385-.505-.101-.954-.101h-2.85l-.62,2.952Z" style="fill: #fff;"/>
          <path d="M125.639,89.849l1.831-8.741h1.162l-1.825,8.741h-1.169Z" style="fill: #fff;"/>
          <path d="M134.928,89.849l4.955-8.741h1.377l1.443,8.741h-1.133l-.423-2.516h-3.536l-1.401,2.516h-1.282ZM138.112,86.433h2.892l-.34-2.194c-.131-.871-.213-1.596-.244-2.176-.199.501-.489,1.095-.871,1.783l-1.437,2.588Z" style="fill: #fff;"/>
          <path d="M150.645,89.849l1.825-8.741h1.169l-1.616,7.751h4.538l-.209.99h-5.706Z" style="fill: #fff;"/>
        </g>
      </g>
    </g>
  </g>
</svg>