<?xml version="1.0" encoding="UTF-8"?>
<svg id="b" data-name="Layer 2" xmlns="http://www.w3.org/2000/svg" viewBox="0 0 116.614 98.919">
  <g id="c" data-name="Layer 1">
    <g>
      <g>
        <g>
          <g>
            <g>
              <path d="M53.659,61.969h13.656c16.118,0,29.675-12.673,30.105-28.786.275-10.302-4.503-20.508-13.2-26.27,0,0-3.783,30.917-30.56,55.056Z" style="fill: #fff;"/>
              <path d="M82.896,6.663l.025-.205c-5.959-4.427-12.563-6.458-19.98-6.458h-21.702l33.968,30.456c6.336-13.459,7.667-23.614,7.689-23.793Z" style="fill: #fff;"/>
            </g>
            <path d="M32.262,45.374l-13.152,32.766h15.799c5.721,0,9.865-3.428,11.912-8.529l13.152-32.765h-14.724c-5.721,0-10.94,3.428-12.988,8.528Z" style="fill: #fff;"/>
          </g>
          <path d="M52.433,61.696c8.48-7.97,15.469-16.738,19.743-24.85h-10.813l-10.335,25.123h1.115l.291-.273Z" style="fill: #fff;"/>
        </g>
        <polygon points="40.817 1.462 36.015 34.173 61.033 19.543 40.817 1.462" style="fill: #fff;"/>
      </g>
      <g>
        <path d="M7.564,89.378c-.279.503-.706.908-1.283,1.216-.578.308-1.293.463-2.148.463h-1.581v3.759H0v-10.473h4.133c.835,0,1.541.144,2.118.433s1.009.686,1.298,1.194.432,1.088.432,1.745c0,.606-.139,1.161-.417,1.663ZM5.028,88.685c.239-.228.358-.552.358-.969s-.119-.741-.358-.97-.602-.343-1.089-.343h-1.387v2.625h1.387c.488,0,.85-.114,1.089-.343Z" style="fill: #fff;"/>
        <path d="M9.287,88.387c.323-.646.763-1.144,1.32-1.492.556-.348,1.178-.522,1.865-.522.587,0,1.101.119,1.544.358.442.239.783.552,1.022.94v-1.178h2.551v8.324h-2.551v-1.178c-.249.388-.595.702-1.037.94-.443.239-.957.358-1.544.358-.677,0-1.293-.177-1.85-.53-.557-.353-.998-.855-1.32-1.507-.324-.652-.485-1.405-.485-2.26s.161-1.606.485-2.253ZM14.508,89.147c-.353-.368-.784-.552-1.291-.552s-.937.182-1.29.545-.53.863-.53,1.499.177,1.141.53,1.514.783.56,1.29.56.938-.185,1.291-.553c.353-.367.53-.87.53-1.507s-.177-1.138-.53-1.507Z" style="fill: #fff;"/>
        <path d="M27.942,86.492l-5.221,12.278h-2.745l1.909-4.237-3.387-8.041h2.849l1.925,5.207,1.909-5.207h2.76Z" style="fill: #fff;"/>
        <path d="M32.536,86.798c.448-.263.945-.395,1.492-.395v2.7h-.702c-.636,0-1.114.136-1.433.41s-.477.753-.477,1.44v3.864h-2.551v-8.324h2.551v1.388c.299-.457.671-.818,1.119-1.082Z" style="fill: #fff;"/>
        <path d="M36.84,94.413c-.652-.348-1.163-.845-1.537-1.491-.373-.646-.559-1.402-.559-2.268,0-.855.189-1.608.567-2.26s.895-1.151,1.551-1.499c.656-.348,1.392-.522,2.208-.522s1.551.175,2.208.522c.656.349,1.173.848,1.551,1.499s.567,1.405.567,2.26-.192,1.609-.574,2.261c-.383.651-.906,1.151-1.566,1.499-.662.349-1.4.522-2.216.522s-1.548-.174-2.2-.522ZM40.286,92.191c.343-.358.514-.87.514-1.537s-.167-1.178-.5-1.536c-.333-.358-.743-.538-1.23-.538-.497,0-.91.177-1.238.53s-.492.868-.492,1.544c0,.667.161,1.178.485,1.537.323.358.728.537,1.215.537s.903-.178,1.246-.537Z" style="fill: #fff;"/>
        <path d="M47.305,83.777v11.039h-2.55v-11.039h2.55Z" style="fill: #fff;"/>
        <path d="M51.706,83.777v11.039h-2.551v-11.039h2.551Z" style="fill: #fff;"/>
        <path d="M53.742,85.231c-.283-.263-.425-.589-.425-.977,0-.398.142-.728.425-.992.283-.263.649-.395,1.096-.395.438,0,.798.132,1.081.395.283.264.425.595.425.992,0,.388-.142.714-.425.977-.283.264-.644.396-1.081.396-.448,0-.813-.132-1.096-.396ZM56.106,86.492v8.324h-2.55v-8.324h2.55Z" style="fill: #fff;"/>
        <path d="M65.364,87.35c.581.631.873,1.499.873,2.603v4.863h-2.536v-4.52c0-.557-.144-.99-.433-1.298-.288-.308-.676-.463-1.163-.463s-.875.154-1.163.463c-.289.308-.433.741-.433,1.298v4.52h-2.55v-8.324h2.55v1.105c.259-.368.607-.659,1.045-.873s.93-.321,1.477-.321c.974,0,1.753.316,2.335.948Z" style="fill: #fff;"/>
        <path d="M72.718,86.731c.442.239.783.552,1.022.94v-1.178h2.551v8.31c0,.765-.152,1.459-.456,2.081s-.766,1.116-1.387,1.484c-.622.368-1.395.552-2.32.552-1.234,0-2.233-.291-2.999-.873-.766-.581-1.203-1.37-1.313-2.364h2.521c.08.318.269.569.567.753.299.184.667.276,1.105.276.527,0,.947-.152,1.261-.456.313-.303.47-.788.47-1.454v-1.179c-.249.389-.592.704-1.03.948-.438.244-.949.365-1.536.365-.686,0-1.309-.177-1.865-.53-.557-.353-.998-.855-1.32-1.507-.324-.652-.485-1.405-.485-2.26s.161-1.606.485-2.253c.323-.646.763-1.144,1.32-1.492.556-.348,1.178-.522,1.865-.522.587,0,1.101.119,1.544.358ZM73.21,89.147c-.353-.368-.784-.552-1.291-.552s-.937.182-1.29.545-.53.863-.53,1.499.177,1.141.53,1.514.783.56,1.29.56.938-.185,1.291-.553c.353-.367.53-.87.53-1.507s-.177-1.138-.53-1.507Z" style="fill: #fff;"/>
        <path d="M88.836,84.343v2.044h-2.774v8.429h-2.551v-8.429h-2.775v-2.044h8.101Z" style="fill: #fff;"/>
        <path d="M97.922,91.266h-5.774c.04.518.207.913.5,1.187s.653.41,1.081.41c.636,0,1.079-.268,1.327-.806h2.715c-.139.547-.39,1.039-.753,1.477s-.818.781-1.365,1.03c-.547.249-1.159.373-1.835.373-.816,0-1.542-.174-2.179-.522-.636-.348-1.134-.845-1.491-1.491-.358-.646-.538-1.402-.538-2.268s.177-1.621.53-2.267.848-1.144,1.485-1.492c.636-.348,1.367-.522,2.193-.522.805,0,1.521.169,2.148.507.627.339,1.117.821,1.47,1.448s.53,1.358.53,2.193c0,.238-.015.487-.045.745ZM95.356,89.849c0-.438-.149-.786-.448-1.045s-.671-.388-1.119-.388c-.428,0-.788.125-1.081.373-.293.249-.475.603-.545,1.06h3.192Z" style="fill: #fff;"/>
        <path d="M99.332,88.387c.353-.646.845-1.144,1.477-1.492.631-.348,1.355-.522,2.171-.522,1.044,0,1.917.274,2.617.821.702.547,1.162,1.318,1.38,2.312h-2.714c-.229-.636-.671-.955-1.328-.955-.467,0-.841.181-1.119.544-.278.364-.417.883-.417,1.559s.139,1.196.417,1.559.652.545,1.119.545c.657,0,1.099-.318,1.328-.955h2.714c-.218.974-.681,1.74-1.387,2.297s-1.576.835-2.61.835c-.816,0-1.54-.174-2.171-.522-.632-.348-1.124-.845-1.477-1.491s-.53-1.402-.53-2.268.177-1.621.53-2.267Z" style="fill: #fff;"/>
        <path d="M115.748,87.35c.577.631.866,1.499.866,2.603v4.863h-2.536v-4.52c0-.557-.144-.99-.433-1.298-.288-.308-.676-.463-1.163-.463s-.875.154-1.163.463c-.289.308-.433.741-.433,1.298v4.52h-2.55v-11.039h2.55v3.833c.259-.367.612-.661,1.06-.88.448-.218.949-.328,1.507-.328.955,0,1.72.316,2.297.948Z" style="fill: #fff;"/>
      </g>
    </g>
  </g>
</svg>