<?xml version="1.0" encoding="UTF-8"?>
<svg id="b" data-name="Layer 2" xmlns="http://www.w3.org/2000/svg" viewBox="0 0 110.539 93.106">
  <g id="c" data-name="Layer 1">
    <g>
      <g>
        <path d="M106.476,49.837l-6.076,8.113s-29.587-26.469-47.289-32.226c-17.702-5.757-4.679,27.518-4.679,27.518-12.717-15.187-19.983-39.787,2.155-41.803,15.366-1.4,51.866,27.058,51.866,27.058l7.8,6.252-3.777,5.089Z" style="fill: #fff;"/>
        <path d="M106.125,29.421l-4.045,4.339s-7.197-6.096-29.329-19.628c-22.132-13.532-33.448-.991-33.448-.991,18.164-32.154,62.822,4.813,62.822,4.813l8.414,6.411-4.415,5.055Z" style="fill: #fff;"/>
      </g>
      <g>
        <path d="M4.063,43.269l6.076-8.113s29.587,26.469,47.289,32.226c17.702,5.757,4.679-27.518,4.679-27.518,12.717,15.187,19.983,39.787-2.155,41.803-15.366,1.4-51.866-27.058-51.866-27.058L.286,48.358l3.777-5.089Z" style="fill: #fff;"/>
        <path d="M4.415,63.685l4.045-4.339s7.197,6.096,29.329,19.628c22.132,13.532,33.448.991,33.448.991-18.164,32.154-62.822-4.813-62.822-4.813l-8.414-6.411,4.415-5.055Z" style="fill: #fff;"/>
      </g>
    </g>
  </g>
</svg>