<?xml version="1.0" encoding="UTF-8"?>
<svg id="b" data-name="Layer 2" xmlns="http://www.w3.org/2000/svg" viewBox="0 0 267.473 88.094">
  <g id="c" data-name="Layer 1">
    <g>
      <g>
        <path d="M84.713,83.575v4.519h-19.839v-18.231h4.851v13.712h14.989Z" style="fill: #fff;"/>
        <path d="M107.11,69.863v4.519h-15.014v2.528h15.014v4.264h-15.014v2.4h15.014v4.519h-19.839v-18.231h19.839Z" style="fill: #fff;"/>
        <path d="M123.201,69.863l9.166,18.231h-5.413l-1.864-3.958h-9.677l-1.864,3.958h-5.413l9.191-18.231h5.873ZM123.047,79.821l-2.783-5.949-2.809,5.949h5.592Z" style="fill: #fff;"/>
        <path d="M136.687,78.979c0,2.324.638,4.545,3.217,4.545h6.74c1.583,0,2.656-.919,2.886-2.119h-8.758v-3.371h13.89v10.06h-3.473l-.588-1.328c-1.966,1.149-4.315,1.328-5.923,1.328h-3.447c-3.294,0-9.626-.715-9.626-9.115s6.332-9.115,9.626-9.115h3.958c2.987,0,8.477.613,9.473,6.971h-5.184c-.28-1.456-1.225-2.374-2.936-2.374h-6.638c-2.579,0-3.217,2.221-3.217,4.519Z" style="fill: #fff;"/>
        <path d="M175.35,69.863h4.852v9.115c0,8.401-6.358,9.115-9.626,9.115h-3.983c-3.268,0-9.626-.715-9.626-9.115v-9.115h4.852v9.115c0,2.324.868,4.545,3.447,4.545h6.894c2.579,0,3.192-2.221,3.192-4.545v-9.115Z" style="fill: #fff;"/>
        <path d="M202.599,69.863v4.519h-15.014v2.528h15.014v4.264h-15.014v2.4h15.014v4.519h-19.839v-18.231h19.839Z" style="fill: #fff;"/>
      </g>
      <g>
        <path d="M247.278,21.854c-.254,3.138-.569,6.306-1.308,9.367-.154.64-.395,1.26-.495,1.909,1.234-.445,2.597-.793,3.496-1.805,1.206-1.358,1.901-3.373,2.3-5.123.335-1.468.553-3.022.6-4.525h-4.489l-.105.177Z" style="fill: #fff;"/>
        <path d="M227.058,21.854l-.105-.177h-4.489c.047,1.503.265,3.057.6,4.525.399,1.75,1.094,3.764,2.3,5.123.9,1.013,2.263,1.36,3.496,1.805-.1-.649-.341-1.269-.495-1.909-.738-3.062-1.053-6.229-1.308-9.367Z" style="fill: #fff;"/>
        <path d="M251.223,9.167h-45.654c-.023-.014-.047-.027-.071-.04-.054-.039-.11-.075-.17-.106-.052-.038-.108-.073-.166-.103-.051-.037-.105-.07-.161-.1-.055-.04-.112-.076-.173-.108-.05-.036-.103-.068-.157-.098-.054-.039-.11-.075-.17-.106-.052-.038-.106-.072-.164-.101-.052-.038-.106-.072-.164-.103-.054-.039-.11-.074-.169-.105-.051-.037-.105-.07-.161-.1-.054-.039-.11-.074-.169-.105-.052-.038-.106-.072-.164-.101-.051-.038-.105-.072-.162-.101-.055-.04-.112-.076-.173-.108-.05-.037-.104-.07-.159-.098-.053-.039-.108-.073-.166-.104-.052-.039-.108-.073-.166-.103-.052-.038-.106-.072-.164-.103-.054-.039-.111-.075-.172-.106-.05-.037-.102-.069-.157-.098-.053-.039-.109-.074-.168-.105-.052-.039-.108-.073-.167-.104-.052-.037-.106-.072-.162-.101-.054-.039-.11-.074-.169-.105-.05-.037-.104-.07-.159-.099-.054-.039-.11-.075-.17-.106-.052-.039-.108-.073-.166-.103-.051-.037-.105-.07-.161-.1-.054-.04-.111-.075-.171-.106-.051-.037-.105-.07-.161-.1-.054-.039-.11-.074-.169-.105-.052-.038-.106-.072-.164-.101-.052-.039-.107-.073-.165-.103-.052-.039-.108-.073-.167-.104-.052-.037-.106-.072-.162-.101-.053-.039-.108-.073-.167-.103-.052-.039-.107-.073-.165-.103-.052-.039-.108-.073-.167-.104-.052-.038-.108-.073-.166-.103-.051-.037-.105-.071-.161-.1-.053-.039-.109-.074-.167-.105-.053-.039-.109-.073-.167-.104-.052-.039-.108-.073-.166-.103-.052-.038-.106-.072-.164-.101-.051-.038-.105-.072-.162-.101-.054-.039-.11-.075-.17-.106-.052-.039-.108-.073-.166-.103-.052-.038-.106-.072-.163-.101-.052-.039-.108-.073-.166-.103-.211-.155-.471-.246-.753-.246h-11.523c-.704,0-1.275.571-1.275,1.275v1.188l-.304-.19c-.057-.035-.114-.071-.151-.093-.055-.035-.111-.07-.187-.117l-.162-.101c-.052-.033-.105-.066-.136-.084-.059-.037-.118-.075-.193-.121-.056-.035-.112-.07-.14-.087l-.358-.223c-.052-.033-.105-.066-.142-.088-.06-.038-.119-.076-.157-.097-.061-.039-.121-.078-.146-.091l-.215-.134c-.052-.033-.105-.066-.167-.104-.052-.032-.103-.065-.133-.082-.061-.039-.121-.078-.146-.091-.067-.042-.134-.085-.185-.115-.059-.037-.118-.075-.197-.123-.052-.032-.103-.065-.174-.108-.049-.03-.098-.062-.124-.076-.061-.039-.121-.078-.163-.102-.063-.04-.126-.08-.179-.111-.055-.035-.111-.07-.182-.114-.054-.034-.108-.068-.163-.101l-.136-.085c-.063-.04-.126-.08-.175-.109-.06-.038-.119-.076-.157-.097-.061-.039-.121-.078-.171-.107-.059-.038-.118-.075-.19-.119-.052-.033-.105-.066-.133-.082-.063-.04-.126-.08-.175-.109-.06-.038-.119-.075-.161-.1l-.192-.12c-.052-.033-.105-.066-.164-.102l-.143-.089c-.06-.038-.119-.075-.191-.119l-.133-.082c-.059-.037-.118-.075-.191-.119-.057-.035-.114-.071-.154-.095l-.482-.3c-.059-.037-.118-.075-.193-.121-.056-.035-.112-.07-.14-.087l-.159-.1c-.063-.04-.126-.08-.199-.123-.052-.033-.105-.066-.146-.091-.055-.035-.111-.07-.182-.114-.054-.034-.108-.068-.121-.074-1.25-.79-2.772-1.207-4.402-1.207-4.184,0-7.462,2.903-7.462,6.61,0,2.328,1.233,4.446,3.279,5.654.063.04.126.08.184.114l.129.081c.067.042.134.085.166.103.067.042.134.085.188.117l.159.1c.063.04.126.08.169.104l.145.091c.067.042.134.085.182.113.039.025.078.05.115.072h-3.086c-.704,0-1.275.571-1.275,1.275v1.914l-.015-.009c-.066-.044-.134-.085-.165-.103l-.997-.621c-.067-.044-.134-.085-.16-.099l-.661-.411c-.066-.044-.134-.085-.165-.103l-.336-.21c-.065-.042-.131-.083-.169-.105l-.162-.101c-.065-.042-.131-.083-.16-.099l-.322-.2c-.055-.037-.11-.071-.182-.115l-.649-.403c-.06-.04-.121-.077-.174-.11-1.568-1.014-3.376-1.529-5.374-1.529-6.925,0-10.732,3.78-14.089,10.036-.855-1.423-1.96-2.567-3.266-3.366l-.317-.196c-.069-.046-.14-.09-.182-.115l-.162-.101c-.065-.042-.131-.083-.166-.103l-.169-.105c-.065-.042-.132-.083-.148-.091-.069-.046-.14-.09-.182-.115l-.162-.101c-.067-.044-.134-.085-.169-.105l-.658-.41c-.067-.044-.134-.085-.16-.099l-.661-.411c-.066-.044-.134-.085-.165-.103l-.171-.106c-.067-.044-.134-.085-.16-.099l-.501-.312c-.065-.042-.131-.083-.166-.103-.067-.044-.134-.085-.16-.099l-.335-.21c-.065-.042-.131-.083-.174-.108l-.152-.093c-.066-.044-.134-.085-.165-.103l-.336-.21c-.067-.044-.134-.085-.169-.105l-.652-.406c-.066-.044-.134-.085-.174-.108l-.162-.101c-.065-.042-.131-.083-.166-.103l-.316-.196c-.055-.037-.11-.071-.187-.118l-.157-.097c-.067-.044-.134-.085-.16-.099l-.335-.21c-.065-.042-.131-.083-.166-.103-1.568-1.014-3.376-1.529-5.374-1.529-.034,0-.07,0-.101.002l-.079-.002c-6.919,0-10.726,3.78-14.088,10.038-.855-1.424-1.962-2.569-3.267-3.368l-.317-.196c-.069-.046-.14-.09-.182-.115l-.162-.101c-.065-.042-.131-.083-.166-.103l-.169-.105c-.065-.042-.132-.083-.148-.091-.069-.046-.14-.09-.182-.115l-.162-.101c-.067-.044-.134-.085-.169-.105l-.652-.406c-.066-.044-.134-.085-.171-.106l-.656-.408c-.066-.044-.134-.085-.165-.103l-.171-.106c-.067-.044-.134-.085-.16-.099l-.501-.312c-.065-.042-.131-.083-.166-.103-.067-.044-.134-.085-.16-.099l-.335-.21c-.065-.042-.131-.083-.174-.108l-.152-.093c-.066-.044-.134-.085-.165-.103l-.336-.21c-.067-.044-.134-.085-.169-.105l-.652-.406c-.066-.044-.134-.085-.174-.108l-.162-.101c-.065-.042-.131-.083-.166-.103l-.316-.196c-.055-.037-.11-.071-.187-.118l-.157-.097c-.067-.044-.134-.085-.16-.099l-.335-.21c-.065-.042-.131-.083-.166-.103-1.568-1.014-3.376-1.529-5.374-1.529-4.218,0-7.53,1.44-10.338,4.515-.045-.031-.091-.06-.139-.085-.054-.04-.111-.075-.172-.106-.05-.036-.103-.068-.157-.098-.053-.039-.109-.074-.167-.105-.053-.039-.109-.073-.167-.104-.052-.038-.106-.072-.162-.101-.054-.039-.11-.074-.169-.105-.051-.037-.105-.07-.161-.1-.053-.039-.108-.073-.167-.103-.052-.039-.108-.073-.167-.104-.051-.037-.105-.07-.161-.1-.055-.04-.112-.076-.173-.108-.05-.036-.103-.068-.157-.098-.054-.039-.11-.075-.17-.106-.052-.038-.108-.073-.166-.103-.051-.037-.105-.07-.161-.1-.054-.04-.111-.075-.171-.106-.051-.037-.105-.07-.161-.1-.054-.039-.11-.074-.169-.105-.052-.038-.106-.072-.163-.101-.052-.038-.106-.072-.162-.101-.054-.04-.112-.076-.173-.107-.05-.037-.104-.07-.159-.1-.053-.039-.108-.073-.167-.103-.052-.039-.107-.073-.165-.103-.052-.038-.106-.072-.164-.103-.054-.039-.111-.075-.172-.106-.05-.037-.103-.069-.157-.098-.053-.039-.109-.074-.168-.105-.052-.039-.108-.073-.167-.104-.052-.037-.106-.072-.162-.101-.212-.155-.472-.247-.755-.247h-11.523c-.704,0-1.275.571-1.275,1.275v23.327c-.363.453-.792.891-1.257,1.29v-19.373c0-.492-.278-.918-.685-1.131-.053-.039-.108-.073-.166-.103-.053-.039-.109-.073-.167-.104-.052-.038-.106-.072-.163-.101-.053-.039-.109-.073-.167-.104-.051-.037-.105-.07-.161-.1-.054-.039-.11-.075-.17-.106-.052-.038-.108-.073-.166-.103-.052-.038-.106-.072-.164-.101-.052-.039-.107-.073-.164-.103-.052-.038-.107-.072-.164-.103-.054-.039-.11-.074-.169-.105-.052-.038-.106-.072-.164-.101-.052-.039-.107-.073-.165-.103-.052-.039-.108-.073-.167-.104-.052-.037-.106-.072-.162-.101-.053-.039-.108-.073-.167-.103-.052-.039-.107-.073-.165-.103-.052-.039-.108-.073-.167-.104-.052-.038-.108-.073-.166-.103-.05-.037-.105-.07-.161-.1-.054-.04-.111-.075-.171-.106-.051-.037-.105-.07-.161-.1-.054-.039-.11-.074-.169-.105-.052-.038-.106-.072-.164-.101-.051-.038-.105-.072-.162-.101-.054-.04-.112-.076-.173-.107-.05-.037-.104-.07-.159-.1-.053-.039-.108-.073-.167-.103-.052-.039-.107-.073-.165-.103-.052-.038-.106-.072-.164-.103-.054-.039-.111-.075-.172-.106-.05-.037-.103-.069-.157-.098-.053-.039-.109-.074-.168-.105-.052-.039-.108-.073-.167-.104-.052-.037-.106-.072-.162-.101-.054-.039-.11-.074-.169-.105-.05-.037-.104-.07-.159-.099-.054-.039-.11-.075-.17-.106-.052-.038-.108-.073-.166-.103-.051-.037-.105-.07-.161-.1-.054-.04-.111-.075-.171-.106-.051-.037-.105-.07-.162-.1-.053-.039-.109-.074-.168-.105-.052-.038-.106-.072-.164-.101-.051-.038-.105-.072-.162-.101-.054-.04-.112-.076-.173-.107-.05-.037-.104-.07-.159-.1-.053-.039-.108-.073-.167-.103-.052-.039-.107-.073-.165-.103-.052-.038-.106-.072-.164-.103-.212-.155-.472-.247-.755-.247h-11.523c-.704,0-1.275.571-1.275,1.275v3.991c-.043-.027-.088-.056-.157-.097l-.492-.307c-.048-.03-.096-.061-.161-.1-.048-.031-.096-.062-.175-.109l-.164-.102c-.045-.029-.091-.057-.162-.101l-.164-.103c-.047-.03-.094-.059-.164-.102-.045-.029-.09-.058-.171-.106l-.167-.104c-.045-.028-.09-.056-.159-.098-.044-.028-.087-.056-.169-.106-.044-.028-.087-.055-.169-.105l-.158-.098c-.045-.029-.09-.057-.167-.104l-.328-.204c-.047-.03-.093-.059-.174-.108l-.328-.205c-.045-.028-.09-.056-.119-.073-3.967-2.371-9.906-3.787-15.888-3.787C8.507,12.376,1.139,17.566,1.139,25.599c0,3.925,1.82,7.022,5.392,9.193l8.265,5.142c1.208.757,2.539,1.358,3.889,1.845-1.275-.095-2.585-.343-3.849-.732-.073-.062-.153-.116-.238-.161-.052-.038-.106-.072-.162-.101-.054-.039-.11-.075-.169-.106-.053-.038-.108-.073-.166-.103-.052-.038-.106-.072-.163-.101-.052-.039-.108-.073-.165-.103-.052-.038-.107-.072-.164-.102-.054-.039-.11-.075-.169-.105-.052-.038-.106-.072-.163-.101-.052-.039-.108-.073-.165-.103-.053-.039-.109-.073-.167-.104-.052-.037-.106-.072-.162-.101-.054-.04-.11-.075-.169-.105-.05-.037-.104-.07-.159-.1-.054-.039-.11-.075-.17-.106-.052-.038-.108-.073-.166-.103-.05-.037-.105-.07-.16-.1-.055-.04-.113-.077-.173-.108-.05-.037-.103-.069-.157-.098-.054-.04-.111-.075-.17-.106-.052-.038-.107-.072-.164-.101-.052-.038-.107-.072-.164-.102-.054-.04-.11-.075-.169-.105-.051-.037-.105-.071-.161-.1-.054-.039-.11-.075-.169-.105-.052-.038-.106-.072-.163-.101-.052-.038-.106-.072-.162-.101-.055-.04-.113-.077-.173-.108-.051-.037-.105-.07-.16-.099-.053-.039-.108-.073-.166-.104-.052-.039-.108-.073-.165-.103-.184-.135-.404-.22-.637-.241-.405-.044-.792.116-1.061.413L.33,46.366c-.235.259-.353.602-.327.95.026.348.192.67.462.892.551.452,1.18.895,1.86,1.311l8.238,5.11c4.128,2.532,10.451,3.985,17.347,3.985,8.283,0,14.44-2.328,17.55-6.592.032.024.06.044.075.054.054.042.11.082.14.103l.66.485c.054.042.11.082.133.098l1.449,1.065c.046.037.093.071.143.106l.133.098c.042.032.085.064.126.093.042.033.086.065.131.096.044.035.09.068.127.093.046.037.095.073.149.111l.266.197c.043.034.087.066.115.083.045.037.093.072.141.106.041.032.083.063.143.105l.126.093c.042.033.085.065.115.083.048.039.098.077.151.113l.115.085c.166.134.339.265.523.392.042.032.084.063.131.096.041.031.083.062.14.103l.258.191c.044.034.089.067.129.096l.27.199c.042.032.084.063.126.093.043.033.086.065.103.076,1.961,1.431,4.763,2.07,9.085,2.07,3.128,0,6.036-.855,8.147-2.372.034.022.068.042.103.06.052.038.107.072.164.101.052.039.108.073.165.103.052.038.107.072.164.102.054.039.11.075.169.105.052.038.106.072.163.101.052.039.108.073.165.103.053.039.109.073.167.104.052.037.106.072.162.101.054.04.11.075.169.105.05.037.104.07.159.1.054.039.11.075.17.106.052.038.108.073.166.103.05.037.105.07.16.1.054.04.111.076.171.106.051.037.105.071.161.1.054.039.11.075.168.105.052.038.107.072.164.101.052.038.106.072.162.101.055.04.113.077.173.108.051.037.105.07.16.099.215.159.479.248.756.248h12.008c.48,0,.919-.269,1.136-.698l4.869-9.595c.868,1.539,2.021,2.771,3.404,3.622.066.044.134.085.165.103l.327.204c.06.039.119.077.177.111l.156.097c.06.04.123.078.166.103l.171.106c.065.042.131.083.151.093l.344.215c.065.042.131.083.166.103l.16.099c.066.044.134.085.156.097.05.034.101.065.187.118l.157.097c.065.042.131.083.16.099l1.823,1.135c.065.042.131.083.16.099l.661.411c.066.044.134.085.165.103l.661.411c.06.04.123.078.166.103l.49.305c.051.034.104.067.171.106l.33.205c.06.039.121.077.183.115.046.03.093.059.148.091l.171.106c.065.042.131.083.166.103l.328.204c1.558,1.014,3.355,1.529,5.34,1.529,6.933,0,10.837-3.943,14.111-10.083.853,1.445,1.963,2.605,3.275,3.412l.831.518c.065.042.131.083.16.099.055.036.11.07.16.099.062.041.127.081.162.101l.339.212c.068.045.138.087.16.099.051.034.104.067.171.106l.831.518c.065.042.131.083.151.093.059.039.119.076.183.115l.492.306c.067.044.134.085.151.093.055.037.11.071.182.115l.487.302c.066.044.134.085.165.103l1.148.714c.055.037.11.071.174.109l.652.405c.05.034.101.065.179.113l.166.103c.065.042.131.083.16.099l.661.411c.066.044.134.085.165.103l.334.207c1.558,1.014,3.355,1.529,5.341,1.529,6.001,0,9.647-3.061,12.332-7.071v.553c0,.338.134.662.373.901.092.093.197.169.311.229.052.038.108.073.166.103.054.04.111.075.172.106.05.036.103.068.157.098.053.039.109.074.168.105.052.039.108.073.167.104.052.037.106.072.162.101.054.039.11.074.169.105.05.037.104.07.159.099.054.039.11.075.17.106.052.038.108.073.166.103.051.037.105.07.161.1.054.04.111.075.171.106.051.037.105.07.161.1.054.039.11.074.169.105.052.038.106.072.164.101.052.039.107.073.164.103.053.039.109.073.167.104.052.038.106.072.162.101.053.039.108.073.167.103.052.039.107.073.164.103.053.039.109.073.167.104.052.039.108.073.166.103.051.037.105.071.161.1.053.039.109.074.167.105.053.039.109.073.167.104.052.038.108.073.166.103.052.038.106.072.164.101.052.038.106.072.164.103.053.039.108.073.167.103.052.039.108.073.167.104.052.038.106.072.164.101.052.039.108.073.167.104.051.037.105.07.161.1.054.039.11.075.17.106.052.038.106.072.164.101.052.039.108.073.167.104.052.038.106.072.164.101.052.038.106.072.164.103.054.039.111.075.172.106.05.037.103.069.157.098.053.039.109.074.168.105.052.039.108.073.167.104.052.037.106.072.162.101.054.039.11.074.169.105.05.037.104.07.159.099.054.039.11.075.17.106.052.038.108.073.166.103.051.037.105.07.161.1.054.04.111.075.171.106.051.037.105.07.161.1.212.155.472.247.755.247h11.061c.037,0,.075-.002.111-.005l13.101.015h.001c.703,0,1.273-.569,1.275-1.272l.006-3.423c3.2,4.439,9.761,4.708,20.117,4.708l.766.004c.291.002.593.004.904.004.68,0,1.399-.011,2.115-.057h40.742c8.96,0,16.25-7.29,16.25-16.25v-16.902c0-8.96-7.29-16.249-16.25-16.249ZM19.513,52.467c-6.97,0-14.225-1.991-18.208-5.263l7.611-8.393c1.422,2.276,6.33,4.268,10.953,4.268,3.485,0,7.041-1.636,7.041-3.058,0-3.913-24.467-.783-24.467-14.44,0-8.464,8.607-11.949,17.497-11.949,7.398,0,15.079,2.277,18.208,6.046l-7.041,7.539c-1.494-1.991-6.473-4.765-10.954-4.765-4.695,0-5.69,1.636-5.69,2.845,0,4.268,23.615,1.565,23.615,14.011,0,9.46-9.034,13.159-18.565,13.159ZM39.548,34.196l-.522-.325c-.045-.029-.091-.058-.159-.1l-.327-.204c-.049-.031-.098-.062-.125-.078l-1.534-.954c-.05-.032-.1-.063-.113-.07l-.377-.235c-.049-.03-.098-.062-.172-.107l-.167-.104c-.047-.03-.094-.06-.115-.072l-1.035-.644c-.049-.031-.098-.062-.171-.106l-.449-.279c-1.148-.7-2.43-1.27-3.765-1.746.711.126,1.449.317,2.194.569.024.014.049.028.074.041.047.034.096.063.148.091.052.039.108.073.166.103.053.039.109.073.167.104.052.039.107.073.164.103.052.038.106.072.164.101.052.039.109.074.167.104.052.039.106.072.164.102.053.039.109.074.168.105.051.037.105.071.162.101.052.039.108.073.166.103.053.039.109.074.167.104.051.039.106.072.163.102.053.039.109.074.167.104.052.038.106.072.163.101.052.039.108.073.166.103.052.039.108.073.166.103.052.039.107.072.165.102.052.039.108.073.166.103.052.039.107.073.165.102.052.039.107.073.164.103.052.039.108.073.166.103.052.039.108.073.166.103.052.039.108.073.166.103.052.038.106.072.163.101.052.039.107.073.165.103.052.039.108.073.167.104.052.039.108.073.166.103.052.039.108.073.166.103.051.038.106.072.163.102.052.039.108.073.166.103.053.04.11.075.169.105.051.037.105.071.162.101.052.039.108.073.166.103.052.038.107.072.164.102.052.039.108.073.166.103.044.032.089.062.137.088.208.174.469.278.744.294.039.002.076.002.115.001v.443ZM163.423,51.795h-10.535l.003-26.865c.031-.475.033-.985.01-1.439-.298.563-.647,1.282-1.006,2.022-.233.481-.49,1.01-.776,1.588l-6.318,12.485c-3.57,7.718-7.049,12.209-14.211,12.209-5.392,0-8.875-4.461-8.875-11.365l.003-15.5c.024-.363.03-.747.021-1.111-.26.506-.549,1.102-.845,1.711-.231.476-.485.999-.767,1.57l-6.318,12.485c-3.57,7.718-7.049,12.209-14.211,12.209-5.392,0-8.875-4.461-8.875-11.365l.003-15.501c.032-.475.033-.985.011-1.438-.299.563-.648,1.283-1.007,2.023-.233.48-.49,1.008-.775,1.586l-12.533,24.694h-6.254l-4.849.032-1.351-8.89h-.924c0,6.899-5.548,9.602-10.385,9.602-6.045,0-11.806-3.698-11.806-12.234V14.486h11.523v22.547c0,3.841,2.418,5.335,5.263,5.335,2.632,0,5.477-2.063,6.971-4.126V14.486h11.523v15.462l1.914-3.986c3.642-7.785,7.154-12.311,14.276-12.311,5.43,0,8.938,4.461,8.938,11.365l-.004,15.522c-.037.439-.048.909-.038,1.336.038-.071.077-.144.115-.219h-.073l7.76-15.658c3.659-7.819,7.171-12.346,14.293-12.346l.089.002c.026-.002.058-.002.092-.002,5.43,0,8.938,4.461,8.938,11.365,0,0-.233,16.43-.223,16.857.037-.071,8-15.913,8-15.913,3.641-7.782,7.154-12.309,14.275-12.309,5.43,0,8.939,4.461,8.939,11.365v26.78ZM176.9,51.685h-11.451V14.415h11.523l-.071,37.271ZM171.281,12.067c-3.698,0-6.187-2.489-6.187-5.477,0-2.845,2.489-5.335,6.187-5.335,3.77,0,6.188,2.489,6.188,5.335,0,2.987-2.419,5.477-6.188,5.477ZM204.711,27.929h-8.037v8.535c0,2.489,1.991,5.334,4.694,5.334,1.138,0,1.92-.498,2.987-.996v10.882c-1.849.498-3.557.711-5.335.711-7.824,0-13.869-3.841-13.869-14.083v-10.385h-5.69v-9.673h.64c3.342,0,5.05-1.707,5.05-5.05V5.097h11.523v13.158h8.037v9.673ZM251.885,30.774c-1.406,2.64-2.632,3.195-5.297,4.247-.732.289-2.098.624-2.699.977-.376.222-1.09,1.023-1.537,1.361-1.324,1.003-3.33,1.441-3.49,3.297-.112,1.303-.113,3.792,0,5.095.132,1.519,1.433,2.836,2.945,2.993.518.054,1.222-.077,1.688.009.079.015.132.036.177.106v1.661h1.767v2.545h-16.543v-2.545h1.767v-1.661c.044-.07.098-.091.177-.106.466-.085,1.17.045,1.688-.009,1.512-.158,2.813-1.474,2.945-2.993.113-1.303.112-3.792,0-5.095-.16-1.856-2.166-2.294-3.49-3.297-.447-.339-1.161-1.14-1.537-1.361-.601-.354-1.966-.688-2.699-.977-2.665-1.052-3.891-1.607-5.297-4.247-1.762-3.309-2.089-7.528-2.25-11.218h6.716l-.054-.887.089-.103h20.431l.089.103-.054.887h6.716c-.161,3.69-.488,7.908-2.25,11.218Z" style="fill: #fff;"/>
      </g>
    </g>
  </g>
</svg>